
CASCADE Topology V1, (c) Matra-Datavision
Locations 16
1
1.000000000000000 0.000000000000000 0.000000000000000 0.000000000000000 
0.000000000000000 1.000000000000000 0.000000000000000 0.000000000000000 
0.000000000000000 0.000000000000000 1.000000000000000 0.000000000000000 
1
1.000000000000000 0.000000000000000 0.000000000000000 0.000000000000000 
0.000000000000000 1.000000000000000 0.000000000000000 0.000000000000000 
0.000000000000000 0.000000000000000 1.000000000000000 0.000000000000000 
2  1 1 2 1 0
2  1 -1 0
1
1.000000000000000 0.000000000000000 0.000000000000000 0.000000000000000 
0.000000000000000 1.000000000000000 0.000000000000000 0.000000000000000 
0.000000000000000 0.000000000000000 1.000000000000000 0.000000000000000 
2  5 -1 1 -1 0
2  5 -1 0
1
1.000000000000000 0.000000000000000 0.000000000000000 0.000000000000000 
0.000000000000000 1.000000000000000 0.000000000000000 0.000000000000000 
0.000000000000000 0.000000000000000 1.000000000000000 0.000000000000000 
1
1.000000000000000 0.000000000000000 0.000000000000000 -0.000000000000000 
0.000000000000000 1.000000000000000 0.000000000000000 -0.000000000000000 
0.000000000000000 0.000000000000000 1.000000000000000 -2500.000000000000000 
2  8 -1 9 1 1 1 0
1
1.000000000000000 0.000000000000000 0.000000000000000 0.000000000000000 
0.000000000000000 1.000000000000000 0.000000000000000 0.000000000000000 
0.000000000000000 0.000000000000000 1.000000000000000 5000.000000000000000 
2  8 -1 9 1 11 1 1 1 0
2  8 -1 9 1 1 1 2 1 0
2  1 -1 9 -1 8 1 0
2  8 -1 9 1 11 1 1 1 2 1 0
2  1 -1 11 -1 9 -1 8 1 0
Curve2ds 14
1 0.00000000000000000 0.00000000000000000 0.00000000000000000 -1.00000000000000000 
1 6.28318530717958623 0.00000000000000000 0.00000000000000000 -1.00000000000000000 
1 0.00000000000000000 -100.00000000000000000 1.00000000000000000 0.00000000000000000 
1 0.00000000000000000 0.00000000000000000 1.00000000000000000 0.00000000000000000 
1 0.00000000000000000 -4900.00000000000000000 1.00000000000000000 0.00000000000000000 
1 0.00000000000000000 0.00000000000000000 1.00000000000000000 0.00000000000000000 
1 6.28318530717958623 0.00000000000000000 0.00000000000000000 1.00000000000000000 
1 0.00000000000000000 0.00000000000000000 0.00000000000000000 1.00000000000000000 
1 0.00000000000000000 141.42135623730951011 1.00000000000000000 0.00000000000000000 
2 0.00000000000002240 -0.00000000000002440 1.00000000000000000 0.00000000000000000 -0.00000000000000000 1.00000000000000000 400.00000000000000000
1 6.28318530717958623 0.00000000000000000 0.00000000000000000 1.00000000000000000 
1 0.00000000000000000 0.00000000000000000 0.00000000000000000 1.00000000000000000 
1 0.00000000000000000 141.42135623730951011 1.00000000000000000 0.00000000000000000 
2 0.00000000000002240 -0.00000000000002440 1.00000000000000000 0.00000000000000000 -0.00000000000000000 1.00000000000000000 400.00000000000000000
Curves 7
1 500.00000000000000000 0.00000000000000000 -2500.00000000000000000 0.00000000000000000 0.00000000000000000 1.00000000000000000 
2 0.00000000000000000 0.00000000000000000 -2400.00000000000000000 0.00000000000000000 0.00000000000000000 1.00000000000000000 1.00000000000000000 0.00000000000000000 0.00000000000000000 0.00000000000000000 1.00000000000000000 0.00000000000000000 500.00000000000000000
2 0.00000000000000000 0.00000000000000000 2400.00000000000000000 0.00000000000000000 0.00000000000000000 1.00000000000000000 1.00000000000000000 0.00000000000000000 0.00000000000000000 0.00000000000000000 1.00000000000000000 0.00000000000000000 500.00000000000000000
1 500.00000000000000000 0.00000000000000000 -2400.00000000000000000 -0.70710678118654757 -0.00000000000000000 -0.70710678118654746 
2 0.00000000000000000 0.00000000000000000 -2500.00000000000000000 0.00000000000000000 0.00000000000000000 1.00000000000000000 1.00000000000000000 0.00000000000000000 0.00000000000000000 0.00000000000000000 1.00000000000000000 0.00000000000000000 400.00000000000000000
1 500.00000000000000000 0.00000000000000000 2400.00000000000000000 -0.70710678118654757 0.00000000000000000 0.70710678118654746 
2 0.00000000000000000 0.00000000000000000 2500.00000000000000000 0.00000000000000000 0.00000000000000000 1.00000000000000000 1.00000000000000000 0.00000000000000000 0.00000000000000000 0.00000000000000000 1.00000000000000000 0.00000000000000000 400.00000000000000000
Polygon3D 0
PolygonOnTriangulations 0
Surfaces 5
2 0.00000000000000000 0.00000000000000000 -2500.00000000000000000 -0.00000000000000000 -0.00000000000000000 -1.00000000000000000 1.00000000000000000 0.00000000000000000 0.00000000000000000 0.00000000000000000 1.00000000000000000 0.00000000000000000 500.00000000000000000
3 0.00000000000000000 0.00000000000000000 -2400.00000000000000000 -0.00000000000000000 -0.00000000000000000 -1.00000000000000000 1.00000000000000000 0.00000000000000000 0.00000000000000000 0.00000000000000000 1.00000000000000000 0.00000000000000000 500.00000000000000000
-0.78539816339744839
3 0.00000000000000000 0.00000000000000000 2400.00000000000000000 0.00000000000000000 0.00000000000000000 1.00000000000000000 1.00000000000000000 0.00000000000000000 0.00000000000000000 0.00000000000000000 1.00000000000000000 0.00000000000000000 500.00000000000000000
-0.78539816339744839
1 -0.00000000000002240 0.00000000000002440 0.00000000000000000 0.00000000000000000 0.00000000000000000 1.00000000000000000 1.00000000000000000 0.00000000000000000 0.00000000000000000 0.00000000000000000 1.00000000000000000 0.00000000000000000 
1 -0.00000000000002240 0.00000000000002440 0.00000000000000000 0.00000000000000000 0.00000000000000000 1.00000000000000000 1.00000000000000000 0.00000000000000000 0.00000000000000000 0.00000000000000000 1.00000000000000000 0.00000000000000000 
Triangulations 0

TShapes 23
Ve
0.000000100000000
500.000000000000000 0.000000000000000 -2400.000000000000000
0 0

0101101
*
Ve
0.000000100000000
500.000000000000000 0.000000000000000 2400.000000000000000
0 0

0101101
*
Ed
 0.000000100000000 1 1 0
1  1 0 100.000000000000000 4900.000000000000000
3  1 2CN 1 0 100.000000000000000 4900.000000000000000
0

0101000
+23 6 -22 6 *
Ed
 0.000000100000000 1 1 0
1  2 0 0.000000000000000 6.283185307179586
2  3 1 1 0.000000000000000 6.283185307179586
2  4 2 0 0.000000000000000 6.283185307179586
0

0101000
+23 7 -23 7 *
Ed
 0.000000100000000 1 1 0
1  3 0 0.000000000000000 6.283185307179586
2  5 1 1 0.000000000000000 6.283185307179586
2  6 3 0 0.000000000000000 6.283185307179586
0

0101000
+22 7 -22 7 *
Wi

0101100
+21 1 -20 0 +19 0 -21 1 *
Fa
0  0.000000100000000 1 0

0101000
+18 4 *
Ve
0.000000100000000
400.000000000000000 0.000000000000000 -2500.000000000000000
0 0

0101101
*
Ed
 0.000000100000000 1 1 0
1  4 0 0.000000000000000 141.421356237309510
3  7 8CN 2 0 0.000000000000000 141.421356237309510
0

0101000
+23 7 -16 7 *
Ed
 0.000000100000000 1 1 0
1  5 0 0.000000000000000 6.283185307179586
2  9 2 0 0.000000000000000 6.283185307179586
2  10 4 10 0.000000000000000 6.283185307179586
0

0101000
+16 7 -16 7 *
Wi

0101100
-15 0 +20 0 -14 0 +15 0 *
Fa
0  0.000000100000000 2 0

0101000
+13 0 *
Ve
0.000000100000000
400.000000000000000 0.000000000000000 2500.000000000000000
0 0

0101101
*
Ed
 0.000000100000000 1 1 0
1  6 0 0.000000000000000 141.421356237309510
3  11 12CN 3 0 0.000000000000000 141.421356237309510
0

0101000
+22 7 -11 7 *
Ed
 0.000000100000000 1 1 0
1  7 0 0.000000000000000 6.283185307179586
2  13 3 0 0.000000000000000 6.283185307179586
2  14 5 12 0.000000000000000 6.283185307179586
0

0101000
+11 7 -11 7 *
Wi

0101100
-10 0 +19 0 -9 0 +10 0 *
Fa
0  0.000000100000000 3 0

0101000
+8 0 *
Wi

0101100
+14 0 *
Fa
0  0.000000100000000 4 0

0101000
+6 14 *
Wi

0101100
+9 0 *
Fa
0  0.000000100000000 5 0

0101000
+4 16 *
Sh

0101000
-17 3 -12 2 +7 2 -5 13 +3 15 *
So

1100000
+2 0 *

+1 0 