
CASCADE Topology V1, (c) Matra-Datavision
Locations 32
1
1.000000000000000 0.000000000000000 0.000000000000000 0.000000000000000 
0.000000000000000 1.000000000000000 0.000000000000000 -500.000000000000000 
0.000000000000000 0.000000000000000 1.000000000000000 0.000000000000000 
1
1.000000000000000 0.000000000000000 0.000000000000000 0.000000000000000 
0.000000000000000 1.000000000000000 0.000000000000000 0.000000000000000 
0.000000000000000 0.000000000000000 1.000000000000000 0.000000000000000 
1
1.000000000000000 0.000000000000000 0.000000000000000 0.000000000000000 
0.000000000000000 1.000000000000000 0.000000000000000 0.000000000000000 
0.000000000000000 0.000000000000000 1.000000000000000 0.000000000000000 
2  2 1 3 1 0
1
1.000000000000000 0.000000000000000 0.000000000000000 0.000000000000000 
0.000000000000000 1.000000000000000 0.000000000000000 0.000000000000000 
0.000000000000000 0.000000000000000 1.000000000000000 0.000000000000000 
1
1.000000000000000 0.000000000000000 0.000000000000000 0.000000000000000 
0.000000000000000 1.000000000000000 0.000000000000000 0.000000000000000 
0.000000000000000 0.000000000000000 1.000000000000000 0.000000000000000 
2  5 1 6 -1 0
2  2 -1 0
2  5 1 6 -1 2 1 0
1
1.000000000000000 0.000000000000000 0.000000000000000 0.000000000000000 
0.000000000000000 1.000000000000000 0.000000000000000 0.000000000000000 
0.000000000000000 0.000000000000000 1.000000000000000 0.000000000000000 
2  10 -1 0
1
1.000000000000000 0.000000000000000 0.000000000000000 0.000000000000000 
0.000000000000000 1.000000000000000 0.000000000000000 0.000000000000000 
0.000000000000000 0.000000000000000 1.000000000000000 0.000000000000000 
1
1.000000000000000 0.000000000000000 0.000000000000000 -0.000000000000000 
0.000000000000000 1.000000000000000 0.000000000000000 -0.000000000000000 
0.000000000000000 0.000000000000000 1.000000000000000 -50.000000000000000 
2  12 -1 13 1 5 1 6 -1 2 1 0
1
1.000000000000000 0.000000000000000 0.000000000000000 0.000000000000000 
0.000000000000000 1.000000000000000 0.000000000000000 0.000000000000000 
0.000000000000000 0.000000000000000 1.000000000000000 100.000000000000000 
2  12 -1 13 1 15 1 5 1 6 -1 2 1 0
2  5 1 6 -1 2 1 3 1 0
2  2 -1 6 1 5 -1 0
1
1.000000000000000 0.000000000000000 0.000000000000000 0.000000000000000 
0.000000000000000 1.000000000000000 0.000000000000000 0.000000000000000 
0.000000000000000 0.000000000000000 1.000000000000000 0.000000000000000 
1
1.000000000000000 0.000000000000000 0.000000000000000 0.000000000000000 
0.000000000000000 1.000000000000000 0.000000000000000 0.000000000000000 
0.000000000000000 0.000000000000000 1.000000000000000 0.000000000000000 
2  19 1 20 1 12 -1 13 1 5 1 6 -1 2 1 0
2  13 -1 12 1 20 -1 19 -1 0
2  20 -1 19 -1 0
2  10 -1 2 -1 6 1 5 -1 13 -1 12 1 20 -1 19 -1 0
2  19 1 20 1 12 -1 13 1 15 1 5 1 6 -1 2 1 0
2  15 -1 13 -1 12 1 20 -1 19 -1 0
2  10 -1 2 -1 6 1 5 -1 15 -1 13 -1 12 1 20 -1 19 -1 0
2  12 -1 13 1 5 1 6 -1 2 1 3 1 0
2  2 -1 6 1 5 -1 13 -1 12 1 0
2  12 -1 13 1 15 1 5 1 6 -1 2 1 3 1 0
2  2 -1 6 1 5 -1 15 -1 13 -1 12 1 0
2  10 -1 2 -1 0
Curve2ds 70
1 12.00000000000000000 0.00000000000000000 0.00000000000000000 -1.00000000000000000 
1 0.00000000000000000 -8.48528137423857132 1.00000000000000000 0.00000000000000000 
1 0.00000000000000000 -12.00000000000000000 1.00000000000000000 0.00000000000000000 
1 0.00000000000000000 -8.48528137423857132 1.00000000000000000 0.00000000000000000 
1 0.00000000000000000 -88.00000000000000000 1.00000000000000000 0.00000000000000000 
1 -0.00000000000000000 -8.48528137423857132 1.00000000000000000 0.00000000000000000 
1 88.00000000000000000 0.00000000000000000 0.00000000000000000 -1.00000000000000000 
1 0.00000000000000000 -8.48528137423857132 1.00000000000000000 0.00000000000000000 
2 50.00000000000000000 -50.00000000000000000 -1.00000000000000000 0.00000000000000000 -0.00000000000000000 -1.00000000000000000 37.00000000000000000
1 0.00000000000000000 -16.97056274847713908 1.00000000000000000 0.00000000000000000 
1 4.00000000000000000 2.82842712474619029 -0.57735026918962573 0.81649658092772603 
1 4.00000000000000000 2.82842712474619029 -0.57735026918962573 0.81649658092772603 
1 0.00000000000000000 8.48528137423857132 1.00000000000000000 0.00000000000000000 
1 188.00000000000000000 0.00000000000000000 0.00000000000000000 -1.00000000000000000 
1 79.33333333333334281 -20.74179891480540050 0.57735026918962573 0.81649658092772603 
1 20.66666666666667140 -20.74179891480538629 -0.57735026918962573 0.81649658092772603 
1 0.00000000000000000 8.48528137423857132 1.00000000000000000 0.00000000000000000 
1 -88.00000000000000000 50.00000000000000000 0.00000000000000000 -1.00000000000000000 
1 79.33333333333334281 -20.74179891480540050 0.57735026918962573 0.81649658092772603 
1 20.66666666666667140 -20.74179891480538629 -0.57735026918962573 0.81649658092772603 
1 0.00000000000000000 8.48528137423857132 1.00000000000000000 0.00000000000000000 
1 -88.00000000000000000 50.00000000000000000 0.00000000000000000 -1.00000000000000000 
1 62.66666666666667140 -44.31202495435697131 0.57735026918962573 0.81649658092772603 
1 62.66666666666667140 -44.31202495435697131 0.57735026918962573 0.81649658092772603 
1 0.00000000000000000 8.48528137423857132 1.00000000000000000 0.00000000000000000 
1 12.00000000000000000 0.00000000000000000 0.00000000000000000 -1.00000000000000000 
1 6.28318530717958623 0.00000000000000000 0.00000000000000000 1.00000000000000000 
1 0.00000000000000000 0.00000000000000000 0.00000000000000000 1.00000000000000000 
1 0.00000000000000000 0.00000000000000000 1.00000000000000000 0.00000000000000000 
1 0.00000000000000000 -188.00000000000000000 1.00000000000000000 0.00000000000000000 
1 0.00000000000000000 -0.00000000000000000 1.00000000000000000 0.00000000000000000 
1 100.00000000000000000 50.00000000000000000 -1.00000000000000000 0.00000000000000000 
1 12.00000000000000000 0.00000000000000000 0.00000000000000000 -1.00000000000000000 
1 0.00000000000000000 -8.48528137423857132 1.00000000000000000 0.00000000000000000 
1 0.00000000000000000 -100.00000000000000000 1.00000000000000000 0.00000000000000000 
1 100.00000000000000000 50.00000000000000000 -1.00000000000000000 0.00000000000000000 
1 -100.00000000000000000 -50.00000000000000000 1.00000000000000000 0.00000000000000000 
1 0.00000000000000000 0.00000000000000000 1.00000000000000000 0.00000000000000000 
1 88.00000000000000000 -50.00000000000000000 0.00000000000000000 1.00000000000000000 
1 0.00000000000000000 -8.48528137423857132 1.00000000000000000 0.00000000000000000 
1 -100.00000000000000000 -50.00000000000000000 1.00000000000000000 0.00000000000000000 
1 0.00000000000000000 -100.00000000000000000 1.00000000000000000 0.00000000000000000 
1 88.00000000000000000 -50.00000000000000000 0.00000000000000000 1.00000000000000000 
1 0.00000000000000000 -8.48528137423857132 1.00000000000000000 0.00000000000000000 
1 188.00000000000000000 0.00000000000000000 0.00000000000000000 -1.00000000000000000 
1 0.00000000000000000 -8.48528137423857132 1.00000000000000000 0.00000000000000000 
1 0.00000000000000000 0.00000000000000000 0.00000000000000000 -1.00000000000000000 
1 6.28318530717958623 0.00000000000000000 0.00000000000000000 -1.00000000000000000 
1 0.00000000000000000 -12.00000000000000000 1.00000000000000000 0.00000000000000000 
1 0.00000000000000000 0.00000000000000000 1.00000000000000000 0.00000000000000000 
1 20.66666666666667140 20.74179891480538629 0.57735026918962573 0.81649658092772603 
1 79.33333333333334281 20.74179891480540050 -0.57735026918962573 0.81649658092772603 
1 0.00000000000000000 8.48528137423857132 1.00000000000000000 0.00000000000000000 
1 88.00000000000000000 0.00000000000000000 0.00000000000000000 -1.00000000000000000 
1 62.66666666666667140 44.31202495435697131 -0.57735026918962573 0.81649658092772603 
1 62.66666666666667140 44.31202495435697131 -0.57735026918962573 0.81649658092772603 
1 4.00000000000000000 -2.82842712474619029 0.57735026918962573 0.81649658092772603 
1 4.00000000000000000 -2.82842712474619029 0.57735026918962573 0.81649658092772603 
1 0.00000000000000000 8.48528137423857132 1.00000000000000000 0.00000000000000000 
1 0.00000000000000000 -12.00000000000000000 1.00000000000000000 0.00000000000000000 
1 20.66666666666667140 20.74179891480538629 0.57735026918962573 0.81649658092772603 
1 79.33333333333334281 20.74179891480540050 -0.57735026918962573 0.81649658092772603 
1 0.00000000000000000 8.48528137423857132 1.00000000000000000 0.00000000000000000 
1 0.00000000000000000 -88.00000000000000000 1.00000000000000000 0.00000000000000000 
1 0.00000000000000000 8.48528137423857132 1.00000000000000000 0.00000000000000000 
1 12.00000000000000000 0.00000000000000000 0.00000000000000000 -1.00000000000000000 
1 6.28318530717958623 0.00000000000000000 0.00000000000000000 1.00000000000000000 
1 0.00000000000000000 0.00000000000000000 0.00000000000000000 1.00000000000000000 
1 0.00000000000000000 16.97056274847713908 1.00000000000000000 0.00000000000000000 
2 50.00000000000000000 -50.00000000000000000 1.00000000000000000 0.00000000000000000 0.00000000000000000 -1.00000000000000000 37.00000000000000000
Curves 35
1 -100.00000000000000000 38.00000000000000000 -50.00000000000000000 0.00000000000000000 0.00000000000000000 1.00000000000000000 
1 -100.00000000000000000 50.00000000000000000 -38.00000000000000000 0.00000000000000000 -1.00000000000000000 0.00000000000000000 
1 -100.00000000000000000 50.00000000000000000 38.00000000000000000 0.00000000000000000 -1.00000000000000000 0.00000000000000000 
1 -100.00000000000000000 -38.00000000000000000 -50.00000000000000000 0.00000000000000000 0.00000000000000000 1.00000000000000000 
2 -100.00000000000000000 0.00000000000000000 0.00000000000000000 1.00000000000000000 0.00000000000000000 0.00000000000000000 -0.00000000000000000 1.00000000000000000 0.00000000000000000 0.00000000000000000 -0.00000000000000000 1.00000000000000000 37.00000000000000000
8 -13.85640646055101044 6.92820323027550877
1 -92.00000000000000000 46.00000000000000000 -46.00000000000000000 0.57735026918962573 0.57735026918962573 -0.57735026918962573 
1 -88.00000000000000000 50.00000000000000000 -50.00000000000000000 0.00000000000000000 0.00000000000000000 1.00000000000000000 
8 15.01110699893026990 35.79571668975679444
1 -108.66666666666667140 29.33333333333332860 29.33333333333334991 0.57735026918962573 0.57735026918962573 0.57735026918962573 
1 -88.00000000000000000 50.00000000000000000 -50.00000000000000000 0.00000000000000000 -1.00000000000000000 0.00000000000000000 
8 15.01110699893026812 35.79571668975678733
1 -108.66666666666667140 -29.33333333333334991 -29.33333333333332860 0.57735026918962573 -0.57735026918962573 -0.57735026918962573 
1 -88.00000000000000000 50.00000000000000000 50.00000000000000000 0.00000000000000000 -1.00000000000000000 0.00000000000000000 
8 43.87862045841154668 64.66323014923807477
1 -125.33333333333334281 -12.66666666666667496 12.66666666666667496 0.57735026918962573 -0.57735026918962573 0.57735026918962573 
1 -88.00000000000000000 -50.00000000000000000 -50.00000000000000000 0.00000000000000000 0.00000000000000000 1.00000000000000000 
1 -88.00000000000000000 25.00000000000000000 0.00000000000000000 0.70710678118654757 -0.70710678118654746 0.00000000000000000 
2 -88.00000000000000000 0.00000000000000000 0.00000000000000000 1.00000000000000000 0.00000000000000000 0.00000000000000000 -0.00000000000000000 1.00000000000000000 0.00000000000000000 0.00000000000000000 -0.00000000000000000 1.00000000000000000 25.00000000000000000
1 100.00000000000000000 50.00000000000000000 0.00000000000000000 -1.00000000000000000 0.00000000000000000 0.00000000000000000 
1 88.00000000000000000 50.00000000000000000 -50.00000000000000000 0.00000000000000000 0.00000000000000000 1.00000000000000000 
1 100.00000000000000000 50.00000000000000000 0.00000000000000000 -1.00000000000000000 0.00000000000000000 0.00000000000000000 
1 -100.00000000000000000 -50.00000000000000000 0.00000000000000000 1.00000000000000000 0.00000000000000000 0.00000000000000000 
1 88.00000000000000000 -50.00000000000000000 -50.00000000000000000 0.00000000000000000 1.00000000000000000 0.00000000000000000 
1 -100.00000000000000000 -50.00000000000000000 0.00000000000000000 1.00000000000000000 0.00000000000000000 0.00000000000000000 
1 88.00000000000000000 -50.00000000000000000 50.00000000000000000 0.00000000000000000 1.00000000000000000 0.00000000000000000 
1 88.00000000000000000 -50.00000000000000000 -50.00000000000000000 0.00000000000000000 0.00000000000000000 1.00000000000000000 
1 100.00000000000000000 25.00000000000000000 0.00000000000000000 -1.00000000000000000 -0.00000000000000000 -0.00000000000000000 
2 88.00000000000000000 0.00000000000000000 0.00000000000000000 1.00000000000000000 0.00000000000000000 0.00000000000000000 -0.00000000000000000 1.00000000000000000 0.00000000000000000 0.00000000000000000 -0.00000000000000000 1.00000000000000000 25.00000000000000000
8 -35.79571668975678733 -15.01110699893026812
1 108.66666666666667140 29.33333333333334991 -29.33333333333332860 0.57735026918962573 -0.57735026918962573 0.57735026918962573 
1 100.00000000000000000 38.00000000000000000 -50.00000000000000000 0.00000000000000000 0.00000000000000000 1.00000000000000000 
8 -64.66323014923807477 -43.87862045841154668
1 125.33333333333334281 12.66666666666667496 12.66666666666667496 0.57735026918962573 -0.57735026918962573 -0.57735026918962573 
8 -6.92820323027550877 13.85640646055101044
1 92.00000000000000000 -46.00000000000000000 -46.00000000000000000 0.57735026918962573 0.57735026918962573 0.57735026918962573 
1 100.00000000000000000 -50.00000000000000000 -38.00000000000000000 0.00000000000000000 1.00000000000000000 0.00000000000000000 
8 -35.79571668975679444 -15.01110699893026990
1 108.66666666666667140 -29.33333333333332860 29.33333333333334991 0.57735026918962573 0.57735026918962573 -0.57735026918962573 
1 100.00000000000000000 -50.00000000000000000 38.00000000000000000 0.00000000000000000 1.00000000000000000 0.00000000000000000 
1 100.00000000000000000 -38.00000000000000000 -50.00000000000000000 0.00000000000000000 0.00000000000000000 1.00000000000000000 
1 88.00000000000000000 25.00000000000000000 0.00000000000000000 0.70710678118654757 0.70710678118654746 0.00000000000000000 
2 100.00000000000000000 0.00000000000000000 0.00000000000000000 1.00000000000000000 0.00000000000000000 0.00000000000000000 -0.00000000000000000 1.00000000000000000 0.00000000000000000 0.00000000000000000 -0.00000000000000000 1.00000000000000000 37.00000000000000000
Polygon3D 0
PolygonOnTriangulations 0
Surfaces 17
1 -100.00000000000000000 50.00000000000000000 -50.00000000000000000 1.00000000000000000 0.00000000000000000 0.00000000000000000 0.00000000000000000 -1.00000000000000000 0.00000000000000000 0.00000000000000000 0.00000000000000000 -1.00000000000000000 
1 -94.00000000000000000 44.00000000000000000 -50.00000000000000000 -0.70710678118654757 0.70710678118654757 0.00000000000000000 0.00000000000000000 0.00000000000000000 1.00000000000000000 0.70710678118654757 0.70710678118654757 -0.00000000000000000 
1 -94.00000000000000000 50.00000000000000000 -44.00000000000000000 -0.70710678118654757 0.00000000000000000 -0.70710678118654757 0.00000000000000000 -1.00000000000000000 -0.00000000000000000 0.70710678118654757 0.00000000000000000 -0.70710678118654757 
1 -94.00000000000000000 50.00000000000000000 44.00000000000000000 0.70710678118654757 0.00000000000000000 -0.70710678118654757 0.00000000000000000 -1.00000000000000000 0.00000000000000000 0.70710678118654757 0.00000000000000000 0.70710678118654757 
1 -94.00000000000000000 -44.00000000000000000 -50.00000000000000000 -0.70710678118654757 -0.70710678118654757 0.00000000000000000 0.00000000000000000 0.00000000000000000 1.00000000000000000 0.70710678118654757 -0.70710678118654757 -0.00000000000000000 
3 -88.00000000000000000 0.00000000000000000 0.00000000000000000 1.00000000000000000 0.00000000000000000 0.00000000000000000 -0.00000000000000000 1.00000000000000000 0.00000000000000000 0.00000000000000000 -0.00000000000000000 1.00000000000000000 25.00000000000000000
-0.78539816339744828
1 100.00000000000000000 50.00000000000000000 -50.00000000000000000 0.00000000000000000 -1.00000000000000000 0.00000000000000000 -1.00000000000000000 0.00000000000000000 0.00000000000000000 -0.00000000000000000 -0.00000000000000000 -1.00000000000000000 
1 0.00000000000000000 0.00000000000000000 0.00000000000000000 0.00000000000000000 0.00000000000000000 1.00000000000000000 1.00000000000000000 0.00000000000000000 -0.00000000000000000 -0.00000000000000000 1.00000000000000000 0.00000000000000000 
1 0.00000000000000000 0.00000000000000000 0.00000000000000000 0.00000000000000000 0.00000000000000000 1.00000000000000000 1.00000000000000000 0.00000000000000000 -0.00000000000000000 -0.00000000000000000 1.00000000000000000 0.00000000000000000 
1 -100.00000000000000000 -50.00000000000000000 -50.00000000000000000 0.00000000000000000 1.00000000000000000 0.00000000000000000 1.00000000000000000 0.00000000000000000 0.00000000000000000 0.00000000000000000 0.00000000000000000 -1.00000000000000000 
2 100.00000000000000000 0.00000000000000000 0.00000000000000000 1.00000000000000000 0.00000000000000000 0.00000000000000000 -0.00000000000000000 1.00000000000000000 0.00000000000000000 0.00000000000000000 -0.00000000000000000 1.00000000000000000 25.00000000000000000
1 94.00000000000000000 44.00000000000000000 -50.00000000000000000 0.70710678118654757 0.70710678118654757 0.00000000000000000 0.00000000000000000 -0.00000000000000000 1.00000000000000000 0.70710678118654757 -0.70710678118654757 -0.00000000000000000 
1 94.00000000000000000 -50.00000000000000000 -44.00000000000000000 0.70710678118654757 0.00000000000000000 -0.70710678118654757 0.00000000000000000 1.00000000000000000 0.00000000000000000 0.70710678118654757 -0.00000000000000000 0.70710678118654757 
1 94.00000000000000000 -50.00000000000000000 44.00000000000000000 -0.70710678118654757 0.00000000000000000 -0.70710678118654757 0.00000000000000000 1.00000000000000000 0.00000000000000000 0.70710678118654757 0.00000000000000000 -0.70710678118654757 
1 94.00000000000000000 -44.00000000000000000 -50.00000000000000000 0.70710678118654757 -0.70710678118654757 0.00000000000000000 0.00000000000000000 0.00000000000000000 1.00000000000000000 0.70710678118654757 0.70710678118654757 -0.00000000000000000 
3 88.00000000000000000 0.00000000000000000 0.00000000000000000 1.00000000000000000 0.00000000000000000 0.00000000000000000 -0.00000000000000000 1.00000000000000000 0.00000000000000000 0.00000000000000000 -0.00000000000000000 1.00000000000000000 25.00000000000000000
0.78539816339744828
1 100.00000000000000000 -50.00000000000000000 -50.00000000000000000 -1.00000000000000000 0.00000000000000000 0.00000000000000000 0.00000000000000000 1.00000000000000000 0.00000000000000000 0.00000000000000000 0.00000000000000000 -1.00000000000000000 
Triangulations 0

TShapes 93
Ve
0.000000100000000
-100.000000000000000 38.000000000000007 -38.000000000000007
0 0

0101101
*
Ve
0.000000100000000
-100.000000000000000 38.000000000000007 38.000000000000000
0 0

0101101
*
Ed
 0.000000100000000 1 1 0
1  1 0 11.999999999999993 88.000000000000000
2  1 1 9 11.999999999999993 88.000000000000000
2  2 2 0 11.999999999999993 88.000000000000000
0

0101000
+93 11 -92 11 *
Ve
0.000000100000000
-100.000000000000000 -38.000000000000000 -38.000000000000007
0 0

0101101
*
Ed
 0.000000100000000 1 1 0
1  2 0 11.999999999999993 88.000000000000000
2  3 1 9 11.999999999999993 88.000000000000000
2  4 3 0 11.999999999999993 88.000000000000000
0

0101000
+93 11 -90 11 *
Ve
0.000000100000000
-100.000000000000000 -38.000000000000000 38.000000000000007
0 0

0101101
*
Ed
 0.000000100000000 1 1 0
1  3 0 11.999999999999993 88.000000000000000
2  5 1 9 11.999999999999993 88.000000000000000
2  6 4 0 11.999999999999993 88.000000000000000
0

0101000
+92 11 -88 11 *
Ed
 0.000000100000000 1 1 0
1  4 0 11.999999999999993 88.000000000000000
2  7 1 9 11.999999999999993 88.000000000000000
2  8 5 0 11.999999999999993 88.000000000000000
0

0101000
+90 11 -88 11 *
Wi

0101100
+91 0 -89 0 +87 0 -86 0 *
Ve
0.000000100000000
-100.000000000000000 37.000000000000000 0.000000000000000
0 0

0101101
*
Ed
 0.000000100000000 1 1 0
1  5 0 0.000000000000000 6.283185307179586
2  9 1 9 0.000000000000000 6.283185307179586
2  10 6 0 0.000000000000000 6.283185307179586
0

0101000
+84 11 -84 11 *
Wi

0101100
-83 0 *
Fa
0  0.000000100000000 1 7

0111000
+85 8 +82 8 *
Ve
0.000000100000000
-88.000000000000000 50.000000000000000 -50.000000000000000
0 0

0101101
*
Ed
 0.000000100000000 1 1 0
1  6 0 -13.856406460551010 6.928203230275509
2  11 2 0 -13.856406460551010 6.928203230275509
2  12 3 0 -13.856406460551010 6.928203230275509
0

0101000
+93 11 -80 11 *
Ve
0.000000100000000
-88.000000000000000 50.000000000000000 50.000000000000000
0 0

0101101
*
Ed
 0.000000100000000 1 1 0
1  7 0 -0.000000000000000 100.000000000000000
2  13 2 0 -0.000000000000000 100.000000000000000
2  14 7 9 -0.000000000000000 100.000000000000000
0

0101000
+80 11 -78 11 *
Ed
 0.000000100000000 1 1 0
1  8 0 15.011106998930270 35.795716689756794
2  15 2 0 15.011106998930270 35.795716689756794
2  16 4 0 15.011106998930270 35.795716689756794
0

0101000
+92 11 -78 11 *
Wi

0101100
-79 0 +91 0 -77 0 +76 0 *
Fa
0  0.000000100000000 2 0

0111000
+75 0 *
Ve
0.000000100000000
-88.000000000000000 -50.000000000000000 -50.000000000000000
0 0

0101101
*
Ed
 0.000000100000000 1 1 0
1  9 0 -0.000000000000000 100.000000000000000
2  17 3 0 -0.000000000000000 100.000000000000000
2  18 8 14 -0.000000000000000 100.000000000000000
0

0101000
+80 11 -73 11 *
Ed
 0.000000100000000 1 1 0
1  10 0 15.011106998930268 35.795716689756787
2  19 3 0 15.011106998930268 35.795716689756787
2  20 5 0 15.011106998930268 35.795716689756787
0

0101000
+90 11 -73 11 *
Wi

0101100
-79 0 +89 0 -72 0 +71 0 *
Fa
0  0.000000100000000 3 0

0111000
+70 0 *
Ve
0.000000100000000
-88.000000000000000 -50.000000000000000 50.000000000000000
0 0

0101101
*
Ed
 0.000000100000000 1 1 0
1  11 0 -0.000000000000000 100.000000000000000
2  21 4 0 -0.000000000000000 100.000000000000000
2  22 9 16 -0.000000000000000 100.000000000000000
0

0101000
+78 11 -68 11 *
Ed
 0.000000100000000 1 1 0
1  12 0 43.878620458411547 64.663230149238075
2  23 4 0 43.878620458411547 64.663230149238075
2  24 5 0 43.878620458411547 64.663230149238075
0

0101000
+88 11 -68 11 *
Wi

0101100
-76 0 +87 0 -67 0 +66 0 *
Fa
0  0.000000100000000 4 0

0111000
+65 0 *
Ed
 0.000000100000000 1 1 0
1  13 0 -0.000000000000000 100.000000000000000
2  25 5 0 -0.000000000000000 100.000000000000000
2  26 10 9 -0.000000000000000 100.000000000000000
0

0101000
+73 11 -68 11 *
Wi

0101100
-71 0 +86 0 -63 0 +66 0 *
Fa
0  0.000000100000000 5 0

0111000
+62 0 *
Ve
0.000000100000000
-88.000000000000000 25.000000000000000 0.000000000000000
0 0

0101101
*
Ed
 0.000000100000000 1 1 0
1  14 0 -16.970562748477139 0.000000000000000
3  27 28CN 6 0 -16.970562748477139 0.000000000000000
0

0101000
+84 11 -60 11 *
Ed
 0.000000100000000 1 1 0
1  15 0 0.000000000000000 6.283185307179586
2  29 6 0 0.000000000000000 6.283185307179586
2  30 11 2 0.000000000000000 6.283185307179586
0

0101000
+60 11 -60 11 *
Wi

0101100
-59 0 +83 0 -58 0 +59 0 *
Fa
0  0.000000100000000 6 0

0111000
+57 0 *
Ve
0.000000100000000
88.000000000000000 50.000000000000000 -50.000000000000000
0 0

0101101
*
Ed
 0.000000100000000 1 1 0
1  16 0 12.000000000000000 188.000000000000000
2  31 7 22 12.000000000000000 188.000000000000000
2  32 8 23 12.000000000000000 188.000000000000000
0

0101000
+55 24 -80 24 *
Ve
0.000000100000000
88.000000000000000 50.000000000000000 50.000000000000000
0 0

0101101
*
Ed
 0.000000100000000 1 1 0
1  17 0 -0.000000000000000 100.000000000000000
2  33 7 9 -0.000000000000000 100.000000000000000
2  34 12 0 -0.000000000000000 100.000000000000000
0

0101000
+55 11 -53 11 *
Ed
 0.000000100000000 1 1 0
1  18 0 12.000000000000000 188.000000000000000
2  35 7 26 12.000000000000000 188.000000000000000
2  36 9 23 12.000000000000000 188.000000000000000
0

0101000
+53 27 -78 27 *
Wi

0101100
-54 21 +52 0 -77 0 +51 25 *
Fa
0  0.000000100000000 7 0

0111000
+50 18 *
Ve
0.000000100000000
88.000000000000000 -50.000000000000000 -50.000000000000000
0 0

0101101
*
Ed
 0.000000100000000 1 1 0
1  19 0 12.000000000000000 188.000000000000000
2  37 8 23 12.000000000000000 188.000000000000000
2  38 10 22 12.000000000000000 188.000000000000000
0

0101000
+73 24 -48 24 *
Ed
 0.000000100000000 1 1 0
1  20 0 0.000000000000000 100.000000000000000
2  39 8 14 0.000000000000000 100.000000000000000
2  40 13 0 0.000000000000000 100.000000000000000
0

0101000
+48 11 -55 11 *
Wi

0101100
+47 21 +72 0 +46 0 +54 21 *
Fa
0  0.000000100000000 8 0

0111000
+45 29 *
Ve
0.000000100000000
88.000000000000000 -50.000000000000000 50.000000000000000
0 0

0101101
*
Ed
 0.000000100000000 1 1 0
1  21 0 12.000000000000000 188.000000000000000
2  41 9 23 12.000000000000000 188.000000000000000
2  42 10 26 12.000000000000000 188.000000000000000
0

0101000
+68 27 -43 27 *
Ed
 0.000000100000000 1 1 0
1  22 0 0.000000000000000 100.000000000000000
2  43 9 16 0.000000000000000 100.000000000000000
2  44 14 0 0.000000000000000 100.000000000000000
0

0101000
+43 11 -53 11 *
Wi

0101100
+42 25 +67 0 +41 0 +51 25 *
Fa
0  0.000000100000000 9 0

0111000
+40 31 *
Ed
 0.000000100000000 1 1 0
1  23 0 -0.000000000000000 100.000000000000000
2  45 10 9 -0.000000000000000 100.000000000000000
2  46 15 0 -0.000000000000000 100.000000000000000
0

0101000
+48 11 -43 11 *
Wi

0101100
-47 21 +63 0 -38 0 +42 25 *
Fa
0  0.000000100000000 10 0

0111000
+37 18 *
Ve
0.000000100000000
88.000000000000000 25.000000000000000 0.000000000000000
0 0

0101101
*
Ed
 0.000000100000000 1 1 0
1  24 0 12.000000000000000 188.000000000000000
3  47 48CN 11 0 12.000000000000000 188.000000000000000
0

0101000
+35 32 -60 32 *
Ed
 0.000000100000000 1 1 0
1  25 0 0.000000000000000 6.283185307179586
2  49 11 2 0.000000000000000 6.283185307179586
2  50 16 0 0.000000000000000 6.283185307179586
0

0101000
+35 11 -35 11 *
Wi

0101100
-34 2 -33 0 +58 0 +34 2 *
Fa
0  0.000000100000000 11 0

0111000
+32 8 *
Ve
0.000000100000000
100.000000000000000 38.000000000000000 -38.000000000000007
0 0

0101101
*
Ed
 0.000000100000000 1 1 0
1  26 0 -35.795716689756787 -15.011106998930268
2  51 12 0 -35.795716689756787 -15.011106998930268
2  52 13 0 -35.795716689756787 -15.011106998930268
0

0101000
+55 11 -30 11 *
Ve
0.000000100000000
100.000000000000000 38.000000000000000 38.000000000000007
0 0

0101101
*
Ed
 0.000000100000000 1 1 0
1  27 0 11.999999999999993 88.000000000000000
2  53 12 0 11.999999999999993 88.000000000000000
2  54 17 9 11.999999999999993 88.000000000000000
0

0101000
+30 11 -28 11 *
Ed
 0.000000100000000 1 1 0
1  28 0 -64.663230149238075 -43.878620458411547
2  55 12 0 -64.663230149238075 -43.878620458411547
2  56 14 0 -64.663230149238075 -43.878620458411547
0

0101000
+53 11 -28 11 *
Wi

0101100
-29 0 +52 0 -27 0 +26 0 *
Fa
0  0.000000100000000 12 0

0111000
+25 0 *
Ve
0.000000100000000
100.000000000000000 -38.000000000000007 -38.000000000000007
0 0

0101101
*
Ed
 0.000000100000000 1 1 0
1  29 0 -6.928203230275509 13.856406460551010
2  57 13 0 -6.928203230275509 13.856406460551010
2  58 15 0 -6.928203230275509 13.856406460551010
0

0101000
+48 11 -23 11 *
Ed
 0.000000100000000 1 1 0
1  30 0 11.999999999999993 88.000000000000000
2  59 13 0 11.999999999999993 88.000000000000000
2  60 17 9 11.999999999999993 88.000000000000000
0

0101000
+23 11 -30 11 *
Wi

0101100
-22 0 +46 0 -21 0 +29 0 *
Fa
0  0.000000100000000 13 0

0111000
+20 0 *
Ve
0.000000100000000
100.000000000000000 -38.000000000000007 38.000000000000000
0 0

0101101
*
Ed
 0.000000100000000 1 1 0
1  31 0 -35.795716689756794 -15.011106998930270
2  61 14 0 -35.795716689756794 -15.011106998930270
2  62 15 0 -35.795716689756794 -15.011106998930270
0

0101000
+43 11 -18 11 *
Ed
 0.000000100000000 1 1 0
1  32 0 11.999999999999993 88.000000000000000
2  63 14 0 11.999999999999993 88.000000000000000
2  64 17 9 11.999999999999993 88.000000000000000
0

0101000
+18 11 -28 11 *
Wi

0101100
-17 0 +41 0 -16 0 +26 0 *
Fa
0  0.000000100000000 14 0

0111000
+15 0 *
Ed
 0.000000100000000 1 1 0
1  33 0 11.999999999999993 88.000000000000000
2  65 15 0 11.999999999999993 88.000000000000000
2  66 17 9 11.999999999999993 88.000000000000000
0

0101000
+23 11 -18 11 *
Wi

0101100
-22 0 +38 0 -13 0 +17 0 *
Fa
0  0.000000100000000 15 0

0111000
+12 0 *
Ve
0.000000100000000
100.000000000000000 37.000000000000000 0.000000000000000
0 0

0101101
*
Ed
 0.000000100000000 1 1 0
1  34 0 0.000000000000000 16.970562748477139
3  67 68CN 16 0 0.000000000000000 16.970562748477139
0

0101000
+35 11 -10 11 *
Ed
 0.000000100000000 1 1 0
1  35 0 0.000000000000000 6.283185307179586
2  69 16 0 0.000000000000000 6.283185307179586
2  70 17 9 0.000000000000000 6.283185307179586
0

0101000
+10 11 -10 11 *
Wi

0101100
-9 0 +33 0 -8 0 +9 0 *
Fa
0  0.000000100000000 16 0

0111000
+7 0 *
Wi

0101100
+13 0 -21 0 +16 0 -27 0 *
Wi

0101100
+8 0 *
Fa
0  0.000000100000000 17 7

0111000
+5 8 +4 8 *
Sh

0101000
-81 4 +74 3 -69 3 +64 3 -61 3 -56 3 -49 17 -44 28 +39 30 -36 17 
-31 4 +24 3 +19 3 -14 3 -11 3 -6 3 -3 4 *
So

1100000
+2 0 *

+1 1 