
CASCADE Topology V1, (c) Matra-Datavision
Locations 44
1
-0.000000000000000 1.000000000000000 0.000000000000000 -0.000000000000111 
-1.000000000000000 -0.000000000000000 0.000000000000000 -500.000000000000000 
0.000000000000000 0.000000000000000 1.000000000000000 2000.000000000000000 
1
1.000000000000000 0.000000000000000 0.000000000000000 0.000000000000000 
0.000000000000000 1.000000000000000 0.000000000000000 0.000000000000000 
0.000000000000000 0.000000000000000 1.000000000000000 0.000000000000000 
1
1.000000000000000 0.000000000000000 0.000000000000000 0.000000000000000 
0.000000000000000 1.000000000000000 0.000000000000000 0.000000000000000 
0.000000000000000 0.000000000000000 1.000000000000000 0.000000000000000 
1
1.000000000000000 0.000000000000000 0.000000000000000 0.000000000000000 
0.000000000000000 1.000000000000000 0.000000000000000 0.000000000000000 
0.000000000000000 0.000000000000000 1.000000000000000 0.000000000000000 
1
1.000000000000000 0.000000000000000 0.000000000000000 0.000000000000000 
0.000000000000000 1.000000000000000 0.000000000000000 0.000000000000000 
0.000000000000000 0.000000000000000 1.000000000000000 0.000000000000000 
2  2 1 3 -1 4 1 5 1 0
2  4 -1 3 1 2 -1 0
1
1.000000000000000 0.000000000000000 0.000000000000000 0.000000000000000 
0.000000000000000 1.000000000000000 0.000000000000000 0.000000000000000 
0.000000000000000 0.000000000000000 1.000000000000000 0.000000000000000 
1
1.000000000000000 0.000000000000000 0.000000000000000 0.000000000000000 
0.000000000000000 1.000000000000000 0.000000000000000 0.000000000000000 
0.000000000000000 0.000000000000000 1.000000000000000 0.000000000000000 
1
1.000000000000000 0.000000000000000 0.000000000000000 0.000000000000000 
0.000000000000000 1.000000000000000 0.000000000000000 0.000000000000000 
0.000000000000000 0.000000000000000 1.000000000000000 0.000000000000000 
1
1.000000000000000 0.000000000000000 0.000000000000000 -0.000000000000000 
0.000000000000000 1.000000000000000 0.000000000000000 -0.000000000000000 
0.000000000000000 0.000000000000000 1.000000000000000 -50.000000000000000 
2  8 1 9 1 10 -1 11 1 2 1 3 -1 4 1 0
2  11 -1 10 1 9 -1 8 -1 0
2  9 -1 8 -1 0
1
1.000000000000000 0.000000000000000 0.000000000000000 0.000000000000000 
0.000000000000000 1.000000000000000 0.000000000000000 0.000000000000000 
0.000000000000000 0.000000000000000 1.000000000000000 0.000000000000000 
2  15 -1 4 -1 3 1 2 -1 11 -1 10 1 9 -1 8 -1 0
2  2 1 3 -1 4 1 0
2  15 -1 0
2  15 -1 4 -1 3 1 2 -1 0
1
1.000000000000000 0.000000000000000 0.000000000000000 0.000000000000000 
0.000000000000000 1.000000000000000 0.000000000000000 0.000000000000000 
0.000000000000000 0.000000000000000 1.000000000000000 100.000000000000000 
2  8 1 9 1 10 -1 11 1 20 1 2 1 3 -1 4 1 0
2  20 -1 11 -1 10 1 9 -1 8 -1 0
2  15 -1 4 -1 3 1 2 -1 20 -1 11 -1 10 1 9 -1 8 -1 0
2  10 -1 11 1 2 1 3 -1 4 1 5 1 0
2  4 -1 3 1 2 -1 11 -1 10 1 0
2  10 -1 11 1 2 1 3 -1 4 1 0
2  8 1 9 1 10 -1 11 1 0
2  8 1 9 1 10 -1 11 1 20 1 0
2  10 -1 11 1 20 1 2 1 3 -1 4 1 5 1 0
2  4 -1 3 1 2 -1 20 -1 11 -1 10 1 0
2  10 -1 11 1 20 1 2 1 3 -1 4 1 0
2  4 1 5 1 0
2  2 1 3 -1 0
2  4 -1 0
2  15 -1 4 -1 0
1
1.000000000000000 0.000000000000000 0.000000000000000 0.000000000000000 
0.000000000000000 1.000000000000000 0.000000000000000 0.000000000000000 
0.000000000000000 0.000000000000000 1.000000000000000 0.000000000000000 
1
0.000000000000000 0.000000000000000 1.000000000000000 50.000000000000000 
1.000000000000000 0.000000000000000 0.000000000000000 0.000000000000000 
0.000000000000000 1.000000000000000 0.000000000000000 0.000000000000000 
1
1.000000000000000 0.000000000000000 0.000000000000000 -50.000000000000000 
0.000000000000000 1.000000000000000 0.000000000000000 -0.000000000000000 
0.000000000000000 0.000000000000000 1.000000000000000 -0.000000000000000 
2  36 1 37 1 3 -1 38 1 4 1 0
2  38 -1 3 1 37 -1 36 -1 0
2  37 -1 36 -1 0
2  15 -1 4 -1 38 -1 3 1 37 -1 36 -1 0
2  3 -1 38 1 4 1 5 1 0
2  36 1 37 1 0
Curve2ds 50
1 0.00000000000000000 -0.00000000000000000 1.00000000000000000 0.00000000000000000 
1 50.00000000000000000 50.00000000000000000 -1.00000000000000000 0.00000000000000000 
1 12.00000000000000000 0.00000000000000000 0.00000000000000000 -1.00000000000000000 
1 0.00000000000000000 -8.48528137423857132 1.00000000000000000 0.00000000000000000 
1 100.00000000000000000 0.00000000000000000 0.00000000000000000 -1.00000000000000000 
1 0.00000000000000000 0.00000000000000000 0.00000000000000000 -1.00000000000000000 
1 0.00000000000000000 -100.00000000000000000 1.00000000000000000 0.00000000000000000 
1 50.00000000000000000 50.00000000000000000 -1.00000000000000000 0.00000000000000000 
1 -50.00000000000000000 -50.00000000000000000 1.00000000000000000 0.00000000000000000 
1 0.00000000000000000 0.00000000000000000 1.00000000000000000 0.00000000000000000 
1 38.00000000000000000 -50.00000000000000000 0.00000000000000000 1.00000000000000000 
1 0.00000000000000000 -8.48528137423857132 1.00000000000000000 0.00000000000000000 
1 -50.00000000000000000 50.00000000000000000 0.00000000000000000 -1.00000000000000000 
1 0.00000000000000000 0.00000000000000000 1.00000000000000000 0.00000000000000000 
1 20.66666666666667140 20.74179891480538984 0.57735026918962573 0.81649658092772603 
1 79.33333333333334281 20.74179891480540050 -0.57735026918962573 0.81649658092772603 
1 0.00000000000000000 8.48528137423857132 1.00000000000000000 0.00000000000000000 
1 88.00000000000000000 0.00000000000000000 0.00000000000000000 -1.00000000000000000 
1 62.66666666666667140 44.31202495435697841 -0.57735026918962573 0.81649658092772603 
1 62.66666666666667140 44.31202495435697841 -0.57735026918962573 0.81649658092772603 
1 100.00000000000000000 0.00000000000000000 0.00000000000000000 -1.00000000000000000 
1 0.00000000000000000 0.00000000000000000 0.00000000000000000 -1.00000000000000000 
1 0.00000000000000000 -100.00000000000000000 1.00000000000000000 0.00000000000000000 
1 -50.00000000000000000 50.00000000000000000 0.00000000000000000 -1.00000000000000000 
1 -50.00000000000000000 -50.00000000000000000 1.00000000000000000 0.00000000000000000 
1 0.00000000000000000 -100.00000000000000000 1.00000000000000000 0.00000000000000000 
1 38.00000000000000000 -50.00000000000000000 0.00000000000000000 1.00000000000000000 
1 0.00000000000000000 -8.48528137423857132 1.00000000000000000 0.00000000000000000 
1 88.00000000000000000 0.00000000000000000 0.00000000000000000 -1.00000000000000000 
1 0.00000000000000000 -8.48528137423857132 1.00000000000000000 0.00000000000000000 
1 4.00000000000000000 -2.82842712474619029 0.57735026918962573 0.81649658092772603 
1 4.00000000000000000 -2.82842712474619029 0.57735026918962573 0.81649658092772603 
1 0.00000000000000000 8.48528137423857132 1.00000000000000000 0.00000000000000000 
1 0.00000000000000000 -12.00000000000000000 1.00000000000000000 0.00000000000000000 
1 12.00000000000000000 0.00000000000000000 0.00000000000000000 -1.00000000000000000 
1 0.00000000000000000 8.48528137423857132 1.00000000000000000 0.00000000000000000 
1 0.00000000000000000 -88.00000000000000000 1.00000000000000000 0.00000000000000000 
1 0.00000000000000000 8.48528137423857132 1.00000000000000000 0.00000000000000000 
2 50.00000000000000000 -50.00000000000000000 1.00000000000000000 0.00000000000000000 0.00000000000000000 -1.00000000000000000 37.00000000000000000
1 0.00000000000000000 -16.97056274847713908 1.00000000000000000 0.00000000000000000 
1 20.66666666666667140 20.74179891480538984 0.57735026918962573 0.81649658092772603 
1 79.33333333333334281 20.74179891480540050 -0.57735026918962573 0.81649658092772603 
1 6.28318530717958623 0.00000000000000000 0.00000000000000000 1.00000000000000000 
1 0.00000000000000000 0.00000000000000000 0.00000000000000000 1.00000000000000000 
1 0.00000000000000000 0.00000000000000000 1.00000000000000000 0.00000000000000000 
1 0.00000000000000000 -12.00000000000000000 1.00000000000000000 0.00000000000000000 
1 0.00000000000000000 0.00000000000000000 0.00000000000000000 -1.00000000000000000 
1 6.28318530717958623 0.00000000000000000 0.00000000000000000 -1.00000000000000000 
1 0.00000000000000000 -50.00000000000000000 1.00000000000000000 0.00000000000000000 
2 -0.00000000000000160 -0.00000000000000088 0.00000000000000000 -1.00000000000000000 1.00000000000000000 0.00000000000000000 25.00000000000000000
Curves 25
1 50.00000000000000000 50.00000000000000000 0.00000000000000000 -1.00000000000000000 0.00000000000000000 0.00000000000000000 
1 38.00000000000000000 50.00000000000000000 -50.00000000000000000 0.00000000000000000 0.00000000000000000 1.00000000000000000 
1 -50.00000000000000000 50.00000000000000000 -50.00000000000000000 0.00000000000000000 0.00000000000000000 1.00000000000000000 
1 50.00000000000000000 50.00000000000000000 0.00000000000000000 -1.00000000000000000 0.00000000000000000 0.00000000000000000 
1 -50.00000000000000000 -50.00000000000000000 0.00000000000000000 1.00000000000000000 0.00000000000000000 0.00000000000000000 
1 38.00000000000000000 -50.00000000000000000 -50.00000000000000000 0.00000000000000000 1.00000000000000000 0.00000000000000000 
1 -50.00000000000000000 50.00000000000000000 0.00000000000000000 0.00000000000000000 -1.00000000000000000 0.00000000000000000 
8 -35.79571668975679444 -15.01110699893026634
1 58.66666666666667140 29.33333333333334636 -29.33333333333332860 0.57735026918962573 -0.57735026918962573 0.57735026918962573 
1 50.00000000000000000 38.00000000000000000 -50.00000000000000000 0.00000000000000000 0.00000000000000000 1.00000000000000000 
8 -64.66323014923807477 -43.87862045841155378
1 75.33333333333334281 12.66666666666667318 12.66666666666667318 0.57735026918962573 -0.57735026918962573 -0.57735026918962573 
1 -50.00000000000000000 -50.00000000000000000 -50.00000000000000000 0.00000000000000000 0.00000000000000000 1.00000000000000000 
1 -50.00000000000000000 50.00000000000000000 0.00000000000000000 0.00000000000000000 -1.00000000000000000 0.00000000000000000 
1 -50.00000000000000000 -50.00000000000000000 0.00000000000000000 1.00000000000000000 0.00000000000000000 0.00000000000000000 
1 38.00000000000000000 -50.00000000000000000 50.00000000000000000 0.00000000000000000 1.00000000000000000 0.00000000000000000 
1 38.00000000000000000 -50.00000000000000000 -50.00000000000000000 0.00000000000000000 0.00000000000000000 1.00000000000000000 
8 -6.92820323027550877 13.85640646055101755
1 42.00000000000000000 -46.00000000000000000 -46.00000000000000000 0.57735026918962573 0.57735026918962573 0.57735026918962573 
1 50.00000000000000000 -50.00000000000000000 -38.00000000000000000 0.00000000000000000 1.00000000000000000 0.00000000000000000 
1 50.00000000000000000 -38.00000000000000000 -50.00000000000000000 0.00000000000000000 0.00000000000000000 1.00000000000000000 
1 50.00000000000000000 -50.00000000000000000 38.00000000000000000 0.00000000000000000 1.00000000000000000 0.00000000000000000 
2 50.00000000000000000 0.00000000000000000 0.00000000000000000 1.00000000000000000 0.00000000000000000 0.00000000000000000 -0.00000000000000000 1.00000000000000000 0.00000000000000000 0.00000000000000000 -0.00000000000000000 1.00000000000000000 37.00000000000000000
8 -35.79571668975679444 -15.01110699893026634
1 58.66666666666667140 -29.33333333333332860 29.33333333333334636 0.57735026918962573 0.57735026918962573 -0.57735026918962573 
1 38.00000000000000000 25.00000000000000000 0.00000000000000000 -0.70710678118654757 -0.70710678118654746 0.00000000000000000 
2 38.00000000000000000 0.00000000000000000 0.00000000000000000 1.00000000000000000 0.00000000000000000 0.00000000000000000 -0.00000000000000000 1.00000000000000000 0.00000000000000000 0.00000000000000000 -0.00000000000000000 1.00000000000000000 25.00000000000000000
1 50.00000000000000000 25.00000000000000000 0.00000000000000000 -1.00000000000000000 -0.00000000000000000 -0.00000000000000000 
2 0.00000000000000000 0.00000000000000000 0.00000000000000000 0.00000000000000000 0.00000000000000000 1.00000000000000000 1.00000000000000000 0.00000000000000000 -0.00000000000000000 -0.00000000000000000 1.00000000000000000 0.00000000000000000 25.00000000000000000
Polygon3D 0
PolygonOnTriangulations 0
Surfaces 13
1 50.00000000000000000 50.00000000000000000 -50.00000000000000000 0.00000000000000000 -1.00000000000000000 0.00000000000000000 -1.00000000000000000 0.00000000000000000 0.00000000000000000 -0.00000000000000000 -0.00000000000000000 -1.00000000000000000 
1 0.00000000000000000 0.00000000000000000 0.00000000000000000 0.00000000000000000 0.00000000000000000 1.00000000000000000 1.00000000000000000 0.00000000000000000 -0.00000000000000000 -0.00000000000000000 1.00000000000000000 0.00000000000000000 
1 44.00000000000000000 44.00000000000000000 -50.00000000000000000 0.70710678118654757 0.70710678118654757 0.00000000000000000 0.00000000000000000 -0.00000000000000000 1.00000000000000000 0.70710678118654757 -0.70710678118654757 -0.00000000000000000 
1 -50.00000000000000000 50.00000000000000000 -50.00000000000000000 1.00000000000000000 0.00000000000000000 0.00000000000000000 0.00000000000000000 -1.00000000000000000 0.00000000000000000 0.00000000000000000 0.00000000000000000 -1.00000000000000000 
1 0.00000000000000000 0.00000000000000000 0.00000000000000000 0.00000000000000000 0.00000000000000000 1.00000000000000000 1.00000000000000000 0.00000000000000000 -0.00000000000000000 -0.00000000000000000 1.00000000000000000 0.00000000000000000 
1 -50.00000000000000000 -50.00000000000000000 -50.00000000000000000 0.00000000000000000 1.00000000000000000 0.00000000000000000 1.00000000000000000 0.00000000000000000 0.00000000000000000 0.00000000000000000 0.00000000000000000 -1.00000000000000000 
1 44.00000000000000000 -50.00000000000000000 -44.00000000000000000 0.70710678118654757 0.00000000000000000 -0.70710678118654757 0.00000000000000000 1.00000000000000000 0.00000000000000000 0.70710678118654757 -0.00000000000000000 0.70710678118654757 
1 50.00000000000000000 -50.00000000000000000 -50.00000000000000000 -1.00000000000000000 0.00000000000000000 0.00000000000000000 0.00000000000000000 1.00000000000000000 0.00000000000000000 0.00000000000000000 0.00000000000000000 -1.00000000000000000 
1 44.00000000000000000 -50.00000000000000000 44.00000000000000000 -0.70710678118654757 0.00000000000000000 -0.70710678118654757 0.00000000000000000 1.00000000000000000 0.00000000000000000 0.70710678118654757 0.00000000000000000 -0.70710678118654757 
1 44.00000000000000000 -44.00000000000000000 -50.00000000000000000 0.70710678118654757 -0.70710678118654757 0.00000000000000000 0.00000000000000000 0.00000000000000000 1.00000000000000000 0.70710678118654757 0.70710678118654757 -0.00000000000000000 
3 38.00000000000000000 0.00000000000000000 0.00000000000000000 -1.00000000000000000 0.00000000000000000 0.00000000000000000 0.00000000000000000 1.00000000000000000 0.00000000000000000 -0.00000000000000000 -0.00000000000000000 1.00000000000000000 25.00000000000000000
-0.78539816339744828
2 50.00000000000000000 0.00000000000000000 0.00000000000000000 1.00000000000000000 0.00000000000000000 0.00000000000000000 -0.00000000000000000 1.00000000000000000 0.00000000000000000 0.00000000000000000 -0.00000000000000000 1.00000000000000000 25.00000000000000000
1 49.99999999999999289 -0.00000000000000088 0.00000000000000160 1.00000000000000000 0.00000000000000000 0.00000000000000000 0.00000000000000000 0.00000000000000000 1.00000000000000000 0.00000000000000000 -1.00000000000000000 0.00000000000000000 
Triangulations 0

TShapes 69
Ve
0.000000100000000
38.000000000000000 50.000000000000000 -50.000000000000000
0 0

0101101
*
Ve
0.000000100000000
-50.000000000000000 50.000000000000000 -50.000000000000000
0 0

0101101
*
Ed
 0.000000100000000 1 1 0
1  1 0 12.000000000000000 100.000000000000000
2  1 1 13 12.000000000000000 100.000000000000000
2  2 2 14 12.000000000000000 100.000000000000000
0

0101000
+69 16 -68 16 *
Ve
0.000000100000000
38.000000000000000 50.000000000000000 50.000000000000000
0 0

0101101
*
Ed
 0.000000100000000 1 1 0
1  2 0 -0.000000000000000 100.000000000000000
2  3 1 17 -0.000000000000000 100.000000000000000
2  4 3 0 -0.000000000000000 100.000000000000000
0

0101000
+69 18 -66 18 *
Ve
0.000000100000000
-50.000000000000000 50.000000000000000 50.000000000000000
0 0

0101101
*
Ed
 0.000000100000000 1 1 0
1  3 0 0.000000000000000 100.000000000000000
2  5 1 0 0.000000000000000 100.000000000000000
2  6 4 0 0.000000000000000 100.000000000000000
0

0101000
+68 19 -64 19 *
Ed
 0.000000100000000 1 1 0
1  4 0 12.000000000000000 100.000000000000000
2  7 1 22 12.000000000000000 100.000000000000000
2  8 5 14 12.000000000000000 100.000000000000000
0

0101000
+66 23 -64 23 *
Wi

0101100
-67 12 +65 0 -63 17 +62 21 *
Fa
0  0.000000100000000 1 0

0111000
+61 7 *
Ve
0.000000100000000
38.000000000000000 -50.000000000000000 -50.000000000000000
0 0

0101101
*
Ve
0.000000100000000
-50.000000000000000 -50.000000000000000 -50.000000000000000
0 0

0101101
*
Ed
 0.000000100000000 1 1 0
1  5 0 0.000000000000000 88.000000000000000
2  9 2 14 0.000000000000000 88.000000000000000
2  10 6 13 0.000000000000000 88.000000000000000
0

0101000
-59 16 +58 16 *
Ed
 0.000000100000000 1 1 0
1  6 0 0.000000000000000 100.000000000000000
2  11 2 26 0.000000000000000 100.000000000000000
2  12 7 0 0.000000000000000 100.000000000000000
0

0101000
+59 18 -69 18 *
Ed
 0.000000100000000 1 1 0
1  7 0 0.000000000000000 100.000000000000000
2  13 2 14 0.000000000000000 100.000000000000000
2  14 4 13 0.000000000000000 100.000000000000000
0

0101000
+68 16 -58 16 *
Wi

0101100
+57 12 +56 0 +55 12 +67 12 *
Fa
0  0.000000100000000 2 0

0111000
+54 25 *
Ve
0.000000100000000
50.000000000000000 38.000000000000000 -38.000000000000000
0 0

0101101
*
Ed
 0.000000100000000 1 1 0
1  8 0 -35.795716689756794 -15.011106998930266
2  15 3 0 -35.795716689756794 -15.011106998930266
2  16 7 0 -35.795716689756794 -15.011106998930266
0

0101000
+69 18 -52 18 *
Ve
0.000000100000000
50.000000000000000 38.000000000000000 38.000000000000000
0 0

0101101
*
Ed
 0.000000100000000 1 1 0
1  9 0 12.000000000000000 88.000000000000000
2  17 3 0 12.000000000000000 88.000000000000000
2  18 8 17 12.000000000000000 88.000000000000000
0

0101000
+52 18 -50 18 *
Ed
 0.000000100000000 1 1 0
1  10 0 -64.663230149238075 -43.878620458411554
2  19 3 0 -64.663230149238075 -43.878620458411554
2  20 9 0 -64.663230149238075 -43.878620458411554
0

0101000
+66 18 -50 18 *
Wi

0101100
-51 0 +65 0 -49 0 +48 0 *
Fa
0  0.000000100000000 3 0

0111000
+47 0 *
Ve
0.000000100000000
-50.000000000000000 -50.000000000000000 50.000000000000000
0 0

0101101
*
Ed
 0.000000100000000 1 1 0
1  11 0 0.000000000000000 100.000000000000000
2  21 4 0 0.000000000000000 100.000000000000000
2  22 6 0 0.000000000000000 100.000000000000000
0

0101000
+58 19 -45 19 *
Ed
 0.000000100000000 1 1 0
1  12 0 0.000000000000000 100.000000000000000
2  23 4 22 0.000000000000000 100.000000000000000
2  24 5 14 0.000000000000000 100.000000000000000
0

0101000
+64 23 -45 23 *
Wi

0101100
+63 0 -44 0 -55 27 +43 28 *
Fa
0  0.000000100000000 4 0

0111000
+42 0 *
Ve
0.000000100000000
38.000000000000000 -50.000000000000000 50.000000000000000
0 0

0101101
*
Ed
 0.000000100000000 1 1 0
1  13 0 0.000000000000000 88.000000000000000
2  25 5 14 0.000000000000000 88.000000000000000
2  26 6 22 0.000000000000000 88.000000000000000
0

0101000
-40 23 +45 23 *
Ed
 0.000000100000000 1 1 0
1  14 0 0.000000000000000 100.000000000000000
2  27 5 31 0.000000000000000 100.000000000000000
2  28 9 0 0.000000000000000 100.000000000000000
0

0101000
+40 18 -66 18 *
Wi

0101100
+39 21 +38 0 +43 21 +62 21 *
Fa
0  0.000000100000000 5 0

0111000
+37 30 *
Ed
 0.000000100000000 1 1 0
1  15 0 -0.000000000000000 100.000000000000000
2  29 6 17 -0.000000000000000 100.000000000000000
2  30 10 0 -0.000000000000000 100.000000000000000
0

0101000
+59 18 -40 18 *
Wi

0101100
-57 12 -35 0 +44 17 +39 21 *
Fa
0  0.000000100000000 6 0

0111000
+34 7 *
Ve
0.000000100000000
50.000000000000000 -38.000000000000000 -38.000000000000000
0 0

0101101
*
Ed
 0.000000100000000 1 1 0
1  16 0 -6.928203230275509 13.856406460551018
2  31 7 0 -6.928203230275509 13.856406460551018
2  32 10 0 -6.928203230275509 13.856406460551018
0

0101000
+59 18 -32 18 *
Ed
 0.000000100000000 1 1 0
1  17 0 12.000000000000000 88.000000000000000
2  33 7 0 12.000000000000000 88.000000000000000
2  34 8 17 12.000000000000000 88.000000000000000
0

0101000
+32 18 -52 18 *
Wi

0101100
-31 0 +56 0 -30 0 +51 0 *
Fa
0  0.000000100000000 7 0

0111000
+29 0 *
Ve
0.000000100000000
50.000000000000000 -38.000000000000000 38.000000000000000
0 0

0101101
*
Ed
 0.000000100000000 1 1 0
1  18 0 12.000000000000000 88.000000000000000
2  35 8 17 12.000000000000000 88.000000000000000
2  36 10 0 12.000000000000000 88.000000000000000
0

0101000
+32 18 -27 18 *
Ed
 0.000000100000000 1 1 0
1  19 0 12.000000000000000 88.000000000000000
2  37 8 17 12.000000000000000 88.000000000000000
2  38 9 0 12.000000000000000 88.000000000000000
0

0101000
+27 18 -50 18 *
Wi

0101100
+26 0 -30 0 +25 0 -49 0 *
Ve
0.000000100000000
50.000000000000000 37.000000000000000 0.000000000000000
0 0

0101101
*
Ed
 0.000000100000000 1 1 0
1  20 0 0.000000000000000 6.283185307179586
2  39 8 17 0.000000000000000 6.283185307179586
2  40 11 0 0.000000000000000 6.283185307179586
0

0101000
+23 18 -23 18 *
Wi

0101100
+22 0 *
Fa
0  0.000000100000000 8 33

0111000
+24 34 +21 34 *
Ed
 0.000000100000000 1 1 0
1  21 0 -35.795716689756794 -15.011106998930266
2  41 9 0 -35.795716689756794 -15.011106998930266
2  42 10 0 -35.795716689756794 -15.011106998930266
0

0101000
+40 18 -27 18 *
Wi

0101100
-19 0 +38 0 -25 0 +48 0 *
Fa
0  0.000000100000000 9 0

0111000
+18 0 *
Wi

0101100
-31 0 +35 0 -26 0 +19 0 *
Fa
0  0.000000100000000 10 0

0111000
+16 0 *
Ve
0.000000100000000
38.000000000000000 25.000000000000000 0.000000000000000
0 0

0101101
*
Ed
 0.000000100000000 1 1 0
1  22 0 -16.970562748477139 0.000000000000000
3  43 44CN 11 0 -16.970562748477139 0.000000000000000
0

0101000
+23 18 -14 18 *
Ed
 0.000000100000000 1 1 0
1  23 0 0.000000000000000 6.283185307179586
2  45 11 0 0.000000000000000 6.283185307179586
2  46 12 4 0.000000000000000 6.283185307179586
0

0101000
+14 18 -14 18 *
Wi

0101100
-13 0 +22 0 -12 0 +13 0 *
Fa
0  0.000000100000000 11 0

0111000
+11 0 *
Ve
0.000000100000000
0.000000000000000 25.000000000000000 0.000000000000000
0 0

0101101
*
Ed
 0.000000100000000 1 1 0
1  24 0 12.000000000000000 50.000000000000000
3  47 48CN 12 0 12.000000000000000 50.000000000000000
0

0101000
+14 35 -9 35 *
Ed
 0.000000100000000 1 1 0
1  25 0 0.000000000000000 6.283185307179586
2  49 12 40 0.000000000000000 6.283185307179586
2  50 13 41 0.000000000000000 6.283185307179586
0

0101100
+9 42 -9 42 *
Wi

0101100
+8 4 -12 0 +7 39 -8 4 *
Fa
0  0.000000100000000 12 0

0111000
+6 34 *
Wi

0101100
+7 0 *
Fa
0  0.000000100000000 13 0

0111000
+4 44 *
Sh

0101000
-60 6 -53 24 +46 5 -41 6 +36 29 -33 6 +28 5 -20 32 -17 5 -15 5 
+10 5 -5 32 +3 43 *
So

1100000
+2 0 *

+1 1 