
CASCADE Topology V1, (c) Matra-Datavision
Locations 71
1
1.000000000000000 0.000000000000000 0.000000000000000 0.000000000000000 
0.000000000000000 1.000000000000000 0.000000000000000 0.000000000000000 
0.000000000000000 0.000000000000000 1.000000000000000 -2800.000000000000000 
1
1.000000000000000 0.000000000000000 0.000000000000000 0.000000000000000 
0.000000000000000 1.000000000000000 0.000000000000000 0.000000000000000 
0.000000000000000 0.000000000000000 1.000000000000000 0.000000000000000 
1
1.000000000000000 0.000000000000000 0.000000000000000 0.000000000000000 
0.000000000000000 1.000000000000000 0.000000000000000 0.000000000000000 
0.000000000000000 0.000000000000000 1.000000000000000 0.000000000000000 
1
1.000000000000000 0.000000000000000 0.000000000000000 0.000000000000000 
0.000000000000000 1.000000000000000 0.000000000000000 0.000000000000000 
0.000000000000000 0.000000000000000 1.000000000000000 0.000000000000000 
1
1.000000000000000 0.000000000000000 0.000000000000000 0.000000000000000 
0.000000000000000 1.000000000000000 0.000000000000000 0.000000000000000 
0.000000000000000 0.000000000000000 1.000000000000000 0.000000000000000 
1
1.000000000000000 0.000000000000000 0.000000000000000 0.000000000000000 
0.000000000000000 1.000000000000000 0.000000000000000 0.000000000000000 
0.000000000000000 0.000000000000000 1.000000000000000 0.000000000000000 
1
1.000000000000000 0.000000000000000 0.000000000000000 0.000000000000000 
0.000000000000000 1.000000000000000 0.000000000000000 0.000000000000000 
0.000000000000000 0.000000000000000 1.000000000000000 0.000000000000000 
1
1.000000000000000 0.000000000000000 0.000000000000000 0.000000000000000 
0.000000000000000 1.000000000000000 0.000000000000000 0.000000000000000 
0.000000000000000 0.000000000000000 1.000000000000000 0.000000000000000 
1
1.000000000000000 0.000000000000000 0.000000000000000 0.000000000000000 
0.000000000000000 1.000000000000000 0.000000000000000 0.000000000000000 
0.000000000000000 0.000000000000000 1.000000000000000 0.000000000000000 
2  2 1 3 -1 4 1 5 1 6 -1 7 1 8 1 9 1 0
1
1.000000000000000 0.000000000000000 0.000000000000000 0.000000000000000 
0.000000000000000 1.000000000000000 0.000000000000000 0.000000000000000 
0.000000000000000 0.000000000000000 1.000000000000000 0.000000000000000 
1
1.000000000000000 0.000000000000000 0.000000000000000 -0.000000000000000 
0.000000000000000 1.000000000000000 0.000000000000000 -0.000000000000000 
0.000000000000000 0.000000000000000 1.000000000000000 -250.000000000000000 
1
1.000000000000000 0.000000000000000 0.000000000000000 0.000000000000000 
0.000000000000000 1.000000000000000 0.000000000000000 0.000000000000000 
0.000000000000000 0.000000000000000 1.000000000000000 0.000000000000000 
1
1.000000000000000 0.000000000000000 0.000000000000000 0.000000000000000 
0.000000000000000 1.000000000000000 0.000000000000000 0.000000000000000 
0.000000000000000 0.000000000000000 1.000000000000000 0.000000000000000 
2  11 -1 12 1 13 1 14 -1 0
2  8 -1 7 -1 6 1 5 -1 4 -1 3 1 2 -1 0
2  11 -1 12 1 13 1 14 -1 2 1 3 -1 4 1 5 1 6 -1 7 1 8 1 0
1
1.000000000000000 0.000000000000000 0.000000000000000 0.000000000000000 
0.000000000000000 1.000000000000000 0.000000000000000 0.000000000000000 
0.000000000000000 0.000000000000000 1.000000000000000 0.000000000000000 
2  18 -1 0
1
1.000000000000000 0.000000000000000 0.000000000000000 0.000000000000000 
0.000000000000000 1.000000000000000 0.000000000000000 0.000000000000000 
0.000000000000000 0.000000000000000 1.000000000000000 0.000000000000000 
1
1.000000000000000 0.000000000000000 0.000000000000000 0.000000000000000 
0.000000000000000 -1.000000000000000 0.000000000000000 0.000000000000000 
0.000000000000000 0.000000000000000 -1.000000000000000 -250.000000000000000 
2  20 1 21 1 14 -1 0
2  11 -1 12 1 13 1 21 -1 20 -1 0
2  14 1 21 -1 20 -1 0
2  18 -1 8 -1 7 -1 6 1 5 -1 4 -1 3 1 2 -1 14 1 21 -1 20 -1 0
2  13 1 14 -1 2 1 3 -1 4 1 5 1 6 -1 7 1 8 1 0
2  4 1 5 1 6 -1 7 1 8 1 9 1 0
2  2 1 3 -1 0
2  4 -1 0
2  2 1 3 -1 4 1 0
2  18 -1 8 -1 7 -1 6 1 5 -1 4 -1 3 1 2 -1 0
2  18 -1 8 -1 7 -1 6 1 5 -1 0
2  20 1 21 1 14 -1 2 1 3 -1 4 1 0
2  13 1 14 -1 2 1 3 -1 4 1 5 1 6 -1 7 1 8 1 9 1 0
2  8 -1 7 -1 6 1 5 -1 4 -1 3 1 2 -1 14 1 13 -1 0
2  18 -1 8 -1 7 -1 6 1 5 -1 4 -1 3 1 2 -1 14 1 13 -1 0
2  5 1 6 -1 7 1 8 1 9 1 0
2  3 -1 4 1 0
1
1.000000000000000 0.000000000000000 0.000000000000000 0.000000000000000 
0.000000000000000 1.000000000000000 0.000000000000000 0.000000000000000 
0.000000000000000 0.000000000000000 1.000000000000000 500.000000000000000 
2  11 -1 12 1 39 1 13 1 14 -1 2 1 3 -1 4 1 5 1 6 -1 7 1 8 1 0
2  3 -1 0
1
1.000000000000000 0.000000000000000 0.000000000000000 0.000000000000000 
0.000000000000000 1.000000000000000 0.000000000000000 0.000000000000000 
0.000000000000000 0.000000000000000 1.000000000000000 0.000000000000000 
1
1.000000000000000 0.000000000000000 0.000000000000000 0.000000000000000 
0.000000000000000 -1.000000000000000 0.000000000000000 0.000000000000000 
0.000000000000000 0.000000000000000 -1.000000000000000 -750.000000000000000 
2  42 1 43 1 3 -1 0
2  43 -1 42 -1 0
2  3 1 43 -1 42 -1 0
2  18 -1 8 -1 7 -1 6 1 5 -1 4 -1 3 1 43 -1 42 -1 0
2  11 -1 12 1 39 1 13 1 14 -1 2 1 3 -1 4 1 5 1 6 -1 7 1 8 1 9 1 0
2  8 -1 7 -1 6 1 5 -1 4 -1 3 1 2 -1 14 1 13 -1 39 -1 12 -1 11 1 0
2  18 -1 8 -1 7 -1 6 1 5 -1 4 -1 0
1
1.000000000000000 0.000000000000000 0.000000000000000 0.000000000000000 
0.000000000000000 1.000000000000000 0.000000000000000 0.000000000000000 
0.000000000000000 0.000000000000000 1.000000000000000 -10.000000000000000 
2  42 1 43 1 3 -1 51 1 0
2  51 -1 3 1 43 -1 42 -1 0
2  18 -1 8 -1 7 -1 6 1 5 -1 4 -1 51 -1 3 1 43 -1 42 -1 0
2  7 1 8 1 9 1 0
2  3 -1 51 1 4 1 5 1 6 -1 0
2  7 -1 0
2  3 -1 51 1 4 1 5 1 6 -1 7 1 0
2  18 -1 8 -1 0
2  42 1 43 1 3 -1 51 1 4 1 5 1 6 -1 0
2  8 1 9 1 0
2  18 -1 8 -1 7 -1 0
1
1.000000000000000 0.000000000000000 0.000000000000000 0.000000000000000 
0.000000000000000 1.000000000000000 0.000000000000000 0.000000000000000 
0.000000000000000 0.000000000000000 1.000000000000000 0.000000000000000 
1
1.000000000000000 0.000000000000000 0.000000000000000 0.000000000000000 
0.000000000000000 -1.000000000000000 0.000000000000000 0.000000000000000 
0.000000000000000 0.000000000000000 -1.000000000000000 -760.000000000000114 
1
1.000000000000000 0.000000000000000 0.000000000000000 0.000000000000000 
0.000000000000000 1.000000000000000 0.000000000000000 0.000000000000000 
0.000000000000000 0.000000000000000 1.000000000000000 500.000000000000000 
2  63 1 64 1 6 -1 65 1 7 1 0
2  65 -1 6 1 64 -1 63 -1 0
2  64 -1 63 -1 0
2  18 -1 8 -1 7 -1 65 -1 6 1 64 -1 63 -1 0
2  6 -1 65 1 7 1 8 1 9 1 0
2  63 1 64 1 0
Curve2ds 40
2 0.00000000000001400 -0.00000000000002568 1.00000000000000000 0.00000000000000000 -0.00000000000000000 1.00000000000000000 300.00000000000000000
1 0.00000000000000000 -141.42135623730951011 1.00000000000000000 0.00000000000000000 
2 0.00000000000001400 -0.00000000000002568 1.00000000000000000 0.00000000000000000 0.00000000000000000 -1.00000000000000000 125.00000000000000000
1 0.00000000000000000 0.00000000000000000 1.00000000000000000 0.00000000000000000 
1 6.28318530717958623 0.00000000000000000 0.00000000000000000 1.00000000000000000 
1 0.00000000000000000 0.00000000000000000 0.00000000000000000 1.00000000000000000 
1 0.00000000000000000 0.00000000000000000 1.00000000000000000 0.00000000000000000 
1 0.00000000000000000 -100.00000000000000000 1.00000000000000000 0.00000000000000000 
1 0.00000000000000000 0.00000000000000000 0.00000000000000000 -1.00000000000000000 
1 6.28318530717958623 0.00000000000000000 0.00000000000000000 -1.00000000000000000 
1 0.00000000000000000 -1.00000000000000000 1.00000000000000000 0.00000000000000000 
1 0.00000000000000000 0.00000000000000000 1.00000000000000000 0.00000000000000000 
1 0.00000000000000000 0.00000000000000000 0.00000000000000000 -1.00000000000000000 
1 6.28318530717958623 0.00000000000000000 0.00000000000000000 -1.00000000000000000 
1 0.00000000000000000 -400.00000000000000000 1.00000000000000000 0.00000000000000000 
1 0.00000000000000000 0.00000000000000000 1.00000000000000000 0.00000000000000000 
1 6.28318530717958623 0.00000000000000000 0.00000000000000000 1.00000000000000000 
1 0.00000000000000000 0.00000000000000000 0.00000000000000000 1.00000000000000000 
1 0.00000000000000000 557.67553290421483325 1.00000000000000000 0.00000000000000000 
2 0.00000000000001494 -0.00000000000000037 1.00000000000000000 0.00000000000000000 0.00000000000000000 -1.00000000000000000 374.00000000000000000
1 6.28318530717958623 0.00000000000000000 0.00000000000000000 1.00000000000000000 
1 0.00000000000000000 0.00000000000000000 0.00000000000000000 1.00000000000000000 
1 0.00000000000000000 141.42135623730951011 1.00000000000000000 0.00000000000000000 
2 0.00000000000001400 -0.00000000000002568 1.00000000000000000 0.00000000000000000 -0.00000000000000000 1.00000000000000000 300.00000000000000000
2 0.00000000000001494 -0.00000000000000037 1.00000000000000000 0.00000000000000000 0.00000000000000000 -1.00000000000000000 375.00000000000000000
1 0.00000000000000000 0.00000000000000000 1.00000000000000000 0.00000000000000000 
1 0.00000000000000000 0.00000000000000000 0.00000000000000000 -1.00000000000000000 
1 6.28318530717958623 0.00000000000000000 0.00000000000000000 -1.00000000000000000 
1 0.00000000000000000 -10.00000000000000000 1.00000000000000000 0.00000000000000000 
2 0.00000000000001494 -0.00000000000000037 1.00000000000000000 0.00000000000000000 0.00000000000000000 -1.00000000000000000 375.00000000000000000
2 0.00000000000001494 -0.00000000000000037 1.00000000000000000 0.00000000000000000 0.00000000000000000 -1.00000000000000000 368.00000000000000000
1 0.00000000000000000 -566.41415942753405943 1.00000000000000000 0.00000000000000000 
1 6.28318530717958623 0.00000000000000000 0.00000000000000000 1.00000000000000000 
1 0.00000000000000000 0.00000000000000000 0.00000000000000000 1.00000000000000000 
1 0.00000000000000000 0.00000000000000000 1.00000000000000000 0.00000000000000000 
1 0.00000000000000000 -499.00000000000000000 1.00000000000000000 0.00000000000000000 
1 0.00000000000000000 0.00000000000000000 0.00000000000000000 -1.00000000000000000 
1 6.28318530717958623 0.00000000000000000 0.00000000000000000 -1.00000000000000000 
1 0.00000000000000000 -500.00000000000000000 1.00000000000000000 0.00000000000000000 
2 0.00000000000000350 0.00000000000000642 1.00000000000000000 0.00000000000000000 0.00000000000000000 -1.00000000000000000 100.00000000000000000
Curves 20
2 0.00000000000000000 0.00000000000000000 -250.00000000000000000 0.00000000000000000 0.00000000000000000 1.00000000000000000 1.00000000000000000 0.00000000000000000 0.00000000000000000 0.00000000000000000 1.00000000000000000 0.00000000000000000 300.00000000000000000
2 0.00000000000000000 0.00000000000000000 0.00000000000000000 0.00000000000000000 0.00000000000000000 1.00000000000000000 1.00000000000000000 0.00000000000000000 0.00000000000000000 0.00000000000000000 1.00000000000000000 0.00000000000000000 125.00000000000000000
1 400.00000000000000000 0.00000000000000000 -150.00000000000000000 0.70710678118654757 0.00000000000000000 0.70710678118654746 
2 0.00000000000000000 0.00000000000000000 -150.00000000000000000 0.00000000000000000 0.00000000000000000 1.00000000000000000 1.00000000000000000 0.00000000000000000 0.00000000000000000 0.00000000000000000 1.00000000000000000 0.00000000000000000 400.00000000000000000
1 125.00000000000000000 0.00000000000000000 -250.00000000000000000 0.00000000000000000 0.00000000000000000 -1.00000000000000000 
2 0.00000000000000000 0.00000000000000000 -251.00000000000011369 0.00000000000000000 0.00000000000000000 -1.00000000000000000 1.00000000000000000 0.00000000000000000 0.00000000000000000 0.00000000000000000 -1.00000000000000000 0.00000000000000000 125.00000000000000000
1 400.00000000000000000 0.00000000000000000 -250.00000000000000000 0.00000000000000000 0.00000000000000000 1.00000000000000000 
2 0.00000000000000000 0.00000000000000000 150.00000000000000000 0.00000000000000000 0.00000000000000000 1.00000000000000000 1.00000000000000000 0.00000000000000000 0.00000000000000000 0.00000000000000000 1.00000000000000000 0.00000000000000000 400.00000000000000000
1 125.00000000000000000 0.00000000000000000 -251.00000000000011369 0.44649618874846303 0.00000000000000000 -0.89478553488145796 
2 0.00000000000000000 0.00000000000000000 -750.00000000000011369 0.00000000000000000 0.00000000000000000 -1.00000000000000000 1.00000000000000000 0.00000000000000000 0.00000000000000000 0.00000000000000000 -1.00000000000000000 0.00000000000000000 374.00000000000000000
1 400.00000000000000000 0.00000000000000000 150.00000000000000000 -0.70710678118654757 0.00000000000000000 0.70710678118654746 
2 0.00000000000000000 0.00000000000000000 250.00000000000000000 0.00000000000000000 0.00000000000000000 1.00000000000000000 1.00000000000000000 0.00000000000000000 0.00000000000000000 0.00000000000000000 1.00000000000000000 0.00000000000000000 300.00000000000000000
2 0.00000000000000000 0.00000000000000000 0.00000000000000000 0.00000000000000000 0.00000000000000000 1.00000000000000000 1.00000000000000000 0.00000000000000000 0.00000000000000000 0.00000000000000000 1.00000000000000000 0.00000000000000000 375.00000000000000000
1 375.00000000000000000 0.00000000000000000 -750.00000000000000000 0.00000000000000000 0.00000000000000000 -1.00000000000000000 
2 0.00000000000000000 0.00000000000000000 0.00000000000000000 0.00000000000000000 0.00000000000000000 1.00000000000000000 1.00000000000000000 0.00000000000000000 0.00000000000000000 0.00000000000000000 1.00000000000000000 0.00000000000000000 375.00000000000000000
2 0.00000000000000000 0.00000000000000000 -760.00000000000011369 0.00000000000000000 0.00000000000000000 -1.00000000000000000 1.00000000000000000 0.00000000000000000 0.00000000000000000 0.00000000000000000 -1.00000000000000000 0.00000000000000000 368.00000000000000000
1 100.00000000000000000 0.00000000000000000 -261.00000000000011369 -0.47315201348579183 0.00000000000000000 0.88098080122914213 
2 0.00000000000000000 0.00000000000000000 -261.00000000000011369 0.00000000000000000 0.00000000000000000 -1.00000000000000000 1.00000000000000000 0.00000000000000000 0.00000000000000000 0.00000000000000000 -1.00000000000000000 0.00000000000000000 100.00000000000000000
1 100.00000000000000000 0.00000000000000000 -760.00000000000011369 0.00000000000000000 0.00000000000000000 1.00000000000000000 
2 0.00000000000000000 0.00000000000000000 0.00000000000000000 0.00000000000000000 0.00000000000000000 1.00000000000000000 1.00000000000000000 0.00000000000000000 0.00000000000000000 0.00000000000000000 1.00000000000000000 0.00000000000000000 100.00000000000000000
Polygon3D 0
PolygonOnTriangulations 0
Surfaces 13
1 -0.00000000000001400 0.00000000000002568 0.00000000000000000 0.00000000000000000 0.00000000000000000 1.00000000000000000 1.00000000000000000 0.00000000000000000 0.00000000000000000 0.00000000000000000 1.00000000000000000 0.00000000000000000 
3 0.00000000000000000 0.00000000000000000 -150.00000000000000000 0.00000000000000000 0.00000000000000000 1.00000000000000000 1.00000000000000000 0.00000000000000000 0.00000000000000000 0.00000000000000000 1.00000000000000000 0.00000000000000000 400.00000000000000000
0.78539816339744839
2 0.00000000000000000 0.00000000000000000 -250.00000000000000000 0.00000000000000000 0.00000000000000000 1.00000000000000000 1.00000000000000000 0.00000000000000000 0.00000000000000000 0.00000000000000000 -1.00000000000000000 0.00000000000000000 125.00000000000000000
2 0.00000000000000000 0.00000000000000000 -250.00000000000000000 -0.00000000000000000 -0.00000000000000000 -1.00000000000000000 1.00000000000000000 0.00000000000000000 0.00000000000000000 0.00000000000000000 1.00000000000000000 0.00000000000000000 400.00000000000000000
3 0.00000000000000000 0.00000000000000000 -251.00000000000011369 -0.00000000000000000 -0.00000000000000000 -1.00000000000000000 1.00000000000000000 0.00000000000000000 0.00000000000000000 0.00000000000000000 -1.00000000000000000 0.00000000000000000 125.00000000000000000
0.46284568455362163
3 0.00000000000000000 0.00000000000000000 150.00000000000000000 0.00000000000000000 0.00000000000000000 1.00000000000000000 1.00000000000000000 0.00000000000000000 0.00000000000000000 0.00000000000000000 1.00000000000000000 0.00000000000000000 400.00000000000000000
-0.78539816339744839
1 -0.00000000000001494 0.00000000000000037 -750.00000000000011369 0.00000000000000000 0.00000000000000000 1.00000000000000000 1.00000000000000000 0.00000000000000000 0.00000000000000000 0.00000000000000000 1.00000000000000000 0.00000000000000000 
1 -0.00000000000001400 0.00000000000002568 0.00000000000000000 0.00000000000000000 0.00000000000000000 1.00000000000000000 1.00000000000000000 0.00000000000000000 0.00000000000000000 0.00000000000000000 1.00000000000000000 0.00000000000000000 
2 0.00000000000000000 0.00000000000000000 -750.00000000000000000 0.00000000000000000 0.00000000000000000 1.00000000000000000 1.00000000000000000 0.00000000000000000 0.00000000000000000 0.00000000000000000 -1.00000000000000000 0.00000000000000000 375.00000000000000000
1 -0.00000000000001494 0.00000000000000037 -750.00000000000011369 0.00000000000000000 0.00000000000000000 1.00000000000000000 1.00000000000000000 0.00000000000000000 0.00000000000000000 0.00000000000000000 1.00000000000000000 0.00000000000000000 
3 0.00000000000000000 0.00000000000000000 -261.00000000000011369 0.00000000000000000 0.00000000000000000 1.00000000000000000 1.00000000000000000 0.00000000000000000 0.00000000000000000 0.00000000000000000 -1.00000000000000000 0.00000000000000000 100.00000000000000000
-0.49286520049609872
2 0.00000000000000000 0.00000000000000000 -760.00000000000011369 0.00000000000000000 0.00000000000000000 -1.00000000000000000 1.00000000000000000 0.00000000000000000 0.00000000000000000 0.00000000000000000 -1.00000000000000000 0.00000000000000000 100.00000000000000000
1 -0.00000000000000350 -0.00000000000000642 -760.00000000000011369 0.00000000000000000 0.00000000000000000 1.00000000000000000 1.00000000000000000 0.00000000000000000 0.00000000000000000 0.00000000000000000 1.00000000000000000 0.00000000000000000 
Triangulations 0

TShapes 63
Ve
0.000000100000000
300.000000000000000 0.000000000000000 -250.000000000000000
0 0

0101101
*
Ed
 0.000000100000000 1 1 0
1  1 0 0.000000000000000 6.283185307179586
2  1 1 17 0.000000000000000 6.283185307179586
2  2 2 0 0.000000000000000 6.283185307179586
0

0101000
+63 19 -63 19 *
Wi

0101100
+62 0 *
Ve
0.000000100000000
125.000000000000000 0.000000000000000 -250.000000000000000
0 0

0101101
*
Ed
 0.000000100000000 1 1 0
1  2 0 0.000000000000000 6.283185307179586
2  3 1 23 0.000000000000000 6.283185307179586
2  4 3 24 0.000000000000000 6.283185307179586
0

0101000
+60 25 -60 25 *
Wi

0101100
+59 22 *
Fa
0  0.000000100000000 1 15

0111000
+61 16 +58 0 *
Ve
0.000000100000000
400.000000000000000 0.000000000000000 -150.000000000000000
0 0

0101101
*
Ed
 0.000000100000000 1 1 0
1  3 0 -141.421356237309510 0.000000000000000
3  5 6CN 2 0 -141.421356237309510 0.000000000000000
0

0101000
+63 19 -56 19 *
Ed
 0.000000100000000 1 1 0
1  4 0 0.000000000000000 6.283185307179586
2  7 2 0 0.000000000000000 6.283185307179586
2  8 4 26 0.000000000000000 6.283185307179586
0

0101000
+56 19 -56 19 *
Wi

0101100
-55 0 +62 0 -54 0 +55 0 *
Fa
0  0.000000100000000 2 0

0111000
+53 0 *
Ve
0.000000100000000
125.000000000000000 0.000000000000000 -251.000000000000114
0 0

0101101
*
Ed
 0.000000100000000 1 1 0
1  5 0 0.000000000000000 1.000000000000000
3  9 10CN 3 0 0.000000000000000 1.000000000000000
0

0101000
-51 31 +60 31 *
Ed
 0.000000100000000 1 1 0
1  6 0 0.000000000000000 6.283185307179586
2  11 3 30 0.000000000000000 6.283185307179586
2  12 5 0 0.000000000000000 6.283185307179586
0

0101000
+51 32 -51 32 *
Wi

0101100
+50 30 +49 0 -59 33 -50 30 *
Fa
0  0.000000100000000 3 28

0111000
+48 29 *
Ve
0.000000100000000
400.000000000000000 0.000000000000000 150.000000000000000
0 0

0101101
*
Ed
 0.000000100000000 1 1 0
1  7 0 100.000000000000000 400.000000000000000
3  13 14CN 4 0 100.000000000000000 400.000000000000000
0

0101000
+56 36 -46 36 *
Ed
 0.000000100000000 1 1 0
1  8 0 0.000000000000000 6.283185307179586
2  15 4 26 0.000000000000000 6.283185307179586
2  16 6 0 0.000000000000000 6.283185307179586
0

0101000
+46 19 -46 19 *
Wi

0101100
+45 26 -54 0 +44 0 -45 26 *
Fa
0  0.000000100000000 4 0

0111000
+43 35 *
Ve
0.000000100000000
374.000000000000000 0.000000000000000 -750.000000000000114
0 0

0101101
*
Ed
 0.000000100000000 1 1 0
1  9 0 0.000000000000000 557.675532904214833
3  17 18CN 5 0 0.000000000000000 557.675532904214833
0

0101000
+51 32 -41 32 *
Ed
 0.000000100000000 1 1 0
1  10 0 0.000000000000000 6.283185307179586
2  19 5 0 0.000000000000000 6.283185307179586
2  20 7 38 0.000000000000000 6.283185307179586
0

0101000
+41 32 -41 32 *
Wi

0101100
-40 0 +49 0 -39 0 +40 0 *
Fa
0  0.000000100000000 5 0

0111000
+38 0 *
Ve
0.000000100000000
300.000000000000000 0.000000000000000 250.000000000000000
0 0

0101101
*
Ed
 0.000000100000000 1 1 0
1  11 0 0.000000000000000 141.421356237309510
3  21 22CN 6 0 0.000000000000000 141.421356237309510
0

0101000
+46 19 -36 19 *
Ed
 0.000000100000000 1 1 0
1  12 0 0.000000000000000 6.283185307179586
2  23 6 0 0.000000000000000 6.283185307179586
2  24 8 40 0.000000000000000 6.283185307179586
0

0101000
+36 19 -36 19 *
Wi

0101100
-35 0 +44 0 -34 0 +35 0 *
Fa
0  0.000000100000000 6 0

0111000
+33 0 *
Wi

0101100
+39 0 *
Ve
0.000000100000000
375.000000000000000 0.000000000000000 -750.000000000000000
0 0

0101101
*
Ed
 0.000000100000000 1 1 0
1  13 0 0.000000000000000 6.283185307179586
2  25 7 45 0.000000000000000 6.283185307179586
2  26 9 46 0.000000000000000 6.283185307179586
0

0101100
+30 47 -30 47 *
Wi

0101100
-29 44 *
Fa
0  0.000000100000000 7 41

0111000
+31 29 +28 0 *
Wi

0101100
+34 0 *
Fa
0  0.000000100000000 8 0

0111000
+26 49 *
Ve
0.000000100000000
375.000000000000000 0.000000000000000 -760.000000000000000
0 0

0101101
*
Ed
 0.000000100000000 1 1 0
1  14 0 0.000000000000000 10.000000000000000
3  27 28CN 9 0 0.000000000000000 10.000000000000000
0

0101000
+30 50 -24 50 *
Ed
 0.000000100000000 1 1 0
1  15 0 0.000000000000000 6.283185307179586
2  29 9 53 0.000000000000000 6.283185307179586
2  30 10 45 0.000000000000000 6.283185307179586
0

0101100
+24 54 -24 54 *
Wi

0101100
+23 0 -23 0 -29 44 +22 52 *
Fa
0  0.000000100000000 9 0

0111000
+21 0 *
Ve
0.000000100000000
368.000000000000000 0.000000000000000 -760.000000000000000
0 0

0101101
*
Ed
 0.000000100000000 1 1 0
1  16 0 0.000000000000000 6.283185307179586
2  31 10 58 0.000000000000000 6.283185307179586
2  32 11 0 0.000000000000000 6.283185307179586
0

0101000
+19 59 -19 59 *
Wi

0101100
+18 0 *
Wi

0101100
-22 60 *
Fa
0  0.000000100000000 10 56

0111000
+17 57 +16 0 *
Ve
0.000000100000000
100.000000000000000 0.000000000000000 -261.000000000000114
0 0

0101101
*
Ed
 0.000000100000000 1 1 0
1  17 0 -566.414159427534059 0.000000000000000
3  33 34CN 11 0 -566.414159427534059 0.000000000000000
0

0101000
+19 59 -14 59 *
Ed
 0.000000100000000 1 1 0
1  18 0 0.000000000000000 6.283185307179586
2  35 11 0 0.000000000000000 6.283185307179586
2  36 12 7 0.000000000000000 6.283185307179586
0

0101000
+14 59 -14 59 *
Wi

0101100
-13 0 +18 0 -12 0 +13 0 *
Fa
0  0.000000100000000 11 0

0111000
+11 0 *
Ve
0.000000100000000
100.000000000000000 0.000000000000000 -260.000000000000114
0 0

0101101
*
Ed
 0.000000100000000 1 1 0
1  19 0 499.000000000000000 500.000000000000000
3  37 38CN 12 0 499.000000000000000 500.000000000000000
0

0101000
+14 62 -9 62 *
Ed
 0.000000100000000 1 1 0
1  20 0 0.000000000000000 6.283185307179586
2  39 12 67 0.000000000000000 6.283185307179586
2  40 13 68 0.000000000000000 6.283185307179586
0

0101100
+9 69 -9 69 *
Wi

0101100
+8 7 -12 0 +7 66 -8 7 *
Fa
0  0.000000100000000 12 0

0111000
+6 57 *
Wi

0101100
+7 0 *
Fa
0  0.000000100000000 13 0

0111000
-4 71 *
Sh

0101000
-57 10 +52 9 -47 27 -42 34 +37 37 +32 9 +27 27 +25 48 -20 27 -15 55 
+10 61 -5 55 -3 70 *
So

1100000
+2 0 *

+1 1 