
CASCADE Topology V1, (c) Matra-Datavision
Locations 26
1
1.000000000000000 0.000000000000000 0.000000000000000 0.000000000000000 
0.000000000000000 1.000000000000000 0.000000000000000 0.000000000000000 
0.000000000000000 0.000000000000000 1.000000000000000 0.000000000000000 
1
1.000000000000000 0.000000000000000 0.000000000000000 0.000000000000000 
0.000000000000000 1.000000000000000 0.000000000000000 0.000000000000000 
0.000000000000000 0.000000000000000 1.000000000000000 0.000000000000000 
1
1.000000000000000 0.000000000000000 0.000000000000000 0.000000000000000 
0.000000000000000 1.000000000000000 0.000000000000000 0.000000000000000 
0.000000000000000 0.000000000000000 1.000000000000000 100.000000000000000 
1
1.000000000000000 0.000000000000000 0.000000000000000 0.000000000000000 
0.000000000000000 1.000000000000000 0.000000000000000 0.000000000000000 
0.000000000000000 0.000000000000000 1.000000000000000 0.000000000000000 
1
1.000000000000000 0.000000000000000 0.000000000000000 0.000000000000000 
0.000000000000000 1.000000000000000 0.000000000000000 0.000000000000000 
0.000000000000000 0.000000000000000 1.000000000000000 0.000000000000000 
2  2 -1 3 1 4 1 5 -1 0
1
1.000000000000000 0.000000000000000 0.000000000000000 0.000000000000000 
0.000000000000000 1.000000000000000 0.000000000000000 0.000000000000000 
0.000000000000000 0.000000000000000 1.000000000000000 0.000000000000000 
1
1.000000000000000 0.000000000000000 0.000000000000000 0.000000000000000 
0.000000000000000 1.000000000000000 0.000000000000000 0.000000000000000 
0.000000000000000 0.000000000000000 1.000000000000000 100.000000000000000 
2  7 1 8 1 5 -1 0
2  5 1 8 -1 7 -1 0
1
1.000000000000000 0.000000000000000 0.000000000000000 0.000000000000000 
0.000000000000000 1.000000000000000 0.000000000000000 0.000000000000000 
0.000000000000000 0.000000000000000 1.000000000000000 0.000000000000000 
2  11 1 1 -1 0
1
1.000000000000000 0.000000000000000 0.000000000000000 0.000000000000000 
0.000000000000000 1.000000000000000 0.000000000000000 0.000000000000000 
0.000000000000000 0.000000000000000 1.000000000000000 0.000000000000000 
2  13 1 1 -1 0
1
1.000000000000000 0.000000000000000 0.000000000000000 0.000000000000000 
0.000000000000000 1.000000000000000 0.000000000000000 0.000000000000000 
0.000000000000000 0.000000000000000 1.000000000000000 0.000000000000000 
2  15 1 1 -1 0
1
1.000000000000000 0.000000000000000 0.000000000000000 0.000000000000000 
0.000000000000000 1.000000000000000 0.000000000000000 0.000000000000000 
0.000000000000000 0.000000000000000 1.000000000000000 500.000000000000000 
2  7 1 8 1 5 -1 17 1 0
2  5 -1 17 1 0
2  7 1 8 1 0
2  17 -1 5 1 8 -1 7 -1 0
2  2 -1 4 1 5 -1 0
1
1.000000000000000 0.000000000000000 0.000000000000000 0.000000000000000 
0.000000000000000 1.000000000000000 0.000000000000000 0.000000000000000 
0.000000000000000 0.000000000000000 1.000000000000000 0.000000000000000 
1
1.000000000000000 0.000000000000000 0.000000000000000 0.000000000000000 
0.000000000000000 1.000000000000000 0.000000000000000 0.000000000000000 
0.000000000000000 0.000000000000000 1.000000000000000 0.000000000000000 
2  23 1 24 1 0
2  5 1 4 -1 2 1 24 -1 23 -1 0
Curve2ds 106
2 0.00000000000002358 -0.00000000000000105 1.00000000000000000 0.00000000000000000 -0.00000000000000000 1.00000000000000000 450.00000000000000000
1 0.00000000000000000 -100.00000000000000000 1.00000000000000000 0.00000000000000000 
1 0.00000000000000000 -100.00000000000000000 1.00000000000000000 0.00000000000000000 
1 0.00000000000000000 -100.00000000000000000 1.00000000000000000 0.00000000000000000 
1 0.00000000000000000 -100.00000000000000000 1.00000000000000000 0.00000000000000000 
2 0.00000000000002358 -0.00000000000000105 1.00000000000000000 0.00000000000000000 -0.00000000000000000 1.00000000000000000 500.00000000000000000
1 0.00000000000000000 -100.00000000000000000 1.00000000000000000 0.00000000000000000 
1 0.00000000000000000 -100.00000000000000000 1.00000000000000000 0.00000000000000000 
1 0.00000000000000000 -100.00000000000000000 1.00000000000000000 0.00000000000000000 
1 0.00000000000000000 -100.00000000000000000 1.00000000000000000 0.00000000000000000 
1 0.00000000000000000 0.00000000000000000 0.00000000000000000 -1.00000000000000000 
1 3.03025163924882968 -100.00000000000000000 0.00000000000000000 -1.00000000000000000 
1 50.28012305335204246 0.00000000000000000 0.00000000000000000 -1.00000000000000000 
1 3.04142523242823337 -100.00000000000000000 0.00000000000000000 -1.00000000000000000 
2 0.00000000000034609 -0.00000000000015510 1.00000000000000000 0.00000000000000000 -0.00000000000000000 1.00000000000000000 500.00000000000000000
1 0.00000000000000000 -600.00000000000000000 1.00000000000000000 0.00000000000000000 
2 0.00000000000034609 -0.00000000000015510 1.00000000000000000 0.00000000000000000 -0.00000000000000000 1.00000000000000000 450.00000000000000000
1 0.00000000000000000 -600.00000000000000000 1.00000000000000000 0.00000000000000000 
2 0.00000000000002358 -0.00000000000000105 1.00000000000000000 0.00000000000000000 -0.00000000000000000 1.00000000000000000 500.00000000000000000
1 0.00000000000000000 -100.00000000000000000 1.00000000000000000 0.00000000000000000 
1 -0.00000000000000044 -100.00000000000000000 1.00000000000000000 0.00000000000000000 
1 0.00000000000000000 -100.00000000000000000 1.00000000000000000 0.00000000000000000 
1 0.00000000000000000 -100.00000000000000000 1.00000000000000000 0.00000000000000000 
2 0.00000000000002358 -0.00000000000000105 1.00000000000000000 0.00000000000000000 -0.00000000000000000 1.00000000000000000 450.00000000000000000
1 0.00000000000000000 -100.00000000000000000 1.00000000000000000 0.00000000000000000 
1 -0.00000000000000044 -100.00000000000000000 1.00000000000000000 0.00000000000000000 
1 -0.00000000000000044 -100.00000000000000000 1.00000000000000000 0.00000000000000000 
1 -0.00000000000000044 -100.00000000000000000 1.00000000000000000 0.00000000000000000 
1 0.00000000000000000 0.00000000000000000 0.00000000000000000 -1.00000000000000000 
1 4.60104796604372623 -100.00000000000000000 0.00000000000000000 -1.00000000000000000 
1 50.28012305335198562 0.00000000000000000 0.00000000000000000 -1.00000000000000000 
1 4.61222155922312993 -100.00000000000000000 0.00000000000000000 -1.00000000000000000 
2 0.00000000000034609 -0.00000000000015510 1.00000000000000000 0.00000000000000000 -0.00000000000000000 1.00000000000000000 500.00000000000000000
1 0.00000000000000000 -600.00000000000000000 1.00000000000000000 0.00000000000000000 
2 0.00000000000034609 -0.00000000000015510 1.00000000000000000 0.00000000000000000 -0.00000000000000000 1.00000000000000000 450.00000000000000000
1 0.00000000000000000 -600.00000000000000000 1.00000000000000000 0.00000000000000000 
2 0.00000000000002358 -0.00000000000000105 1.00000000000000000 0.00000000000000000 -0.00000000000000000 1.00000000000000000 450.00000000000000000
1 0.00000000000000000 -100.00000000000000000 1.00000000000000000 0.00000000000000000 
1 0.00000000000000000 -100.00000000000000000 1.00000000000000000 0.00000000000000000 
1 0.00000000000000000 -100.00000000000000000 1.00000000000000000 0.00000000000000000 
1 0.00000000000000000 -100.00000000000000000 1.00000000000000000 0.00000000000000000 
2 0.00000000000002358 -0.00000000000000105 1.00000000000000000 0.00000000000000000 -0.00000000000000000 1.00000000000000000 500.00000000000000000
1 0.00000000000000000 -100.00000000000000000 1.00000000000000000 0.00000000000000000 
1 0.00000000000000000 -100.00000000000000000 1.00000000000000000 0.00000000000000000 
1 0.00000000000000000 -100.00000000000000000 1.00000000000000000 0.00000000000000000 
1 0.00000000000000000 -100.00000000000000000 1.00000000000000000 0.00000000000000000 
1 0.00000000000000000 -0.00000000000000000 0.00000000000000000 -1.00000000000000000 
1 0.10016742116155974 -100.00000000000000000 0.00000000000000000 -1.00000000000000000 
1 50.28012305335198562 0.00000000000000000 0.00000000000000000 -1.00000000000000000 
1 0.11134101434096344 -100.00000000000000000 0.00000000000000000 -1.00000000000000000 
2 0.00000000000034609 -0.00000000000015510 1.00000000000000000 0.00000000000000000 -0.00000000000000000 1.00000000000000000 450.00000000000000000
1 0.00000000000000000 -600.00000000000000000 1.00000000000000000 0.00000000000000000 
2 0.00000000000034609 -0.00000000000015510 1.00000000000000000 0.00000000000000000 -0.00000000000000000 1.00000000000000000 450.00000000000000000
1 -6.28318530717958623 -600.00000000000000000 1.00000000000000000 0.00000000000000000 
2 0.00000000000034609 -0.00000000000015510 1.00000000000000000 0.00000000000000000 -0.00000000000000000 1.00000000000000000 500.00000000000000000
1 0.00000000000000000 -600.00000000000000000 1.00000000000000000 0.00000000000000000 
2 0.00000000000034609 -0.00000000000015510 1.00000000000000000 0.00000000000000000 -0.00000000000000000 1.00000000000000000 500.00000000000000000
1 -6.28318530717958623 -600.00000000000000000 1.00000000000000000 0.00000000000000000 
2 0.00000000000002358 -0.00000000000000105 1.00000000000000000 0.00000000000000000 -0.00000000000000000 1.00000000000000000 500.00000000000000000
1 0.00000000000000000 -100.00000000000000000 1.00000000000000000 0.00000000000000000 
1 0.00000000000000000 -100.00000000000000000 1.00000000000000000 0.00000000000000000 
1 0.00000000000000000 -100.00000000000000000 1.00000000000000000 0.00000000000000000 
1 0.00000000000000000 -100.00000000000000000 1.00000000000000000 0.00000000000000000 
2 0.00000000000002358 -0.00000000000000105 1.00000000000000000 0.00000000000000000 -0.00000000000000000 1.00000000000000000 450.00000000000000000
1 0.00000000000000000 -100.00000000000000000 1.00000000000000000 0.00000000000000000 
1 0.00000000000000000 -100.00000000000000000 1.00000000000000000 0.00000000000000000 
1 0.00000000000000000 -100.00000000000000000 1.00000000000000000 0.00000000000000000 
1 0.00000000000000000 -100.00000000000000000 1.00000000000000000 0.00000000000000000 
1 0.00000000000000000 0.00000000000000000 0.00000000000000000 -1.00000000000000000 
1 6.17184429283862279 -100.00000000000000000 0.00000000000000000 -1.00000000000000000 
1 50.28012305335198562 0.00000000000000000 0.00000000000000000 -1.00000000000000000 
1 6.18301788601802649 -100.00000000000000000 0.00000000000000000 -1.00000000000000000 
1 0.00000000000000000 0.00000000000000000 0.00000000000000000 -1.00000000000000000 
1 4.81255640154624942 -100.00000000000000000 0.00000000000000000 -1.00000000000000000 
1 50.28012305335198562 0.00000000000000000 0.00000000000000000 -1.00000000000000000 
1 4.82372999472565311 -100.00000000000000000 0.00000000000000000 -1.00000000000000000 
1 0.00000000000000000 0.00000000000000000 0.00000000000000000 -1.00000000000000000 
1 3.24176007475135286 -100.00000000000000000 0.00000000000000000 -1.00000000000000000 
1 50.28012305335204246 0.00000000000000000 0.00000000000000000 -1.00000000000000000 
1 3.25293366793075656 -100.00000000000000000 0.00000000000000000 -1.00000000000000000 
1 0.00000000000000000 0.00000000000000000 0.00000000000000000 -1.00000000000000000 
1 1.67096374795645630 -100.00000000000000000 0.00000000000000000 -1.00000000000000000 
1 50.28012305335204246 0.00000000000000000 0.00000000000000000 -1.00000000000000000 
1 1.68213734113586000 -100.00000000000000000 0.00000000000000000 -1.00000000000000000 
1 0.00000000000000000 0.00000000000000000 0.00000000000000000 -1.00000000000000000 
1 1.45945531245393312 -100.00000000000000000 0.00000000000000000 -1.00000000000000000 
1 50.28012305335198562 0.00000000000000000 0.00000000000000000 -1.00000000000000000 
1 1.47062890563333681 -100.00000000000000000 0.00000000000000000 -1.00000000000000000 
2 0.00000000000034609 -0.00000000000015510 1.00000000000000000 0.00000000000000000 -0.00000000000000000 1.00000000000000000 450.00000000000000000
1 0.00000000000000000 -600.00000000000000000 1.00000000000000000 0.00000000000000000 
2 0.00000000000034609 -0.00000000000015510 1.00000000000000000 0.00000000000000000 -0.00000000000000000 1.00000000000000000 500.00000000000000000
1 0.00000000000000000 -600.00000000000000000 1.00000000000000000 0.00000000000000000 
1 6.28318530717958623 0.00000000000000000 0.00000000000000000 1.00000000000000000 
1 0.00000000000000000 0.00000000000000000 0.00000000000000000 1.00000000000000000 
2 0.00000000000002358 -0.00000000000000105 1.00000000000000000 0.00000000000000000 -0.00000000000000000 1.00000000000000000 500.00000000000000000
1 0.00000000000000000 0.00000000000000000 1.00000000000000000 0.00000000000000000 
1 0.00000000000000000 0.00000000000000000 1.00000000000000000 0.00000000000000000 
1 0.00000000000000000 0.00000000000000000 1.00000000000000000 0.00000000000000000 
1 0.00000000000000000 0.00000000000000000 1.00000000000000000 0.00000000000000000 
2 0.00000000000002358 -0.00000000000000105 1.00000000000000000 0.00000000000000000 -0.00000000000000000 1.00000000000000000 450.00000000000000000
1 0.00000000000000000 0.00000000000000000 1.00000000000000000 0.00000000000000000 
1 0.00000000000000000 0.00000000000000000 1.00000000000000000 0.00000000000000000 
1 0.00000000000000000 0.00000000000000000 1.00000000000000000 0.00000000000000000 
1 0.00000000000000000 0.00000000000000000 1.00000000000000000 0.00000000000000000 
1 6.28318530717958623 0.00000000000000000 0.00000000000000000 1.00000000000000000 
1 0.00000000000000000 0.00000000000000000 0.00000000000000000 1.00000000000000000 
Curves 46
1 -50.00000000000004974 497.49371855330997505 0.00000000000000000 0.00000000000000000 -1.00000000000000000 0.00000000000000000 
2 0.00000000000000000 0.00000000000000000 100.00000000000000000 0.00000000000000000 0.00000000000000000 1.00000000000000000 1.00000000000000000 0.00000000000000000 0.00000000000000000 0.00000000000000000 1.00000000000000000 0.00000000000000000 450.00000000000000000
1 -447.21359549995793259 50.00000000000005684 0.00000000000000000 -1.00000000000000000 -0.00000000000000042 0.00000000000000000 
2 0.00000000000000000 0.00000000000000000 100.00000000000000000 0.00000000000000000 0.00000000000000000 1.00000000000000000 1.00000000000000000 0.00000000000000000 0.00000000000000000 0.00000000000000000 1.00000000000000000 0.00000000000000000 500.00000000000000000
1 -447.21359549995793259 50.00000000000005684 100.00000000000000000 0.00000000000000000 0.00000000000000000 1.00000000000000000 
1 -497.49371855330997505 50.00000000000003553 100.00000000000000000 0.00000000000000000 0.00000000000000000 1.00000000000000000 
2 0.00000000000000000 0.00000000000000000 600.00000000000000000 0.00000000000000000 0.00000000000000000 1.00000000000000000 1.00000000000000000 0.00000000000000000 0.00000000000000000 0.00000000000000000 1.00000000000000000 0.00000000000000000 500.00000000000000000
1 -497.49371855330997505 -49.99999999999994316 0.00000000000000000 1.00000000000000000 0.00000000000000000 0.00000000000000000 
2 0.00000000000000000 0.00000000000000000 600.00000000000000000 0.00000000000000000 0.00000000000000000 1.00000000000000000 1.00000000000000000 0.00000000000000000 0.00000000000000000 0.00000000000000000 1.00000000000000000 0.00000000000000000 450.00000000000000000
2 0.00000000000000000 0.00000000000000000 100.00000000000000000 0.00000000000000000 0.00000000000000000 1.00000000000000000 1.00000000000000000 0.00000000000000000 0.00000000000000000 0.00000000000000000 1.00000000000000000 0.00000000000000000 500.00000000000000000
2 0.00000000000000000 0.00000000000000000 100.00000000000000000 0.00000000000000000 0.00000000000000000 1.00000000000000000 1.00000000000000000 0.00000000000000000 0.00000000000000000 0.00000000000000000 1.00000000000000000 0.00000000000000000 450.00000000000000000
1 -49.99999999999987921 -447.21359549995798943 0.00000000000000000 -0.00000000000000367 -1.00000000000000000 0.00000000000000000 
1 -49.99999999999987921 -447.21359549995798943 100.00000000000000000 0.00000000000000000 0.00000000000000000 1.00000000000000000 
1 -50.00000000000006395 -497.49371855330997505 100.00000000000000000 0.00000000000000000 0.00000000000000000 1.00000000000000000 
2 0.00000000000000000 0.00000000000000000 600.00000000000000000 0.00000000000000000 0.00000000000000000 1.00000000000000000 1.00000000000000000 0.00000000000000000 0.00000000000000000 0.00000000000000000 1.00000000000000000 0.00000000000000000 500.00000000000000000
1 49.99999999999988631 -497.49371855330997505 0.00000000000000000 0.00000000000000000 1.00000000000000000 0.00000000000000000 
2 0.00000000000000000 0.00000000000000000 600.00000000000000000 0.00000000000000000 0.00000000000000000 1.00000000000000000 1.00000000000000000 0.00000000000000000 0.00000000000000000 0.00000000000000000 1.00000000000000000 0.00000000000000000 450.00000000000000000
1 497.49371855330997505 49.99999999999969447 0.00000000000000000 -1.00000000000000000 0.00000000000000000 0.00000000000000000 
2 0.00000000000000000 0.00000000000000000 100.00000000000000000 0.00000000000000000 0.00000000000000000 1.00000000000000000 1.00000000000000000 0.00000000000000000 0.00000000000000000 0.00000000000000000 1.00000000000000000 0.00000000000000000 450.00000000000000000
1 50.00000000000000000 447.21359549995793259 0.00000000000000000 0.00000000000000000 1.00000000000000000 0.00000000000000000 
2 0.00000000000000000 0.00000000000000000 100.00000000000000000 0.00000000000000000 0.00000000000000000 1.00000000000000000 1.00000000000000000 0.00000000000000000 0.00000000000000000 0.00000000000000000 1.00000000000000000 0.00000000000000000 500.00000000000000000
1 497.49371855330997505 49.99999999999977263 100.00000000000000000 0.00000000000000000 0.00000000000000000 1.00000000000000000 
1 447.21359549995798943 49.99999999999969447 100.00000000000000000 0.00000000000000000 0.00000000000000000 1.00000000000000000 
2 0.00000000000000000 0.00000000000000000 600.00000000000000000 0.00000000000000000 0.00000000000000000 1.00000000000000000 1.00000000000000000 0.00000000000000000 0.00000000000000000 0.00000000000000000 1.00000000000000000 0.00000000000000000 450.00000000000000000
2 0.00000000000000000 0.00000000000000000 600.00000000000000000 0.00000000000000000 0.00000000000000000 1.00000000000000000 1.00000000000000000 0.00000000000000000 0.00000000000000000 0.00000000000000000 1.00000000000000000 0.00000000000000000 450.00000000000000000
2 0.00000000000000000 0.00000000000000000 600.00000000000000000 0.00000000000000000 0.00000000000000000 1.00000000000000000 1.00000000000000000 0.00000000000000000 0.00000000000000000 0.00000000000000000 1.00000000000000000 0.00000000000000000 500.00000000000000000
2 0.00000000000000000 0.00000000000000000 600.00000000000000000 0.00000000000000000 0.00000000000000000 1.00000000000000000 1.00000000000000000 0.00000000000000000 0.00000000000000000 0.00000000000000000 1.00000000000000000 0.00000000000000000 500.00000000000000000
1 447.21359549995798943 -49.99999999999990763 0.00000000000000000 1.00000000000000000 -0.00000000000000367 0.00000000000000000 
2 0.00000000000000000 0.00000000000000000 100.00000000000000000 0.00000000000000000 0.00000000000000000 1.00000000000000000 1.00000000000000000 0.00000000000000000 0.00000000000000000 0.00000000000000000 1.00000000000000000 0.00000000000000000 500.00000000000000000
2 0.00000000000000000 0.00000000000000000 100.00000000000000000 0.00000000000000000 0.00000000000000000 1.00000000000000000 1.00000000000000000 0.00000000000000000 0.00000000000000000 0.00000000000000000 1.00000000000000000 0.00000000000000000 450.00000000000000000
1 447.21359549995798943 -49.99999999999990763 100.00000000000000000 0.00000000000000000 0.00000000000000000 1.00000000000000000 
1 497.49371855330997505 -50.00000000000009237 100.00000000000000000 0.00000000000000000 0.00000000000000000 1.00000000000000000 
1 49.99999999999988631 -497.49371855330997505 100.00000000000000000 0.00000000000000000 0.00000000000000000 1.00000000000000000 
1 49.99999999999980105 -447.21359549995798943 100.00000000000000000 0.00000000000000000 0.00000000000000000 1.00000000000000000 
1 -497.49371855330997505 -49.99999999999992895 100.00000000000000000 0.00000000000000000 0.00000000000000000 1.00000000000000000 
1 -447.21359549995793259 -49.99999999999994316 100.00000000000000000 0.00000000000000000 0.00000000000000000 1.00000000000000000 
1 -50.00000000000004974 497.49371855330997505 100.00000000000000000 0.00000000000000000 0.00000000000000000 1.00000000000000000 
1 -50.00000000000000711 447.21359549995793259 100.00000000000000000 0.00000000000000000 0.00000000000000000 1.00000000000000000 
1 50.00000000000001421 447.21359549995793259 100.00000000000000000 0.00000000000000000 0.00000000000000000 1.00000000000000000 
1 50.00000000000000000 497.49371855330991821 100.00000000000000000 0.00000000000000000 0.00000000000000000 1.00000000000000000 
2 0.00000000000000000 0.00000000000000000 600.00000000000000000 0.00000000000000000 0.00000000000000000 1.00000000000000000 1.00000000000000000 0.00000000000000000 0.00000000000000000 0.00000000000000000 1.00000000000000000 0.00000000000000000 450.00000000000000000
2 0.00000000000000000 0.00000000000000000 600.00000000000000000 0.00000000000000000 0.00000000000000000 1.00000000000000000 1.00000000000000000 0.00000000000000000 0.00000000000000000 0.00000000000000000 1.00000000000000000 0.00000000000000000 500.00000000000000000
7 0 0  1 2 2  500.00000000000000000 0.00000000000000000 600.00000000000000000  500.00000000000000000 0.00000000000000000 0.00000000000000000 
 -600.00000000000000000 2 0.00000000000000000 2
2 0.00000000000000000 0.00000000000000000 0.00000000000000000 0.00000000000000000 0.00000000000000000 1.00000000000000000 1.00000000000000000 0.00000000000000000 0.00000000000000000 0.00000000000000000 1.00000000000000000 0.00000000000000000 500.00000000000000000
2 0.00000000000000000 0.00000000000000000 0.00000000000000000 0.00000000000000000 0.00000000000000000 1.00000000000000000 1.00000000000000000 0.00000000000000000 0.00000000000000000 0.00000000000000000 1.00000000000000000 0.00000000000000000 450.00000000000000000
7 0 0  1 2 2  450.00000000000000000 0.00000000000000000 600.00000000000000000  450.00000000000000000 0.00000000000000000 0.00000000000000000 
 -600.00000000000000000 2 0.00000000000000000 2
Polygon3D 0
PolygonOnTriangulations 0
Surfaces 21
1 -0.00000000000002358 0.00000000000000105 0.00000000000000000 0.00000000000000000 0.00000000000000000 1.00000000000000000 1.00000000000000000 0.00000000000000000 -0.00000000000000000 -0.00000000000000000 1.00000000000000000 0.00000000000000000 
10 0.00000000000000000 6.28318530717958623 -600.00000000000000000 0.00000000000000000
2 0.00000000000000000 0.00000000000000000 0.00000000000000000 -0.00000000000000000 -0.00000000000000000 -1.00000000000000000 1.00000000000000000 0.00000000000000000 0.00000000000000000 0.00000000000000000 1.00000000000000000 0.00000000000000000 450.00000000000000000
2 0.00000000000000000 0.00000000000000000 0.00000000000000000 -0.00000000000000000 -0.00000000000000000 -1.00000000000000000 1.00000000000000000 0.00000000000000000 0.00000000000000000 0.00000000000000000 1.00000000000000000 0.00000000000000000 450.00000000000000000
2 0.00000000000000000 0.00000000000000000 0.00000000000000000 -0.00000000000000000 -0.00000000000000000 -1.00000000000000000 1.00000000000000000 0.00000000000000000 0.00000000000000000 0.00000000000000000 1.00000000000000000 0.00000000000000000 450.00000000000000000
2 0.00000000000000000 0.00000000000000000 0.00000000000000000 -0.00000000000000000 -0.00000000000000000 -1.00000000000000000 1.00000000000000000 0.00000000000000000 0.00000000000000000 0.00000000000000000 1.00000000000000000 0.00000000000000000 450.00000000000000000
10 0.00000000000000000 6.28318530717958623 -600.00000000000000000 0.00000000000000000
2 0.00000000000000000 0.00000000000000000 0.00000000000000000 -0.00000000000000000 -0.00000000000000000 -1.00000000000000000 1.00000000000000000 0.00000000000000000 0.00000000000000000 0.00000000000000000 1.00000000000000000 0.00000000000000000 500.00000000000000000
2 0.00000000000000000 0.00000000000000000 0.00000000000000000 -0.00000000000000000 -0.00000000000000000 -1.00000000000000000 1.00000000000000000 0.00000000000000000 0.00000000000000000 0.00000000000000000 1.00000000000000000 0.00000000000000000 500.00000000000000000
2 0.00000000000000000 0.00000000000000000 0.00000000000000000 -0.00000000000000000 -0.00000000000000000 -1.00000000000000000 1.00000000000000000 0.00000000000000000 0.00000000000000000 0.00000000000000000 1.00000000000000000 0.00000000000000000 500.00000000000000000
2 0.00000000000000000 0.00000000000000000 0.00000000000000000 -0.00000000000000000 -0.00000000000000000 -1.00000000000000000 1.00000000000000000 0.00000000000000000 0.00000000000000000 0.00000000000000000 1.00000000000000000 0.00000000000000000 500.00000000000000000
1 -447.21359549995793259 50.00000000000005684 100.00000000000000000 0.00000000000000042 -1.00000000000000000 0.00000000000000000 -1.00000000000000000 -0.00000000000000042 0.00000000000000000 0.00000000000000000 -0.00000000000000000 -1.00000000000000000 
1 -0.00000000000034609 0.00000000000015510 100.00000000000002842 0.00000000000000000 0.00000000000000000 1.00000000000000000 1.00000000000000000 0.00000000000000000 -0.00000000000000000 -0.00000000000000000 1.00000000000000000 0.00000000000000000 
1 -49.99999999999987921 -447.21359549995798943 100.00000000000000000 1.00000000000000000 -0.00000000000000367 0.00000000000000000 -0.00000000000000367 -1.00000000000000000 0.00000000000000000 0.00000000000000000 -0.00000000000000000 -1.00000000000000000 
1 -0.00000000000034609 0.00000000000015510 100.00000000000002842 0.00000000000000000 0.00000000000000000 1.00000000000000000 1.00000000000000000 0.00000000000000000 -0.00000000000000000 -0.00000000000000000 1.00000000000000000 0.00000000000000000 
1 497.49371855330997505 49.99999999999969447 100.00000000000000000 0.00000000000000000 -1.00000000000000000 0.00000000000000000 -1.00000000000000000 0.00000000000000000 0.00000000000000000 -0.00000000000000000 -0.00000000000000000 -1.00000000000000000 
1 -0.00000000000034609 0.00000000000015510 100.00000000000002842 0.00000000000000000 0.00000000000000000 1.00000000000000000 1.00000000000000000 0.00000000000000000 -0.00000000000000000 -0.00000000000000000 1.00000000000000000 0.00000000000000000 
1 447.21359549995798943 -49.99999999999990763 100.00000000000000000 0.00000000000000367 1.00000000000000000 -0.00000000000000000 1.00000000000000000 -0.00000000000000367 0.00000000000000000 0.00000000000000000 -0.00000000000000000 -1.00000000000000000 
1 49.99999999999988631 -497.49371855330997505 100.00000000000000000 -1.00000000000000000 0.00000000000000000 0.00000000000000000 0.00000000000000000 1.00000000000000000 0.00000000000000000 0.00000000000000000 0.00000000000000000 -1.00000000000000000 
1 -497.49371855330997505 -49.99999999999994316 100.00000000000000000 0.00000000000000000 1.00000000000000000 0.00000000000000000 1.00000000000000000 0.00000000000000000 0.00000000000000000 0.00000000000000000 0.00000000000000000 -1.00000000000000000 
1 -50.00000000000004974 497.49371855330997505 100.00000000000000000 1.00000000000000000 0.00000000000000000 -0.00000000000000000 0.00000000000000000 -1.00000000000000000 0.00000000000000000 0.00000000000000000 -0.00000000000000000 -1.00000000000000000 
1 50.00000000000000000 447.21359549995793259 100.00000000000000000 -1.00000000000000000 0.00000000000000000 0.00000000000000000 0.00000000000000000 1.00000000000000000 0.00000000000000000 0.00000000000000000 0.00000000000000000 -1.00000000000000000 
1 -0.00000000000034609 0.00000000000015510 100.00000000000002842 0.00000000000000000 0.00000000000000000 1.00000000000000000 1.00000000000000000 0.00000000000000000 -0.00000000000000000 -0.00000000000000000 1.00000000000000000 0.00000000000000000 
Triangulations 0

TShapes 131
Ve
0.000000100000000
-50.000000000000050 497.493718553309975 100.000000000000000
0 0

0101101
*
Ve
0.000000100000043
-50.000000000000007 447.213595499957933 100.000000000000000
0 0

0101101
*
Ed
 0.000000100000000 1 1 0
1  1 0 0.000000000000000 50.280123053352042
0

0101000
+131 10 -130 10 *
Ve
0.000000100000400
-447.213595499957933 50.000000000000057 100.000000000000000
0 0

0101101
*
Ed
 0.000000100000000 1 1 0
1  2 0 1.682137341135860 3.030251639248829
2  1 1 6 1.682137341135860 3.030251639248829
2  2 2 0 1.682137341135860 3.030251639248829
4 C0 1 6 2 0
2  3 3 12 1.682137341135860 3.030251639248829
2  4 4 14 1.682137341135860 3.030251639248829
2  5 5 16 1.682137341135860 3.030251639248829
0

0101000
+130 0 -128 0 *
Ve
0.000000100000444
-497.493718553309975 50.000000000000036 100.000000000000000
0 0

0101101
*
Ed
 0.000000100000000 1 1 0
1  3 0 0.000000000000000 50.280123053352042
0

0101000
+128 10 -126 10 *
Ed
 0.000000100000000 1 1 0
1  4 0 1.670963747956457 3.041425232428233
2  6 1 6 1.670963747956457 3.041425232428233
2  7 6 0 1.670963747956457 3.041425232428233
4 C0 1 6 6 0
2  8 7 12 1.670963747956457 3.041425232428233
2  9 8 14 1.670963747956457 3.041425232428233
2  10 9 16 1.670963747956457 3.041425232428233
0

0101000
+131 0 -126 0 *
Wi

0101100
-129 9 -127 0 -125 9 +124 0 *
Fa
0  0.000000100000000 1 6

0101000
+123 0 *
Ve
0.000000100000000
-447.213595499957933 50.000000000000057 0.000000000000000
0 0

0101101
*
Ed
 0.000000100000000 1 1 0
1  5 0 0.000000000000000 500.000000000000000
2  11 10 0 0.000000000000000 500.000000000000000
2  12 2 0 0.000000000000000 500.000000000000000
4 C0 10 0 2 0
0

0101000
+128 0 -121 18 *
Ve
0.000000100000000
-497.493718553309975 50.000000000000036 0.000000000000000
0 0

0101101
*
Ed
 0.000000100000000 1 1 0
1  6 0 0.000000000000000 500.000000000000000
2  13 10 0 0.000000000000000 500.000000000000000
2  14 6 0 0.000000000000000 500.000000000000000
4 C0 10 0 6 0
0

0101000
+126 0 -119 18 *
Ed
 0.000000100000000 1 1 0
1  3 0 0.000000000000000 50.280123053352042
0

0101000
+121 0 -119 0 *
Wi

0101100
+120 0 -118 0 -125 9 +117 18 *
Fa
0  0.000000100000000 10 0

0101000
+116 0 *
Ve
0.000000100000014
-497.493718553309975 -49.999999999999929 0.000000000000000
0 0

0101101
*
Ed
 0.000000100000000 1 1 0
1  7 0 3.041425232428233 3.241760074751353
2  15 11 19 3.041425232428233 3.241760074751353
2  16 6 0 3.041425232428233 3.241760074751353
4 C0 11 19 6 0
0

0101000
+119 18 -114 18 *
Ve
0.000000100000000
-447.213595499957933 -49.999999999999943 0.000000000000000
0 0

0101101
*
Ed
 0.000000100000000 1 1 0
1  8 0 0.000000000000000 50.280123053352042
0

0101000
+114 0 -112 0 *
Ed
 0.000000100000000 1 1 0
1  9 0 3.030251639248829 3.252933667930757
2  17 11 19 3.030251639248829 3.252933667930757
2  18 2 0 3.030251639248829 3.252933667930757
4 C0 11 19 2 0
0

0101000
+121 18 -112 18 *
Wi

0101100
+117 0 +113 21 +111 0 -110 21 *
Fa
0  0.000000100000000 11 0

0101000
+109 20 *
Ve
0.000000100000444
-497.493718553309975 -49.999999999999929 100.000000000000000
0 0

0101101
*
Ve
0.000000100000000
-50.000000000000064 -497.493718553309975 100.000000000000000
0 0

0101101
*
Ed
 0.000000100000000 1 1 0
1  10 0 3.241760074751353 4.612221559223130
2  19 1 6 3.241760074751353 4.612221559223130
2  20 6 0 3.241760074751353 4.612221559223130
4 C0 1 6 6 0
2  21 7 12 3.241760074751353 4.612221559223130
2  22 8 14 3.241760074751353 4.612221559223130
2  23 9 16 3.241760074751353 4.612221559223130
0

0101000
+107 0 -106 0 *
Ve
0.000000100000400
-447.213595499957933 -49.999999999999943 100.000000000000000
0 0

0101101
*
Ed
 0.000000100000000 1 1 0
1  8 0 0.000000000000000 50.280123053352042
0

0101000
+107 10 -104 10 *
Ve
0.000000100000000
-49.999999999999879 -447.213595499957989 100.000000000000000
0 0

0101101
*
Ed
 0.000000100000000 1 1 0
1  11 0 3.252933667930757 4.601047966043726
2  24 1 6 3.252933667930757 4.601047966043726
2  25 2 0 3.252933667930757 4.601047966043726
4 C0 1 6 2 0
2  26 3 12 3.252933667930757 4.601047966043726
2  27 4 14 3.252933667930757 4.601047966043726
2  28 5 16 3.252933667930757 4.601047966043726
0

0101000
+104 0 -102 0 *
Ed
 0.000000100000000 1 1 0
1  12 0 0.000000000000000 50.280123053351986
0

0101000
+102 10 -106 10 *
Wi

0101100
+105 0 -103 9 -101 0 -100 9 *
Fa
0  0.000000100000000 1 6

0101000
+99 0 *
Ve
0.000000100000000
-49.999999999999879 -447.213595499957989 0.000000000000000
0 0

0101101
*
Ed
 0.000000100000000 1 1 0
1  13 0 0.000000000000000 500.000000000000000
2  29 12 0 0.000000000000000 500.000000000000000
2  30 2 0 0.000000000000000 500.000000000000000
4 C0 12 0 2 0
0

0101000
+102 0 -97 18 *
Ve
0.000000100000000
-50.000000000000064 -497.493718553309975 0.000000000000000
0 0

0101101
*
Ed
 0.000000100000000 1 1 0
1  14 0 0.000000000000000 500.000000000000000
2  31 12 0 0.000000000000000 500.000000000000000
2  32 6 0 0.000000000000000 500.000000000000000
4 C0 12 0 6 0
0

0101000
+106 0 -95 18 *
Ed
 0.000000100000000 1 1 0
1  12 0 0.000000000000000 50.280123053351986
0

0101000
+97 0 -95 0 *
Wi

0101100
+96 0 -94 0 -100 9 +93 18 *
Fa
0  0.000000100000000 12 0

0101000
+92 0 *
Ve
0.000000100000000
49.999999999999886 -497.493718553309975 0.000000000000000
0 0

0101101
*
Ed
 0.000000100000000 1 1 0
1  15 0 4.612221559223130 4.812556401546249
2  33 13 19 4.612221559223130 4.812556401546249
2  34 6 0 4.612221559223130 4.812556401546249
4 C0 13 19 6 0
0

0101000
+95 18 -90 18 *
Ve
0.000000100000085
49.999999999999801 -447.213595499957989 0.000000000000000
0 0

0101101
*
Ed
 0.000000100000000 1 1 0
1  16 0 0.000000000000000 50.280123053351986
0

0101000
+90 0 -88 0 *
Ed
 0.000000100000000 1 1 0
1  17 0 4.601047966043726 4.823729994725653
2  35 13 19 4.601047966043726 4.823729994725653
2  36 2 0 4.601047966043726 4.823729994725653
4 C0 13 19 2 0
0

0101000
+97 18 -88 18 *
Wi

0101100
+93 0 +89 21 +87 0 -86 21 *
Fa
0  0.000000100000000 13 0

0101000
+85 20 *
Ve
0.000000100000318
497.493718553309975 49.999999999999773 100.000000000000000
0 0

0101101
*
Ve
0.000000100000311
447.213595499957989 49.999999999999694 100.000000000000000
0 0

0101101
*
Ed
 0.000000100000000 1 1 0
1  18 0 0.000000000000000 50.280123053351986
0

0101000
+83 10 -82 10 *
Ve
0.000000100000011
50.000000000000014 447.213595499957933 100.000000000000000
0 0

0101101
*
Ed
 0.000000100000000 1 1 0
1  19 0 0.111341014340963 1.459455312453933
2  37 1 6 0.111341014340963 1.459455312453933
2  38 2 0 0.111341014340963 1.459455312453933
4 C0 1 6 2 0
2  39 3 12 0.111341014340963 1.459455312453933
2  40 4 14 0.111341014340963 1.459455312453933
2  41 5 16 0.111341014340963 1.459455312453933
0

0101000
+82 0 -80 0 *
Ve
0.000000100000057
50.000000000000000 497.493718553309918 100.000000000000000
0 0

0101101
*
Ed
 0.000000100000000 1 1 0
1  20 0 0.000000000000000 50.280123053351986
0

0101000
+80 10 -78 10 *
Ed
 0.000000100000000 1 1 0
1  21 0 0.100167421161559 1.470628905633337
2  42 1 6 0.100167421161559 1.470628905633337
2  43 6 0 0.100167421161559 1.470628905633337
4 C0 1 6 6 0
2  44 7 12 0.100167421161559 1.470628905633337
2  45 8 14 0.100167421161559 1.470628905633337
2  46 9 16 0.100167421161559 1.470628905633337
0

0101000
+83 0 -78 0 *
Wi

0101100
-81 9 -79 0 -77 9 +76 0 *
Fa
0  0.000000100000000 1 6

0101000
+75 0 *
Ve
0.000000100000078
497.493718553309975 49.999999999999773 600.000000000000000
0 0

0101101
*
Ed
 0.000000100000000 1 1 0
1  22 0 0.000000000000000 500.000000000000000
2  47 14 0 0.000000000000000 500.000000000000000
2  48 6 0 0.000000000000000 500.000000000000000
4 C0 14 0 6 0
0

0101000
+83 0 -73 0 *
Ve
0.000000100000000
447.213595499957989 49.999999999999694 600.000000000000000
0 0

0101101
*
Ed
 0.000000100000000 1 1 0
1  23 0 0.000000000000000 500.000000000000000
2  49 14 0 0.000000000000000 500.000000000000000
2  50 2 0 0.000000000000000 500.000000000000000
4 C0 14 0 2 0
0

0101000
+82 0 -71 0 *
Ed
 0.000000100000000 1 1 0
1  18 0 0.000000000000000 50.280123053351986
0

0101000
+73 21 -71 21 *
Wi

0101100
+72 0 -70 0 -81 9 +69 18 *
Fa
0  0.000000100000000 14 0

0101000
+68 0 *
Ve
0.000000100000000
447.213595499957989 -49.999999999999908 600.000000000000000
0 0

0101101
*
Ve
0.000010000000000
450.000000000000000 -0.000000000000110 600.000000000000000
0 0

0101101
*
Ed
 0.000000100000000 1 1 0
1  24 0 6.171844292838623 6.283185307179586
2  51 15 19 6.171844292838623 6.283185307179586
2  52 2 0 6.171844292838623 6.283185307179586
4 C0 15 19 2 0
0

0101000
+66 0 -65 0 *
Ed
 0.000000100000000 1 1 0
1  25 0 6.283185307179586 6.394526321520550
2  53 15 19 6.283185307179586 6.394526321520550
2  54 2 0 6.283185307179586 6.394526321520550
4 C0 15 19 2 0
0

0101000
+65 0 -71 0 *
Ve
0.000000100000000
497.493718553309975 -50.000000000000092 600.000000000000000
0 0

0101101
*
Ve
0.000010000000000
500.000000000000000 -0.000000000000122 600.000000000000000
0 0

0101101
*
Ed
 0.000000100000000 1 1 0
1  26 0 6.183017886018026 6.283185307179586
2  55 15 19 6.183017886018026 6.283185307179586
2  56 6 0 6.183017886018026 6.283185307179586
4 C0 15 19 6 0
0

0101000
+62 0 -61 0 *
Ed
 0.000000100000000 1 1 0
1  27 0 6.283185307179586 6.383352728341146
2  57 15 19 6.283185307179586 6.383352728341146
2  58 6 0 6.283185307179586 6.383352728341146
4 C0 15 19 6 0
0

0101000
+61 0 -73 0 *
Ed
 0.000000100000000 1 1 0
1  28 0 0.000000000000000 50.280123053351986
0

0101000
+66 21 -62 21 *
Wi

0101100
+64 21 +63 21 -69 0 -60 21 -59 21 -58 0 *
Fa
0  0.000000100000000 15 0

0101000
-57 20 *
Ve
0.000000100000000
49.999999999999886 -497.493718553309975 100.000000000000000
0 0

0101101
*
Ve
0.000000100000000
497.493718553309975 -50.000000000000092 100.000000000000000
0 0

0101101
*
Ed
 0.000000100000000 1 1 0
1  29 0 4.812556401546249 6.183017886018026
2  59 1 6 4.812556401546249 6.183017886018026
2  60 6 0 4.812556401546249 6.183017886018026
4 C0 1 6 6 0
2  61 7 12 4.812556401546249 6.183017886018026
2  62 8 14 4.812556401546249 6.183017886018026
2  63 9 16 4.812556401546249 6.183017886018026
0

0101000
+55 0 -54 0 *
Ve
0.000000100000085
49.999999999999801 -447.213595499957989 100.000000000000000
0 0

0101101
*
Ed
 0.000000100000000 1 1 0
1  16 0 0.000000000000000 50.280123053351986
0

0101000
+55 10 -52 10 *
Ve
0.000000100000000
447.213595499957989 -49.999999999999908 100.000000000000000
0 0

0101101
*
Ed
 0.000000100000000 1 1 0
1  30 0 4.823729994725653 6.171844292838623
2  64 1 6 4.823729994725653 6.171844292838623
2  65 2 0 4.823729994725653 6.171844292838623
4 C0 1 6 2 0
2  66 3 12 4.823729994725653 6.171844292838623
2  67 4 14 4.823729994725653 6.171844292838623
2  68 5 16 4.823729994725653 6.171844292838623
0

0101000
+52 0 -50 0 *
Ed
 0.000000100000000 1 1 0
1  28 0 0.000000000000000 50.280123053351986
0

0101000
+50 10 -54 10 *
Wi

0101100
+53 0 -51 9 -49 0 -48 9 *
Fa
0  0.000000100000000 1 6

0101000
+47 0 *
Ed
 0.000000100000000 1 1 0
1  31 0 0.000000000000000 500.000000000000000
2  69 16 0 0.000000000000000 500.000000000000000
2  70 2 0 0.000000000000000 500.000000000000000
4 C0 16 0 2 0
0

0101000
+50 0 -66 0 *
Ed
 0.000000100000000 1 1 0
1  32 0 0.000000000000000 500.000000000000000
2  71 16 0 0.000000000000000 500.000000000000000
2  72 6 0 0.000000000000000 500.000000000000000
4 C0 16 0 6 0
0

0101000
+54 0 -62 0 *
Wi

0101100
+45 0 -44 0 -48 9 +58 18 *
Fa
0  0.000000100000000 16 0

0101000
+43 0 *
Ed
 0.000000100000000 1 1 0
1  33 0 0.000000000000000 500.000000000000000
2  73 17 0 0.000000000000000 500.000000000000000
2  74 6 0 0.000000000000000 500.000000000000000
4 C0 17 0 6 0
0

0101000
+55 0 -90 18 *
Ed
 0.000000100000000 1 1 0
1  34 0 0.000000000000000 500.000000000000000
2  75 17 0 0.000000000000000 500.000000000000000
2  76 2 0 0.000000000000000 500.000000000000000
4 C0 17 0 2 0
0

0101000
+52 0 -88 18 *
Wi

0101100
+41 0 -40 0 -51 9 +87 18 *
Fa
0  0.000000100000000 17 0

0101000
+39 0 *
Ed
 0.000000100000000 1 1 0
1  35 0 0.000000000000000 500.000000000000000
2  77 18 0 0.000000000000000 500.000000000000000
2  78 6 0 0.000000000000000 500.000000000000000
4 C0 18 0 6 0
0

0101000
+107 0 -114 18 *
Ed
 0.000000100000000 1 1 0
1  36 0 0.000000000000000 500.000000000000000
2  79 18 0 0.000000000000000 500.000000000000000
2  80 2 0 0.000000000000000 500.000000000000000
4 C0 18 0 2 0
0

0101000
+104 0 -112 18 *
Wi

0101100
+37 0 -36 0 -103 9 +111 18 *
Fa
0  0.000000100000000 18 0

0101000
+35 0 *
Ve
0.000000100000000
-50.000000000000050 497.493718553309975 0.000000000000000
0 0

0101101
*
Ed
 0.000000100000000 1 1 0
1  37 0 0.000000000000000 500.000000000000000
2  81 19 0 0.000000000000000 500.000000000000000
2  82 6 0 0.000000000000000 500.000000000000000
4 C0 19 0 6 0
0

0101000
+131 0 -33 18 *
Ve
0.000000100000043
-50.000000000000007 447.213595499957933 0.000000000000000
0 0

0101101
*
Ed
 0.000000100000000 1 1 0
1  38 0 0.000000000000000 500.000000000000000
2  83 19 0 0.000000000000000 500.000000000000000
2  84 2 0 0.000000000000000 500.000000000000000
4 C0 19 0 2 0
0

0101000
+130 0 -31 18 *
Ed
 0.000000100000000 1 1 0
1  1 0 0.000000000000000 50.280123053352042
0

0101000
+33 0 -31 0 *
Wi

0101100
+32 0 -30 0 -129 9 +29 18 *
Fa
0  0.000000100000000 19 0

0101000
+28 0 *
Ve
0.000000100000011
50.000000000000014 447.213595499957933 0.000000000000000
0 0

0101101
*
Ed
 0.000000100000000 1 1 0
1  39 0 0.000000000000000 500.000000000000000
2  85 20 0 0.000000000000000 500.000000000000000
2  86 2 0 0.000000000000000 500.000000000000000
4 C0 20 0 2 0
0

0101000
+80 0 -26 18 *
Ve
0.000000100000028
50.000000000000000 497.493718553309918 0.000000000000000
0 0

0101101
*
Ed
 0.000000100000000 1 1 0
1  40 0 0.000000000000000 500.000000000000000
2  87 20 0 0.000000000000000 500.000000000000000
2  88 6 0 0.000000000000000 500.000000000000000
4 C0 20 0 6 0
0

0101000
+78 0 -24 18 *
Ed
 0.000000100000000 1 1 0
1  20 0 0.000000000000000 50.280123053351986
0

0101000
+26 0 -24 0 *
Wi

0101100
+25 0 -23 0 -77 9 +22 18 *
Fa
0  0.000000100000000 20 0

0101000
+21 0 *
Ed
 0.000000100000000 1 1 0
1  41 0 1.459455312453933 1.682137341135860
2  89 21 19 1.459455312453933 1.682137341135860
2  90 2 0 1.459455312453933 1.682137341135860
4 C0 21 19 2 0
0

0101000
+26 18 -31 18 *
Ed
 0.000000100000000 1 1 0
1  42 0 1.470628905633337 1.670963747956457
2  91 21 19 1.470628905633337 1.670963747956457
2  92 6 0 1.470628905633337 1.670963747956457
4 C0 21 19 6 0
0

0101000
+24 18 -33 18 *
Wi

0101100
+19 21 -29 0 -18 21 -22 0 *
Fa
0  0.000000100000000 21 0

0101000
-17 20 *
Ve
0.000010000000000
500.000000000000000 0.000000000000000 0.000000000000000
0 0

0101101
*
Ed
 0.000010000000000 1 1 0
1  43 0 -600.000000000000000 0.000000000000000
3  93 94C0 6 0 -600.000000000000000 0.000000000000000
0

0101000
+61 0 -15 0 *
Ed
 0.000000100000000 1 1 0
1  44 0 0.000000000000000 6.283185307179586
2  95 1 22 0.000000000000000 6.283185307179586
2  96 6 0 0.000000000000000 6.283185307179586
4 C0 6 0 1 22
2  97 7 12 0.000000000000000 6.283185307179586
2  98 8 14 0.000000000000000 6.283185307179586
2  99 9 16 0.000000000000000 6.283185307179586
0

0101000
+15 0 -15 0 *
Wi

0101100
-32 0 +124 0 +118 0 +113 0 -37 0 +105 0 +94 0 +89 0 -41 0 +53 0 
+44 0 +60 0 +14 0 -13 0 -14 0 +59 0 -72 0 +76 0 +23 0 +18 0 
*
Fa
0  0.000000100000000 6 0

0101000
+12 0 *
Wi

0101100
+13 26 *
Ve
0.000010000000000
450.000000000000000 0.000000000000000 0.000000000000000
0 0

0101101
*
Ed
 0.000000100000000 1 1 0
1  45 0 0.000000000000000 6.283185307179586
2  100 1 22 0.000000000000000 6.283185307179586
2  101 2 0 0.000000000000000 6.283185307179586
4 C0 1 22 2 0
2  102 3 12 0.000000000000000 6.283185307179586
2  103 4 14 0.000000000000000 6.283185307179586
2  104 5 16 0.000000000000000 6.283185307179586
0

0101000
+9 0 -9 0 *
Wi

0101100
+8 26 *
Fa
0  0.000000100000000 1 0

0101000
+10 25 -7 25 *
Ed
 0.000010000000000 1 1 0
1  46 0 -600.000000000000000 0.000000000000000
3  105 106C0 2 0 -600.000000000000000 0.000000000000000
0

0101000
+65 0 -9 0 *
Wi

0101100
+19 0 -30 0 +127 0 +120 0 +110 0 -36 0 +101 0 +96 0 +86 0 -40 0 
+49 0 +45 0 +64 0 +5 0 -8 0 -5 0 +63 0 -70 0 +79 0 +25 0 
*
Fa
0  0.000000100000000 2 0

0101000
+4 0 *
Sh

0101100
+122 0 -115 0 +108 19 +98 0 -91 0 +84 19 +74 0 -67 0 +56 19 +46 0 
-42 0 -38 0 -34 0 -27 0 -20 0 +16 19 -11 0 -6 22 +3 0 *
So

1100000
+2 0 *

+1 1 