
CASCADE Topology V1, (c) Matra-Datavision
Locations 11
1
1.000000000000000 0.000000000000000 0.000000000000000 0.000000000000000 
0.000000000000000 1.000000000000000 0.000000000000000 0.000000000000000 
0.000000000000000 0.000000000000000 1.000000000000000 0.000000000000000 
1
1.000000000000000 0.000000000000000 0.000000000000000 0.000000000000000 
0.000000000000000 1.000000000000000 0.000000000000000 0.000000000000000 
0.000000000000000 0.000000000000000 1.000000000000000 600.000000000000000 
1
1.000000000000000 0.000000000000000 0.000000000000000 0.000000000000000 
0.000000000000000 1.000000000000000 0.000000000000000 0.000000000000000 
0.000000000000000 0.000000000000000 1.000000000000000 0.000000000000000 
2  1 1 2 1 3 -1 0
1
1.000000000000000 0.000000000000000 0.000000000000000 0.000000000000000 
0.000000000000000 1.000000000000000 0.000000000000000 0.000000000000000 
0.000000000000000 0.000000000000000 1.000000000000000 100.000000000000000 
2  1 1 2 1 3 -1 5 1 0
2  3 1 2 -1 1 -1 0
2  5 -1 3 1 2 -1 1 -1 0
2  3 -1 0
2  1 1 2 1 0
2  3 -1 5 1 0
Curve2ds 41
1 1.67096374795645630 0.00000000000000000 0.00000000000000000 -1.00000000000000000 
1 3.04142523242823337 0.00000000000000000 0.00000000000000000 -1.00000000000000000 
1 0.00000000000000000 0.00000000000000000 1.00000000000000000 0.00000000000000000 
1 0.00000000000000000 -100.00000000000000000 1.00000000000000000 0.00000000000000000 
1 3.09157179678402327 0.00000000000000000 0.00000000000000000 -1.00000000000000000 
1 3.19161351039556296 0.00000000000000000 0.00000000000000000 -1.00000000000000000 
1 0.00000000000000000 0.00000000000000000 1.00000000000000000 0.00000000000000000 
1 0.00000000000000000 -100.00000000000000000 1.00000000000000000 0.00000000000000000 
1 0.00000000000000000 -700.00000000000000000 1.00000000000000000 0.00000000000000000 
1 3.24176007475135286 0.00000000000000000 0.00000000000000000 -1.00000000000000000 
1 4.61222155922312993 0.00000000000000000 0.00000000000000000 -1.00000000000000000 
1 0.00000000000000000 0.00000000000000000 1.00000000000000000 0.00000000000000000 
1 0.00000000000000000 -100.00000000000000000 1.00000000000000000 0.00000000000000000 
1 4.66236812357892028 0.00000000000000000 0.00000000000000000 -1.00000000000000000 
1 4.76240983719045907 0.00000000000000000 0.00000000000000000 -1.00000000000000000 
1 0.00000000000000000 0.00000000000000000 1.00000000000000000 0.00000000000000000 
1 0.00000000000000000 -100.00000000000000000 1.00000000000000000 0.00000000000000000 
1 0.00000000000000000 -700.00000000000000000 1.00000000000000000 0.00000000000000000 
1 4.81255640154624942 0.00000000000000000 0.00000000000000000 -1.00000000000000000 
1 6.18301788601802649 0.00000000000000000 0.00000000000000000 -1.00000000000000000 
1 0.00000000000000000 0.00000000000000000 1.00000000000000000 0.00000000000000000 
1 0.00000000000000000 -100.00000000000000000 1.00000000000000000 0.00000000000000000 
1 6.23316445037381595 0.00000000000000000 0.00000000000000000 -1.00000000000000000 
1 6.33320616398535741 0.00000000000000000 0.00000000000000000 -1.00000000000000000 
1 0.00000000000000000 0.00000000000000000 1.00000000000000000 0.00000000000000000 
1 0.00000000000000000 -100.00000000000000000 1.00000000000000000 0.00000000000000000 
1 -6.28318530717958623 -700.00000000000000000 1.00000000000000000 0.00000000000000000 
1 0.10016742116156063 0.00000000000000000 0.00000000000000000 -1.00000000000000000 
1 1.47062890563333681 0.00000000000000000 0.00000000000000000 -1.00000000000000000 
1 0.00000000000000000 0.00000000000000000 1.00000000000000000 0.00000000000000000 
1 0.00000000000000000 -100.00000000000000000 1.00000000000000000 0.00000000000000000 
1 1.52077546998912716 0.00000000000000000 0.00000000000000000 -1.00000000000000000 
1 1.62081718360066596 0.00000000000000000 0.00000000000000000 -1.00000000000000000 
1 0.00000000000000000 0.00000000000000000 1.00000000000000000 0.00000000000000000 
1 0.00000000000000000 -100.00000000000000000 1.00000000000000000 0.00000000000000000 
1 0.00000000000000000 -700.00000000000000000 1.00000000000000000 0.00000000000000000 
1 0.00000000000000000 0.00000000000000000 0.00000000000000000 -1.00000000000000000 
1 6.28318530717958623 0.00000000000000000 0.00000000000000000 -1.00000000000000000 
1 0.00000000000000000 0.00000000000000000 1.00000000000000000 0.00000000000000000 
1 0.00000000000000000 -100.00000000000000000 1.00000000000000000 0.00000000000000000 
1 0.00000000000000000 -700.00000000000000000 1.00000000000000000 0.00000000000000000 
Curves 66
1 -24.99999999999966249 599.99999999999988631 600.00000000000000000 0.00000000000000000 0.00000000000000000 1.00000000000000000 
1 -50.00000000000000000 599.99999999999988631 600.00000000000000000 0.00000000000000000 0.00000000000000000 1.00000000000000000 
1 -24.99999999999966249 599.99999999999988631 0.00000000000000000 -1.00000000000000000 0.00000000000000000 0.00000000000000000 
1 -49.99999999999997158 497.49371855330997505 600.00000000000000000 0.00000000000000000 0.00000000000000000 1.00000000000000000 
1 -50.00000000000000000 599.99999999999988631 0.00000000000000000 0.00000000000000000 -1.00000000000000000 0.00000000000000000 
1 -497.49371855330991821 50.00000000000001421 600.00000000000000000 0.00000000000000000 0.00000000000000000 1.00000000000000000 
2 0.00000000000000000 0.00000000000000000 0.00000000000000000 0.00000000000000000 0.00000000000000000 1.00000000000000000 1.00000000000000000 0.00000000000000000 0.00000000000000000 0.00000000000000000 1.00000000000000000 0.00000000000000000 500.00000000000000000
1 -600.00000000000000000 50.00000000000000000 600.00000000000000000 0.00000000000000000 0.00000000000000000 1.00000000000000000 
1 -497.49371855330991821 50.00000000000000000 0.00000000000000000 -1.00000000000000000 0.00000000000000000 0.00000000000000000 
1 -600.00000000000000000 25.00000000000000000 600.00000000000000000 0.00000000000000000 0.00000000000000000 1.00000000000000000 
1 -600.00000000000000000 50.00000000000000000 0.00000000000000000 0.00000000000000000 -1.00000000000000000 0.00000000000000000 
1 -499.37460888595455799 24.99999999999998579 600.00000000000000000 0.00000000000000000 0.00000000000000000 1.00000000000000000 
1 -499.37460888595455799 25.00000000000000000 0.00000000000000000 -1.00000000000000000 0.00000000000000000 0.00000000000000000 
1 -499.37460888595450115 -24.99999999999985079 600.00000000000000000 0.00000000000000000 0.00000000000000000 1.00000000000000000 
2 0.00000000000000000 0.00000000000000000 0.00000000000000000 0.00000000000000000 0.00000000000000000 1.00000000000000000 1.00000000000000000 0.00000000000000000 0.00000000000000000 0.00000000000000000 1.00000000000000000 0.00000000000000000 500.00000000000000000
1 -600.00000000000000000 -24.99999999999985079 600.00000000000000000 0.00000000000000000 0.00000000000000000 1.00000000000000000 
1 -600.00000000000000000 -24.99999999999985079 0.00000000000000000 1.00000000000000000 0.00000000000000000 0.00000000000000000 
1 -600.00000000000000000 -50.00000000000000000 600.00000000000000000 0.00000000000000000 0.00000000000000000 1.00000000000000000 
1 -600.00000000000000000 -24.99999999999985079 0.00000000000000000 0.00000000000000000 -1.00000000000000000 0.00000000000000000 
1 -497.49371855330997505 -49.99999999999995737 600.00000000000000000 0.00000000000000000 0.00000000000000000 1.00000000000000000 
1 -600.00000000000000000 -50.00000000000000000 0.00000000000000000 1.00000000000000000 0.00000000000000000 0.00000000000000000 
1 -50.00000000000002842 -497.49371855330997505 600.00000000000000000 0.00000000000000000 0.00000000000000000 1.00000000000000000 
2 0.00000000000000000 0.00000000000000000 0.00000000000000000 0.00000000000000000 0.00000000000000000 1.00000000000000000 1.00000000000000000 0.00000000000000000 0.00000000000000000 0.00000000000000000 1.00000000000000000 0.00000000000000000 500.00000000000000000
1 -50.00000000000000000 -600.00000000000000000 600.00000000000000000 0.00000000000000000 0.00000000000000000 1.00000000000000000 
1 -50.00000000000000000 -497.49371855330997505 0.00000000000000000 0.00000000000000000 -1.00000000000000000 0.00000000000000000 
1 -25.00000000000000000 -600.00000000000000000 600.00000000000000000 0.00000000000000000 0.00000000000000000 1.00000000000000000 
1 -50.00000000000000000 -600.00000000000000000 0.00000000000000000 1.00000000000000000 0.00000000000000000 0.00000000000000000 
1 -24.99999999999978328 -499.37460888595450115 600.00000000000000000 0.00000000000000000 0.00000000000000000 1.00000000000000000 
1 -24.99999999999978328 -499.37460888595450115 0.00000000000000000 -0.00000000000000215 -1.00000000000000000 0.00000000000000000 
1 24.99999999999959854 -499.37460888595450115 600.00000000000000000 0.00000000000000000 0.00000000000000000 1.00000000000000000 
2 0.00000000000000000 0.00000000000000000 0.00000000000000000 0.00000000000000000 0.00000000000000000 1.00000000000000000 1.00000000000000000 0.00000000000000000 0.00000000000000000 0.00000000000000000 1.00000000000000000 0.00000000000000000 500.00000000000000000
1 24.99999999999959854 -600.00000000000000000 600.00000000000000000 0.00000000000000000 0.00000000000000000 1.00000000000000000 
1 24.99999999999959854 -600.00000000000000000 0.00000000000000000 0.00000000000000000 1.00000000000000000 0.00000000000000000 
1 50.00000000000000000 -600.00000000000000000 600.00000000000000000 0.00000000000000000 0.00000000000000000 1.00000000000000000 
1 24.99999999999959854 -600.00000000000000000 0.00000000000000000 1.00000000000000000 0.00000000000000000 0.00000000000000000 
1 49.99999999999994316 -497.49371855330997505 600.00000000000000000 0.00000000000000000 0.00000000000000000 1.00000000000000000 
1 50.00000000000000000 -600.00000000000000000 0.00000000000000000 0.00000000000000000 1.00000000000000000 0.00000000000000000 
1 497.49371855330997505 -50.00000000000009237 600.00000000000000000 0.00000000000000000 0.00000000000000000 1.00000000000000000 
2 0.00000000000000000 0.00000000000000000 0.00000000000000000 0.00000000000000000 0.00000000000000000 1.00000000000000000 1.00000000000000000 0.00000000000000000 0.00000000000000000 0.00000000000000000 1.00000000000000000 0.00000000000000000 500.00000000000000000
1 600.00000000000000000 -50.00000000000000000 600.00000000000000000 0.00000000000000000 0.00000000000000000 1.00000000000000000 
1 497.49371855330997505 -50.00000000000009237 0.00000000000000000 1.00000000000000000 0.00000000000000090 0.00000000000000000 
1 600.00000000000000000 -25.00000000000000000 600.00000000000000000 0.00000000000000000 0.00000000000000000 1.00000000000000000 
1 600.00000000000000000 -50.00000000000000000 0.00000000000000000 0.00000000000000000 1.00000000000000000 0.00000000000000000 
1 499.37460888595450115 -25.00000000000012790 600.00000000000000000 0.00000000000000000 0.00000000000000000 1.00000000000000000 
1 499.37460888595455799 -25.00000000000000000 0.00000000000000000 1.00000000000000000 0.00000000000000000 0.00000000000000000 
1 499.37460888595450115 25.00000000000045475 600.00000000000000000 0.00000000000000000 0.00000000000000000 1.00000000000000000 
2 0.00000000000000000 0.00000000000000000 0.00000000000000000 0.00000000000000000 0.00000000000000000 1.00000000000000000 1.00000000000000000 0.00000000000000000 0.00000000000000000 0.00000000000000000 1.00000000000000000 0.00000000000000000 500.00000000000000000
1 600.00000000000000000 25.00000000000045475 600.00000000000000000 0.00000000000000000 0.00000000000000000 1.00000000000000000 
1 600.00000000000000000 25.00000000000045475 0.00000000000000000 -1.00000000000000000 0.00000000000000000 0.00000000000000000 
1 600.00000000000000000 50.00000000000000000 600.00000000000000000 0.00000000000000000 0.00000000000000000 1.00000000000000000 
1 600.00000000000000000 25.00000000000045475 0.00000000000000000 0.00000000000000000 1.00000000000000000 0.00000000000000000 
1 497.49371855330991821 50.00000000000021316 600.00000000000000000 0.00000000000000000 0.00000000000000000 1.00000000000000000 
1 600.00000000000000000 50.00000000000000000 0.00000000000000000 -1.00000000000000000 0.00000000000000000 0.00000000000000000 
1 50.00000000000000000 497.49371855330997505 600.00000000000000000 0.00000000000000000 0.00000000000000000 1.00000000000000000 
2 0.00000000000000000 0.00000000000000000 0.00000000000000000 0.00000000000000000 0.00000000000000000 1.00000000000000000 1.00000000000000000 0.00000000000000000 0.00000000000000000 0.00000000000000000 1.00000000000000000 0.00000000000000000 500.00000000000000000
1 50.00000000000000000 600.00000000000000000 600.00000000000000000 0.00000000000000000 0.00000000000000000 1.00000000000000000 
1 50.00000000000000000 497.49371855330997505 0.00000000000000000 0.00000000000000000 1.00000000000000000 0.00000000000000000 
1 25.00000000000000000 600.00000000000000000 600.00000000000000000 0.00000000000000000 0.00000000000000000 1.00000000000000000 
1 50.00000000000000000 600.00000000000000000 0.00000000000000000 -1.00000000000000000 0.00000000000000000 0.00000000000000000 
1 24.99999999999986144 499.37460888595455799 600.00000000000000000 0.00000000000000000 0.00000000000000000 1.00000000000000000 
1 25.00000000000000000 499.37460888595455799 0.00000000000000000 0.00000000000000000 1.00000000000000000 0.00000000000000000 
1 -24.99999999999966249 499.37460888595450115 600.00000000000000000 0.00000000000000000 0.00000000000000000 1.00000000000000000 
2 0.00000000000000000 0.00000000000000000 0.00000000000000000 0.00000000000000000 0.00000000000000000 1.00000000000000000 1.00000000000000000 0.00000000000000000 0.00000000000000000 0.00000000000000000 1.00000000000000000 0.00000000000000000 500.00000000000000000
1 -24.99999999999966249 599.99999999999988631 0.00000000000000000 0.00000000000000000 -1.00000000000000000 0.00000000000000000 
1 450.00000000000000000 0.00000000000000000 600.00000000000000000 0.00000000000000000 0.00000000000000000 1.00000000000000000 
2 0.00000000000000000 0.00000000000000000 0.00000000000000000 0.00000000000000000 0.00000000000000000 1.00000000000000000 1.00000000000000000 0.00000000000000000 -0.00000000000000000 -0.00000000000000000 1.00000000000000000 0.00000000000000000 450.00000000000000000
Polygon3D 0
PolygonOnTriangulations 0
Surfaces 36
1 -24.99999999999966249 599.99999999999988631 600.00000000000000000 0.00000000000000000 -1.00000000000000000 0.00000000000000000 -1.00000000000000000 0.00000000000000000 0.00000000000000000 -0.00000000000000000 -0.00000000000000000 -1.00000000000000000 
1 -50.00000000000000000 599.99999999999988631 600.00000000000000000 1.00000000000000000 0.00000000000000000 -0.00000000000000000 0.00000000000000000 -1.00000000000000000 0.00000000000000000 0.00000000000000000 -0.00000000000000000 -1.00000000000000000 
2 0.00000000000000000 0.00000000000000000 600.00000000000000000 -0.00000000000000000 -0.00000000000000000 -1.00000000000000000 1.00000000000000000 0.00000000000000000 0.00000000000000000 0.00000000000000000 1.00000000000000000 0.00000000000000000 500.00000000000000000
1 -497.49371855330991821 50.00000000000000000 600.00000000000000000 0.00000000000000000 -1.00000000000000000 0.00000000000000000 -1.00000000000000000 0.00000000000000000 0.00000000000000000 -0.00000000000000000 -0.00000000000000000 -1.00000000000000000 
1 -600.00000000000000000 50.00000000000000000 600.00000000000000000 1.00000000000000000 0.00000000000000000 -0.00000000000000000 0.00000000000000000 -1.00000000000000000 0.00000000000000000 0.00000000000000000 -0.00000000000000000 -1.00000000000000000 
1 -499.37460888595455799 25.00000000000000000 600.00000000000000000 0.00000000000000000 -1.00000000000000000 0.00000000000000000 -1.00000000000000000 0.00000000000000000 0.00000000000000000 -0.00000000000000000 -0.00000000000000000 -1.00000000000000000 
2 0.00000000000000000 0.00000000000000000 600.00000000000000000 -0.00000000000000000 -0.00000000000000000 -1.00000000000000000 1.00000000000000000 0.00000000000000000 0.00000000000000000 0.00000000000000000 1.00000000000000000 0.00000000000000000 500.00000000000000000
2 0.00000000000000000 0.00000000000000000 0.00000000000000000 -0.00000000000000000 -0.00000000000000000 -1.00000000000000000 1.00000000000000000 0.00000000000000000 0.00000000000000000 0.00000000000000000 1.00000000000000000 0.00000000000000000 500.00000000000000000
1 -600.00000000000000000 -24.99999999999985079 600.00000000000000000 0.00000000000000000 1.00000000000000000 0.00000000000000000 1.00000000000000000 0.00000000000000000 0.00000000000000000 0.00000000000000000 0.00000000000000000 -1.00000000000000000 
1 -600.00000000000000000 -24.99999999999985079 600.00000000000000000 1.00000000000000000 0.00000000000000000 -0.00000000000000000 0.00000000000000000 -1.00000000000000000 0.00000000000000000 0.00000000000000000 -0.00000000000000000 -1.00000000000000000 
1 -600.00000000000000000 -50.00000000000000000 600.00000000000000000 0.00000000000000000 1.00000000000000000 0.00000000000000000 1.00000000000000000 0.00000000000000000 0.00000000000000000 0.00000000000000000 0.00000000000000000 -1.00000000000000000 
2 0.00000000000000000 0.00000000000000000 600.00000000000000000 -0.00000000000000000 -0.00000000000000000 -1.00000000000000000 1.00000000000000000 0.00000000000000000 0.00000000000000000 0.00000000000000000 1.00000000000000000 0.00000000000000000 500.00000000000000000
1 -50.00000000000000000 -497.49371855330997505 600.00000000000000000 1.00000000000000000 0.00000000000000000 -0.00000000000000000 0.00000000000000000 -1.00000000000000000 0.00000000000000000 0.00000000000000000 -0.00000000000000000 -1.00000000000000000 
1 -50.00000000000000000 -600.00000000000000000 600.00000000000000000 0.00000000000000000 1.00000000000000000 0.00000000000000000 1.00000000000000000 0.00000000000000000 0.00000000000000000 0.00000000000000000 0.00000000000000000 -1.00000000000000000 
1 -24.99999999999978328 -499.37460888595450115 600.00000000000000000 1.00000000000000000 -0.00000000000000215 0.00000000000000000 -0.00000000000000215 -1.00000000000000000 0.00000000000000000 0.00000000000000000 -0.00000000000000000 -1.00000000000000000 
2 0.00000000000000000 0.00000000000000000 600.00000000000000000 -0.00000000000000000 -0.00000000000000000 -1.00000000000000000 1.00000000000000000 0.00000000000000000 0.00000000000000000 0.00000000000000000 1.00000000000000000 0.00000000000000000 500.00000000000000000
1 24.99999999999959854 -600.00000000000000000 600.00000000000000000 -1.00000000000000000 0.00000000000000000 0.00000000000000000 0.00000000000000000 1.00000000000000000 0.00000000000000000 0.00000000000000000 0.00000000000000000 -1.00000000000000000 
1 24.99999999999959854 -600.00000000000000000 600.00000000000000000 0.00000000000000000 1.00000000000000000 0.00000000000000000 1.00000000000000000 0.00000000000000000 0.00000000000000000 0.00000000000000000 0.00000000000000000 -1.00000000000000000 
1 50.00000000000000000 -600.00000000000000000 600.00000000000000000 -1.00000000000000000 0.00000000000000000 0.00000000000000000 0.00000000000000000 1.00000000000000000 0.00000000000000000 0.00000000000000000 0.00000000000000000 -1.00000000000000000 
2 0.00000000000000000 0.00000000000000000 600.00000000000000000 -0.00000000000000000 -0.00000000000000000 -1.00000000000000000 1.00000000000000000 0.00000000000000000 0.00000000000000000 0.00000000000000000 1.00000000000000000 0.00000000000000000 500.00000000000000000
1 497.49371855330997505 -50.00000000000009237 600.00000000000000000 -0.00000000000000090 1.00000000000000000 0.00000000000000000 1.00000000000000000 0.00000000000000090 0.00000000000000000 0.00000000000000000 0.00000000000000000 -1.00000000000000000 
1 600.00000000000000000 -50.00000000000000000 600.00000000000000000 -1.00000000000000000 0.00000000000000000 0.00000000000000000 0.00000000000000000 1.00000000000000000 0.00000000000000000 0.00000000000000000 0.00000000000000000 -1.00000000000000000 
1 499.37460888595455799 -25.00000000000000000 600.00000000000000000 0.00000000000000000 1.00000000000000000 0.00000000000000000 1.00000000000000000 0.00000000000000000 0.00000000000000000 0.00000000000000000 0.00000000000000000 -1.00000000000000000 
2 0.00000000000000000 0.00000000000000000 600.00000000000000000 -0.00000000000000000 -0.00000000000000000 -1.00000000000000000 1.00000000000000000 0.00000000000000000 0.00000000000000000 0.00000000000000000 1.00000000000000000 0.00000000000000000 500.00000000000000000
1 600.00000000000000000 25.00000000000045475 600.00000000000000000 0.00000000000000000 -1.00000000000000000 0.00000000000000000 -1.00000000000000000 0.00000000000000000 0.00000000000000000 -0.00000000000000000 -0.00000000000000000 -1.00000000000000000 
1 600.00000000000000000 25.00000000000045475 600.00000000000000000 -1.00000000000000000 0.00000000000000000 0.00000000000000000 0.00000000000000000 1.00000000000000000 0.00000000000000000 0.00000000000000000 0.00000000000000000 -1.00000000000000000 
1 600.00000000000000000 50.00000000000000000 600.00000000000000000 0.00000000000000000 -1.00000000000000000 0.00000000000000000 -1.00000000000000000 0.00000000000000000 0.00000000000000000 -0.00000000000000000 -0.00000000000000000 -1.00000000000000000 
2 0.00000000000000000 0.00000000000000000 600.00000000000000000 -0.00000000000000000 -0.00000000000000000 -1.00000000000000000 1.00000000000000000 0.00000000000000000 0.00000000000000000 0.00000000000000000 1.00000000000000000 0.00000000000000000 500.00000000000000000
1 50.00000000000000000 497.49371855330997505 600.00000000000000000 -1.00000000000000000 0.00000000000000000 0.00000000000000000 0.00000000000000000 1.00000000000000000 0.00000000000000000 0.00000000000000000 0.00000000000000000 -1.00000000000000000 
1 50.00000000000000000 600.00000000000000000 600.00000000000000000 0.00000000000000000 -1.00000000000000000 0.00000000000000000 -1.00000000000000000 0.00000000000000000 0.00000000000000000 -0.00000000000000000 -0.00000000000000000 -1.00000000000000000 
1 25.00000000000000000 499.37460888595455799 600.00000000000000000 -1.00000000000000000 0.00000000000000000 0.00000000000000000 0.00000000000000000 1.00000000000000000 0.00000000000000000 0.00000000000000000 0.00000000000000000 -1.00000000000000000 
2 0.00000000000000000 0.00000000000000000 600.00000000000000000 -0.00000000000000000 -0.00000000000000000 -1.00000000000000000 1.00000000000000000 0.00000000000000000 0.00000000000000000 0.00000000000000000 1.00000000000000000 0.00000000000000000 500.00000000000000000
1 -24.99999999999966249 599.99999999999988631 600.00000000000000000 1.00000000000000000 0.00000000000000000 -0.00000000000000000 0.00000000000000000 -1.00000000000000000 0.00000000000000000 0.00000000000000000 -0.00000000000000000 -1.00000000000000000 
2 0.00000000000000000 0.00000000000000000 600.00000000000000000 -0.00000000000000000 -0.00000000000000000 -1.00000000000000000 1.00000000000000000 0.00000000000000000 0.00000000000000000 0.00000000000000000 1.00000000000000000 0.00000000000000000 450.00000000000000000
2 0.00000000000000000 0.00000000000000000 0.00000000000000000 -0.00000000000000000 -0.00000000000000000 -1.00000000000000000 1.00000000000000000 0.00000000000000000 0.00000000000000000 0.00000000000000000 1.00000000000000000 0.00000000000000000 450.00000000000000000
1 -0.00000000000004521 -0.00000000000003073 600.00000000000022737 0.00000000000000000 0.00000000000000000 1.00000000000000000 1.00000000000000000 0.00000000000000000 -0.00000000000000000 -0.00000000000000000 1.00000000000000000 0.00000000000000000 
Triangulations 0

TShapes 170
Ve
0.000000100000000
-24.999999999999662 599.999999999999886 0.000000000000000
0 0

0101101
*
Ed
 0.000000100000000 1 1 0
1  1 0 0.000000000000000 100.000000000000000
0

0101000
+170 4 -170 6 *
Ve
0.000000100000000
-50.000000000000000 599.999999999999886 0.000000000000000
0 0

0101101
*
Ed
 0.000000100000000 1 1 0
1  2 0 0.000000000000000 100.000000000000000
0

0101000
+168 4 -168 6 *
Ed
 0.000000100000000 1 1 0
1  3 0 0.000000000000000 25.000000000000338
0

0101000
+170 0 -168 0 *
Wi

0101100
+169 0 -167 0 -166 4 +166 6 *
Fa
0  0.000000100000000 1 0

0101000
+165 0 *
Ve
0.000000100000028
-49.999999999999972 497.493718553309975 0.000000000000000
0 0

0101101
*
Ed
 0.000000100000028 1 1 0
1  4 0 0.000000000000000 100.000000000000000
2  1 3 0 0.000000000000000 100.000000000000000
0

0101000
+163 4 -163 6 *
Ed
 0.000000100000000 1 1 0
1  5 0 0.000000000000000 102.506281446689911
0

0101000
+168 0 -163 0 *
Wi

0101100
+167 0 -162 0 -161 4 +161 6 *
Fa
0  0.000000100000000 2 0

0101000
+160 0 *
Ve
0.000000100000034
-497.493718553309918 50.000000000000014 0.000000000000000
0 0

0101101
*
Ed
 0.000000100000034 1 1 0
1  6 0 0.000000000000000 100.000000000000000
2  2 3 0 0.000000000000000 100.000000000000000
0

0101000
+158 4 -158 6 *
Ed
 0.000000100000000 1 1 0
1  7 0 1.670963747956456 3.041425232428233
2  3 3 7 1.670963747956456 3.041425232428233
2  4 3 8 1.670963747956456 3.041425232428233
0

0101000
+163 0 -158 0 *
Wi

0101100
+162 0 -157 0 -156 4 +156 6 *
Fa
0  0.000000100000000 3 0

0101000
+155 0 *
Ve
0.000000100000000
-600.000000000000000 50.000000000000000 0.000000000000000
0 0

0101101
*
Ed
 0.000000100000000 1 1 0
1  8 0 0.000000000000000 100.000000000000000
0

0101000
+153 4 -153 6 *
Ed
 0.000000100000000 1 1 0
1  9 0 0.000000000000000 102.506281446690082
0

0101000
+158 0 -153 0 *
Wi

0101100
+157 0 -152 0 -151 4 +151 6 *
Fa
0  0.000000100000000 4 0

0101000
+150 0 *
Ve
0.000000100000000
-600.000000000000000 25.000000000000000 0.000000000000000
0 0

0101101
*
Ed
 0.000000100000000 1 1 0
1  10 0 0.000000000000000 100.000000000000000
0

0101000
+148 4 -148 6 *
Ed
 0.000000100000000 1 1 0
1  11 0 0.000000000000000 25.000000000000000
0

0101000
+153 0 -148 0 *
Wi

0101100
+152 0 -147 0 -146 4 +146 6 *
Fa
0  0.000000100000000 5 0

0101000
+145 0 *
Ve
0.000000100000031
-499.374608885954558 24.999999999999986 0.000000000000000
0 0

0101101
*
Ed
 0.000000100000031 1 1 0
1  12 0 0.000000000000000 100.000000000000000
2  5 7 0 0.000000000000000 100.000000000000000
0

0101000
+143 4 -143 6 *
Ed
 0.000000100000000 1 1 0
1  13 0 0.000000000000000 100.625391114045442
0

0101000
+143 0 -148 0 *
Wi

0101100
+142 0 -147 0 -141 4 +141 6 *
Fa
0  0.000000100000000 6 0

0101000
+140 0 *
Ve
0.000000100000000
-499.374608885954501 -24.999999999999851 0.000000000000000
0 0

0101101
*
Ed
 0.000000100000000 1 1 0
1  14 0 0.000000000000000 100.000000000000000
2  6 7 0 0.000000000000000 100.000000000000000
0

0101000
+138 4 -138 6 *
Ed
 0.000000100000000 1 1 0
1  15 0 3.091571796784023 3.191613510395563
2  7 7 7 3.091571796784023 3.191613510395563
2  8 7 8 3.091571796784023 3.191613510395563
2  9 8 8 3.091571796784023 3.191613510395563
0

0101000
+143 0 -138 0 *
Wi

0101100
+142 0 -137 0 -136 4 +136 6 *
Fa
0  0.000000100000000 7 0

0101000
+135 0 *
Ve
0.000000100000000
-600.000000000000000 -24.999999999999851 0.000000000000000
0 0

0101101
*
Ed
 0.000000100000000 1 1 0
1  16 0 0.000000000000000 100.000000000000000
0

0101000
+133 4 -133 6 *
Ed
 0.000000100000000 1 1 0
1  17 0 0.000000000000000 100.625391114045499
0

0101000
+133 0 -138 0 *
Wi

0101100
+132 0 -137 0 -131 4 +131 6 *
Fa
0  0.000000100000000 9 0

0101000
+130 0 *
Ve
0.000000100000000
-600.000000000000000 -50.000000000000000 0.000000000000000
0 0

0101101
*
Ed
 0.000000100000000 1 1 0
1  18 0 0.000000000000000 100.000000000000000
0

0101000
+128 4 -128 6 *
Ed
 0.000000100000000 1 1 0
1  19 0 0.000000000000000 25.000000000000149
0

0101000
+133 0 -128 0 *
Wi

0101100
+132 0 -127 0 -126 4 +126 6 *
Fa
0  0.000000100000000 10 0

0101000
+125 0 *
Ve
0.000000100000043
-497.493718553309975 -49.999999999999957 0.000000000000000
0 0

0101101
*
Ed
 0.000000100000043 1 1 0
1  20 0 0.000000000000000 100.000000000000000
2  10 12 0 0.000000000000000 100.000000000000000
0

0101000
+123 4 -123 6 *
Ed
 0.000000100000000 1 1 0
1  21 0 0.000000000000000 102.506281446690025
0

0101000
+128 0 -123 0 *
Wi

0101100
+127 0 -122 0 -121 4 +121 6 *
Fa
0  0.000000100000000 11 0

0101000
+120 0 *
Ve
0.000000100000032
-50.000000000000028 -497.493718553309975 0.000000000000000
0 0

0101101
*
Ed
 0.000000100000032 1 1 0
1  22 0 0.000000000000000 100.000000000000000
2  11 12 0 0.000000000000000 100.000000000000000
0

0101000
+118 4 -118 6 *
Ed
 0.000000100000000 1 1 0
1  23 0 3.241760074751353 4.612221559223130
2  12 12 7 3.241760074751353 4.612221559223130
2  13 12 8 3.241760074751353 4.612221559223130
0

0101000
+123 0 -118 0 *
Wi

0101100
+122 0 -117 0 -116 4 +116 6 *
Fa
0  0.000000100000000 12 0

0101000
+115 0 *
Ve
0.000000100000000
-50.000000000000000 -600.000000000000000 0.000000000000000
0 0

0101101
*
Ed
 0.000000100000000 1 1 0
1  24 0 0.000000000000000 100.000000000000000
0

0101000
+113 4 -113 6 *
Ed
 0.000000100000000 1 1 0
1  25 0 0.000000000000000 102.506281446690025
0

0101000
+118 0 -113 0 *
Wi

0101100
+117 0 -112 0 -111 4 +111 6 *
Fa
0  0.000000100000000 13 0

0101000
+110 0 *
Ve
0.000000100000000
-25.000000000000000 -600.000000000000000 0.000000000000000
0 0

0101101
*
Ed
 0.000000100000000 1 1 0
1  26 0 0.000000000000000 100.000000000000000
0

0101000
+108 4 -108 6 *
Ed
 0.000000100000000 1 1 0
1  27 0 0.000000000000000 25.000000000000000
0

0101000
+113 0 -108 0 *
Wi

0101100
+112 0 -107 0 -106 4 +106 6 *
Fa
0  0.000000100000000 14 0

0101000
+105 0 *
Ve
0.000000100000000
-24.999999999999783 -499.374608885954501 0.000000000000000
0 0

0101101
*
Ed
 0.000000100000000 1 1 0
1  28 0 0.000000000000000 100.000000000000000
2  14 16 0 0.000000000000000 100.000000000000000
0

0101000
+103 4 -103 6 *
Ed
 0.000000100000000 1 1 0
1  29 0 0.000000000000000 100.625391114045499
0

0101000
+103 0 -108 0 *
Wi

0101100
+102 0 -107 0 -101 4 +101 6 *
Fa
0  0.000000100000000 15 0

0101000
+100 0 *
Ve
0.000000100000000
24.999999999999599 -499.374608885954501 0.000000000000000
0 0

0101101
*
Ed
 0.000000100000000 1 1 0
1  30 0 0.000000000000000 100.000000000000000
2  15 16 0 0.000000000000000 100.000000000000000
0

0101000
+98 4 -98 6 *
Ed
 0.000000100000000 1 1 0
1  31 0 4.662368123578920 4.762409837190459
2  16 16 7 4.662368123578920 4.762409837190459
2  17 16 8 4.662368123578920 4.762409837190459
2  18 8 8 4.662368123578920 4.762409837190459
0

0101000
+103 0 -98 0 *
Wi

0101100
+102 0 -97 0 -96 4 +96 6 *
Fa
0  0.000000100000000 16 0

0101000
+95 0 *
Ve
0.000000100000000
24.999999999999599 -600.000000000000000 0.000000000000000
0 0

0101101
*
Ed
 0.000000100000000 1 1 0
1  32 0 0.000000000000000 100.000000000000000
0

0101000
+93 4 -93 6 *
Ed
 0.000000100000000 1 1 0
1  33 0 0.000000000000000 100.625391114045499
0

0101000
+93 0 -98 0 *
Wi

0101100
+92 0 -97 0 -91 4 +91 6 *
Fa
0  0.000000100000000 17 0

0101000
+90 0 *
Ve
0.000000100000000
50.000000000000000 -600.000000000000000 0.000000000000000
0 0

0101101
*
Ed
 0.000000100000000 1 1 0
1  34 0 0.000000000000000 100.000000000000000
0

0101000
+88 4 -88 6 *
Ed
 0.000000100000000 1 1 0
1  35 0 0.000000000000000 25.000000000000401
0

0101000
+93 0 -88 0 *
Wi

0101100
+92 0 -87 0 -86 4 +86 6 *
Fa
0  0.000000100000000 18 0

0101000
+85 0 *
Ve
0.000000100000057
49.999999999999943 -497.493718553309975 0.000000000000000
0 0

0101101
*
Ed
 0.000000100000057 1 1 0
1  36 0 0.000000000000000 100.000000000000000
2  19 20 0 0.000000000000000 100.000000000000000
0

0101000
+83 4 -83 6 *
Ed
 0.000000100000000 1 1 0
1  37 0 0.000000000000000 102.506281446690025
0

0101000
+88 0 -83 0 *
Wi

0101100
+87 0 -82 0 -81 4 +81 6 *
Fa
0  0.000000100000000 19 0

0101000
+80 0 *
Ve
0.000000100000000
497.493718553309975 -50.000000000000092 0.000000000000000
0 0

0101101
*
Ed
 0.000000100000000 1 1 0
1  38 0 0.000000000000000 100.000000000000000
2  20 20 0 0.000000000000000 100.000000000000000
0

0101000
+78 4 -78 6 *
Ed
 0.000000100000000 1 1 0
1  39 0 4.812556401546249 6.183017886018026
2  21 20 7 4.812556401546249 6.183017886018026
2  22 20 8 4.812556401546249 6.183017886018026
0

0101000
+83 0 -78 0 *
Wi

0101100
+82 0 -77 0 -76 4 +76 6 *
Fa
0  0.000000100000000 20 0

0101000
+75 0 *
Ve
0.000000100000000
600.000000000000000 -50.000000000000000 0.000000000000000
0 0

0101101
*
Ed
 0.000000100000000 1 1 0
1  40 0 0.000000000000000 100.000000000000000
0

0101000
+73 4 -73 6 *
Ed
 0.000000100000000 1 1 0
1  41 0 0.000000000000000 102.506281446690025
0

0101000
+78 0 -73 0 *
Wi

0101100
+77 0 -72 0 -71 4 +71 6 *
Fa
0  0.000000100000000 21 0

0101000
+70 0 *
Ve
0.000000100000000
600.000000000000000 -25.000000000000000 0.000000000000000
0 0

0101101
*
Ed
 0.000000100000000 1 1 0
1  42 0 0.000000000000000 100.000000000000000
0

0101000
+68 4 -68 6 *
Ed
 0.000000100000000 1 1 0
1  43 0 0.000000000000000 25.000000000000000
0

0101000
+73 0 -68 0 *
Wi

0101100
+72 0 -67 0 -66 4 +66 6 *
Fa
0  0.000000100000000 22 0

0101000
+65 0 *
Ve
0.000000100000133
499.374608885954501 -25.000000000000128 0.000000000000000
0 0

0101101
*
Ed
 0.000000100000133 1 1 0
1  44 0 0.000000000000000 100.000000000000000
2  23 24 0 0.000000000000000 100.000000000000000
0

0101000
+63 4 -63 6 *
Ed
 0.000000100000000 1 1 0
1  45 0 0.000000000000000 100.625391114045442
0

0101000
+63 0 -68 0 *
Wi

0101100
+62 0 -67 0 -61 4 +61 6 *
Fa
0  0.000000100000000 23 0

0101000
+60 0 *
Ve
0.000000100000000
499.374608885954501 25.000000000000455 0.000000000000000
0 0

0101101
*
Ed
 0.000000100000000 1 1 0
1  46 0 0.000000000000000 100.000000000000000
2  24 24 0 0.000000000000000 100.000000000000000
0

0101000
+58 4 -58 6 *
Ed
 0.000000100000000 1 1 0
1  47 0 6.233164450373816 6.333206163985357
2  25 24 7 6.233164450373816 6.333206163985357
2  26 24 8 6.233164450373816 6.333206163985357
2  27 8 8 6.233164450373816 6.333206163985357
0

0101000
+63 0 -58 0 *
Wi

0101100
+62 0 -57 0 -56 4 +56 6 *
Fa
0  0.000000100000000 24 0

0101000
+55 0 *
Ve
0.000000100000000
600.000000000000000 25.000000000000455 0.000000000000000
0 0

0101101
*
Ed
 0.000000100000000 1 1 0
1  48 0 0.000000000000000 100.000000000000000
0

0101000
+53 4 -53 6 *
Ed
 0.000000100000000 1 1 0
1  49 0 0.000000000000000 100.625391114045499
0

0101000
+53 0 -58 0 *
Wi

0101100
+52 0 -57 0 -51 4 +51 6 *
Fa
0  0.000000100000000 25 0

0101000
+50 0 *
Ve
0.000000100000000
600.000000000000000 50.000000000000000 0.000000000000000
0 0

0101101
*
Ed
 0.000000100000000 1 1 0
1  50 0 0.000000000000000 100.000000000000000
0

0101000
+48 4 -48 6 *
Ed
 0.000000100000000 1 1 0
1  51 0 0.000000000000000 24.999999999999545
0

0101000
+53 0 -48 0 *
Wi

0101100
+52 0 -47 0 -46 4 +46 6 *
Fa
0  0.000000100000000 26 0

0101000
+45 0 *
Ve
0.000000100000212
497.493718553309918 50.000000000000213 0.000000000000000
0 0

0101101
*
Ed
 0.000000100000212 1 1 0
1  52 0 0.000000000000000 100.000000000000000
2  28 28 0 0.000000000000000 100.000000000000000
0

0101000
+43 4 -43 6 *
Ed
 0.000000100000000 1 1 0
1  53 0 0.000000000000000 102.506281446690025
0

0101000
+48 0 -43 0 *
Wi

0101100
+47 0 -42 0 -41 4 +41 6 *
Fa
0  0.000000100000000 27 0

0101000
+40 0 *
Ve
0.000000100000000
50.000000000000000 497.493718553309975 0.000000000000000
0 0

0101101
*
Ed
 0.000000100000000 1 1 0
1  54 0 0.000000000000000 100.000000000000000
2  29 28 0 0.000000000000000 100.000000000000000
0

0101000
+38 4 -38 6 *
Ed
 0.000000100000000 1 1 0
1  55 0 0.100167421161561 1.470628905633337
2  30 28 7 0.100167421161561 1.470628905633337
2  31 28 8 0.100167421161561 1.470628905633337
0

0101000
+43 0 -38 0 *
Wi

0101100
+42 0 -37 0 -36 4 +36 6 *
Fa
0  0.000000100000000 28 0

0101000
+35 0 *
Ve
0.000000100000000
50.000000000000000 600.000000000000000 0.000000000000000
0 0

0101101
*
Ed
 0.000000100000000 1 1 0
1  56 0 0.000000000000000 100.000000000000000
0

0101000
+33 4 -33 6 *
Ed
 0.000000100000000 1 1 0
1  57 0 0.000000000000000 102.506281446690025
0

0101000
+38 0 -33 0 *
Wi

0101100
+37 0 -32 0 -31 4 +31 6 *
Fa
0  0.000000100000000 29 0

0101000
+30 0 *
Ve
0.000000100000000
25.000000000000000 600.000000000000000 0.000000000000000
0 0

0101101
*
Ed
 0.000000100000000 1 1 0
1  58 0 0.000000000000000 100.000000000000000
0

0101000
+28 4 -28 6 *
Ed
 0.000000100000000 1 1 0
1  59 0 0.000000000000000 25.000000000000000
0

0101000
+33 0 -28 0 *
Wi

0101100
+32 0 -27 0 -26 4 +26 6 *
Fa
0  0.000000100000000 30 0

0101000
+25 0 *
Ve
0.000000100000141
24.999999999999861 499.374608885954558 0.000000000000000
0 0

0101101
*
Ed
 0.000000100000141 1 1 0
1  60 0 0.000000000000000 100.000000000000000
2  32 32 0 0.000000000000000 100.000000000000000
0

0101000
+23 4 -23 6 *
Ed
 0.000000100000000 1 1 0
1  61 0 0.000000000000000 100.625391114045442
0

0101000
+23 0 -28 0 *
Wi

0101100
+22 0 -27 0 -21 4 +21 6 *
Fa
0  0.000000100000000 31 0

0101000
+20 0 *
Ve
0.000000100000000
-24.999999999999662 499.374608885954501 0.000000000000000
0 0

0101101
*
Ed
 0.000000100000000 1 1 0
1  62 0 0.000000000000000 100.000000000000000
2  33 32 0 0.000000000000000 100.000000000000000
0

0101000
+18 4 -18 6 *
Ed
 0.000000100000000 1 1 0
1  63 0 1.520775469989127 1.620817183600666
2  34 32 7 1.520775469989127 1.620817183600666
2  35 32 8 1.520775469989127 1.620817183600666
2  36 8 8 1.520775469989127 1.620817183600666
0

0101000
+23 0 -18 0 *
Wi

0101100
+22 0 -17 0 -16 4 +16 6 *
Fa
0  0.000000100000000 32 0

0101000
+15 0 *
Ed
 0.000000100000000 1 1 0
1  64 0 0.000000000000000 100.625391114045385
0

0101000
+170 0 -18 0 *
Wi

0101100
+169 0 -17 0 -13 4 +13 6 *
Fa
0  0.000000100000000 33 0

0101000
+12 0 *
Ve
0.000000100000000
450.000000000000000 0.000000000000000 0.000000000000000
0 0

0101101
*
Ed
 0.000000100000000 1 1 0
1  65 0 0.000000000000000 100.000000000000000
3  37 38CN 34 0 0.000000000000000 100.000000000000000
0

0101000
+10 4 -10 6 *
Ed
 0.000000100000000 1 1 0
1  66 0 0.000000000000000 6.283185307179586
2  39 34 7 0.000000000000000 6.283185307179586
2  40 34 8 0.000000000000000 6.283185307179586
2  41 35 8 0.000000000000000 6.283185307179586
0

0101100
+10 0 -10 0 *
Wi

0101100
+9 0 -9 0 -8 4 +8 6 *
Fa
0  0.000000100000000 34 0

0101000
+7 0 *
Wi

0101100
+166 0 +161 0 +156 0 +151 0 +146 0 -141 0 +136 0 -131 0 +126 0 +121 0 
+116 0 +111 0 +106 0 -101 0 +96 0 -91 0 +86 0 +81 0 +76 0 +71 0 
+66 0 -61 0 +56 0 -51 0 +46 0 +41 0 +36 0 +31 0 +26 0 -21 0 
+16 0 -13 0 *
Wi

0101100
+8 0 *
Fa
0  0.000000100000000 36 0

0101000
+5 10 -4 10 *
Sh

0101100
+164 0 +159 0 +154 0 +149 0 +144 0 -139 0 +134 0 -129 0 +124 0 +119 0 
+114 0 +109 0 +104 0 -99 0 +94 0 -89 0 +84 0 +79 0 +74 0 +69 0 
+64 0 -59 0 +54 0 -49 0 +44 0 +39 0 +34 0 +29 0 +24 0 -19 0 
+14 0 -11 0 -6 0 +3 9 -3 11 *
So

1100000
-2 0 *

+1 0 