
CASCADE Topology V1, (c) Matra-Datavision
Locations 11
1
1.000000000000000 0.000000000000000 0.000000000000000 0.000000000000000 
0.000000000000000 1.000000000000000 0.000000000000000 0.000000000000000 
0.000000000000000 0.000000000000000 1.000000000000000 0.000000000000000 
1
1.000000000000000 0.000000000000000 0.000000000000000 0.000000000000000 
0.000000000000000 1.000000000000000 0.000000000000000 0.000000000000000 
0.000000000000000 0.000000000000000 1.000000000000000 100.000000000000000 
1
1.000000000000000 0.000000000000000 0.000000000000000 0.000000000000000 
0.000000000000000 1.000000000000000 0.000000000000000 0.000000000000000 
0.000000000000000 0.000000000000000 1.000000000000000 0.000000000000000 
2  1 1 2 1 3 -1 0
1
1.000000000000000 0.000000000000000 0.000000000000000 0.000000000000000 
0.000000000000000 1.000000000000000 0.000000000000000 0.000000000000000 
0.000000000000000 0.000000000000000 1.000000000000000 500.000000000000000 
2  1 1 2 1 3 -1 5 1 0
2  3 1 2 -1 1 -1 0
2  5 -1 3 1 2 -1 1 -1 0
2  3 -1 0
2  1 1 2 1 0
2  3 -1 5 1 0
Curve2ds 40
1 1.45945531245393267 0.00000000000000000 0.00000000000000000 -1.00000000000000000 
1 1.68213734113586044 0.00000000000000000 0.00000000000000000 -1.00000000000000000 
1 0.00000000000000000 0.00000000000000000 1.00000000000000000 0.00000000000000000 
1 0.00000000000000000 -500.00000000000000000 1.00000000000000000 0.00000000000000000 
1 0.00000000000000000 -600.00000000000000000 1.00000000000000000 0.00000000000000000 
1 1.67096374795645652 0.00000000000000000 0.00000000000000000 -1.00000000000000000 
1 1.47062890563333681 0.00000000000000000 0.00000000000000000 -1.00000000000000000 
1 0.00000000000000000 0.00000000000000000 1.00000000000000000 0.00000000000000000 
1 0.00000000000000000 -500.00000000000000000 1.00000000000000000 0.00000000000000000 
1 0.00000000000000000 -600.00000000000000000 1.00000000000000000 0.00000000000000000 
1 3.03025163924882923 0.00000000000000000 0.00000000000000000 -1.00000000000000000 
1 3.04142523242823337 0.00000000000000000 0.00000000000000000 -1.00000000000000000 
1 3.24176007475135286 0.00000000000000000 0.00000000000000000 -1.00000000000000000 
1 0.00000000000000000 0.00000000000000000 1.00000000000000000 0.00000000000000000 
1 0.00000000000000000 -500.00000000000000000 1.00000000000000000 0.00000000000000000 
1 0.00000000000000000 -600.00000000000000000 1.00000000000000000 0.00000000000000000 
1 3.25293366793075700 0.00000000000000000 0.00000000000000000 -1.00000000000000000 
1 0.00000000000000000 0.00000000000000000 1.00000000000000000 0.00000000000000000 
1 0.00000000000000000 -500.00000000000000000 1.00000000000000000 0.00000000000000000 
1 0.00000000000000000 -600.00000000000000000 1.00000000000000000 0.00000000000000000 
1 6.17184429283862279 0.00000000000000000 0.00000000000000000 -1.00000000000000000 
1 6.39452632152054967 0.00000000000000000 0.00000000000000000 -1.00000000000000000 
1 0.00000000000000000 0.00000000000000000 1.00000000000000000 0.00000000000000000 
1 0.00000000000000000 -500.00000000000000000 1.00000000000000000 0.00000000000000000 
1 0.00000000000000000 -600.00000000000000000 1.00000000000000000 0.00000000000000000 
1 6.38335272834114598 0.00000000000000000 0.00000000000000000 -1.00000000000000000 
1 6.18301788601802649 0.00000000000000000 0.00000000000000000 -1.00000000000000000 
1 0.00000000000000000 0.00000000000000000 1.00000000000000000 0.00000000000000000 
1 0.00000000000000000 -500.00000000000000000 1.00000000000000000 0.00000000000000000 
1 0.00000000000000000 -600.00000000000000000 1.00000000000000000 0.00000000000000000 
1 4.60104796604372623 0.00000000000000000 0.00000000000000000 -1.00000000000000000 
1 4.61222155922312993 0.00000000000000000 0.00000000000000000 -1.00000000000000000 
1 4.81255640154624942 0.00000000000000000 0.00000000000000000 -1.00000000000000000 
1 0.00000000000000000 0.00000000000000000 1.00000000000000000 0.00000000000000000 
1 0.00000000000000000 -500.00000000000000000 1.00000000000000000 0.00000000000000000 
1 0.00000000000000000 -600.00000000000000000 1.00000000000000000 0.00000000000000000 
1 4.82372999472565311 0.00000000000000000 0.00000000000000000 -1.00000000000000000 
1 0.00000000000000000 0.00000000000000000 1.00000000000000000 0.00000000000000000 
1 0.00000000000000000 -500.00000000000000000 1.00000000000000000 0.00000000000000000 
1 0.00000000000000000 -600.00000000000000000 1.00000000000000000 0.00000000000000000 
Curves 32
1 50.00000000000001421 447.21359549995793259 100.00000000000000000 0.00000000000000000 0.00000000000000000 1.00000000000000000 
1 -50.00000000000000711 447.21359549995793259 100.00000000000000000 0.00000000000000000 0.00000000000000000 1.00000000000000000 
2 0.00000000000000000 0.00000000000000000 0.00000000000000000 0.00000000000000000 0.00000000000000000 1.00000000000000000 1.00000000000000000 0.00000000000000000 0.00000000000000000 0.00000000000000000 1.00000000000000000 0.00000000000000000 450.00000000000000000
1 -50.00000000000004974 497.49371855330997505 100.00000000000000000 0.00000000000000000 0.00000000000000000 1.00000000000000000 
1 -50.00000000000004974 497.49371855330997505 0.00000000000000000 0.00000000000000000 -1.00000000000000000 0.00000000000000000 
1 50.00000000000000000 497.49371855330991821 100.00000000000000000 0.00000000000000000 0.00000000000000000 1.00000000000000000 
2 0.00000000000000000 0.00000000000000000 0.00000000000000000 0.00000000000000000 0.00000000000000000 1.00000000000000000 1.00000000000000000 0.00000000000000000 0.00000000000000000 0.00000000000000000 1.00000000000000000 0.00000000000000000 500.00000000000000000
1 50.00000000000000000 447.21359549995793259 0.00000000000000000 0.00000000000000000 1.00000000000000000 0.00000000000000000 
1 -447.21359549995793259 50.00000000000005684 100.00000000000000000 0.00000000000000000 0.00000000000000000 1.00000000000000000 
1 -497.49371855330997505 50.00000000000003553 100.00000000000000000 0.00000000000000000 0.00000000000000000 1.00000000000000000 
1 -447.21359549995793259 50.00000000000005684 0.00000000000000000 -1.00000000000000000 -0.00000000000000042 0.00000000000000000 
1 -497.49371855330997505 -49.99999999999992895 100.00000000000000000 0.00000000000000000 0.00000000000000000 1.00000000000000000 
2 0.00000000000000000 0.00000000000000000 0.00000000000000000 0.00000000000000000 0.00000000000000000 1.00000000000000000 1.00000000000000000 0.00000000000000000 0.00000000000000000 0.00000000000000000 1.00000000000000000 0.00000000000000000 500.00000000000000000
1 -447.21359549995793259 -49.99999999999994316 100.00000000000000000 0.00000000000000000 0.00000000000000000 1.00000000000000000 
1 -497.49371855330997505 -49.99999999999994316 0.00000000000000000 1.00000000000000000 0.00000000000000000 0.00000000000000000 
2 0.00000000000000000 0.00000000000000000 0.00000000000000000 0.00000000000000000 0.00000000000000000 1.00000000000000000 1.00000000000000000 0.00000000000000000 0.00000000000000000 0.00000000000000000 1.00000000000000000 0.00000000000000000 450.00000000000000000
1 447.21359549995798943 -49.99999999999990763 100.00000000000000000 0.00000000000000000 0.00000000000000000 1.00000000000000000 
1 447.21359549995798943 49.99999999999969447 100.00000000000000000 0.00000000000000000 0.00000000000000000 1.00000000000000000 
2 0.00000000000000000 0.00000000000000000 0.00000000000000000 0.00000000000000000 0.00000000000000000 1.00000000000000000 1.00000000000000000 0.00000000000000000 0.00000000000000000 0.00000000000000000 1.00000000000000000 0.00000000000000000 450.00000000000000000
1 497.49371855330997505 49.99999999999977263 100.00000000000000000 0.00000000000000000 0.00000000000000000 1.00000000000000000 
1 497.49371855330997505 49.99999999999969447 0.00000000000000000 -1.00000000000000000 0.00000000000000000 0.00000000000000000 
1 497.49371855330997505 -50.00000000000009237 100.00000000000000000 0.00000000000000000 0.00000000000000000 1.00000000000000000 
2 0.00000000000000000 0.00000000000000000 0.00000000000000000 0.00000000000000000 0.00000000000000000 1.00000000000000000 1.00000000000000000 0.00000000000000000 0.00000000000000000 0.00000000000000000 1.00000000000000000 0.00000000000000000 500.00000000000000000
1 447.21359549995798943 -49.99999999999990763 0.00000000000000000 1.00000000000000000 -0.00000000000000367 0.00000000000000000 
1 -49.99999999999987921 -447.21359549995798943 100.00000000000000000 0.00000000000000000 0.00000000000000000 1.00000000000000000 
1 -50.00000000000006395 -497.49371855330997505 100.00000000000000000 0.00000000000000000 0.00000000000000000 1.00000000000000000 
1 -49.99999999999987921 -447.21359549995798943 0.00000000000000000 -0.00000000000000367 -1.00000000000000000 0.00000000000000000 
1 49.99999999999988631 -497.49371855330997505 100.00000000000000000 0.00000000000000000 0.00000000000000000 1.00000000000000000 
2 0.00000000000000000 0.00000000000000000 0.00000000000000000 0.00000000000000000 0.00000000000000000 1.00000000000000000 1.00000000000000000 0.00000000000000000 0.00000000000000000 0.00000000000000000 1.00000000000000000 0.00000000000000000 500.00000000000000000
1 49.99999999999980105 -447.21359549995798943 100.00000000000000000 0.00000000000000000 0.00000000000000000 1.00000000000000000 
1 49.99999999999988631 -497.49371855330997505 0.00000000000000000 0.00000000000000000 1.00000000000000000 0.00000000000000000 
2 0.00000000000000000 0.00000000000000000 0.00000000000000000 0.00000000000000000 0.00000000000000000 1.00000000000000000 1.00000000000000000 0.00000000000000000 0.00000000000000000 0.00000000000000000 1.00000000000000000 0.00000000000000000 450.00000000000000000
Polygon3D 0
PolygonOnTriangulations 0
Surfaces 22
2 0.00000000000000000 0.00000000000000000 100.00000000000000000 -0.00000000000000000 -0.00000000000000000 -1.00000000000000000 1.00000000000000000 0.00000000000000000 0.00000000000000000 0.00000000000000000 1.00000000000000000 0.00000000000000000 450.00000000000000000
2 0.00000000000000000 0.00000000000000000 0.00000000000000000 -0.00000000000000000 -0.00000000000000000 -1.00000000000000000 1.00000000000000000 0.00000000000000000 0.00000000000000000 0.00000000000000000 1.00000000000000000 0.00000000000000000 450.00000000000000000
1 -50.00000000000004974 497.49371855330997505 100.00000000000000000 1.00000000000000000 0.00000000000000000 -0.00000000000000000 0.00000000000000000 -1.00000000000000000 0.00000000000000000 0.00000000000000000 -0.00000000000000000 -1.00000000000000000 
2 0.00000000000000000 0.00000000000000000 100.00000000000000000 -0.00000000000000000 -0.00000000000000000 -1.00000000000000000 1.00000000000000000 0.00000000000000000 0.00000000000000000 0.00000000000000000 1.00000000000000000 0.00000000000000000 500.00000000000000000
2 0.00000000000000000 0.00000000000000000 0.00000000000000000 -0.00000000000000000 -0.00000000000000000 -1.00000000000000000 1.00000000000000000 0.00000000000000000 0.00000000000000000 0.00000000000000000 1.00000000000000000 0.00000000000000000 500.00000000000000000
1 50.00000000000000000 447.21359549995793259 100.00000000000000000 -1.00000000000000000 0.00000000000000000 0.00000000000000000 0.00000000000000000 1.00000000000000000 0.00000000000000000 0.00000000000000000 0.00000000000000000 -1.00000000000000000 
1 -0.00000000000034609 0.00000000000015510 100.00000000000002842 0.00000000000000000 0.00000000000000000 1.00000000000000000 1.00000000000000000 0.00000000000000000 -0.00000000000000000 -0.00000000000000000 1.00000000000000000 0.00000000000000000 
1 -447.21359549995793259 50.00000000000005684 100.00000000000000000 0.00000000000000042 -1.00000000000000000 0.00000000000000000 -1.00000000000000000 -0.00000000000000042 0.00000000000000000 0.00000000000000000 -0.00000000000000000 -1.00000000000000000 
2 0.00000000000000000 0.00000000000000000 100.00000000000000000 -0.00000000000000000 -0.00000000000000000 -1.00000000000000000 1.00000000000000000 0.00000000000000000 0.00000000000000000 0.00000000000000000 1.00000000000000000 0.00000000000000000 450.00000000000000000
2 0.00000000000000000 0.00000000000000000 100.00000000000000000 -0.00000000000000000 -0.00000000000000000 -1.00000000000000000 1.00000000000000000 0.00000000000000000 0.00000000000000000 0.00000000000000000 1.00000000000000000 0.00000000000000000 500.00000000000000000
1 -497.49371855330997505 -49.99999999999994316 100.00000000000000000 0.00000000000000000 1.00000000000000000 0.00000000000000000 1.00000000000000000 0.00000000000000000 0.00000000000000000 0.00000000000000000 0.00000000000000000 -1.00000000000000000 
1 -0.00000000000034609 0.00000000000015510 100.00000000000002842 0.00000000000000000 0.00000000000000000 1.00000000000000000 1.00000000000000000 0.00000000000000000 -0.00000000000000000 -0.00000000000000000 1.00000000000000000 0.00000000000000000 
2 0.00000000000000000 0.00000000000000000 100.00000000000000000 -0.00000000000000000 -0.00000000000000000 -1.00000000000000000 1.00000000000000000 0.00000000000000000 0.00000000000000000 0.00000000000000000 1.00000000000000000 0.00000000000000000 450.00000000000000000
1 497.49371855330997505 49.99999999999969447 100.00000000000000000 0.00000000000000000 -1.00000000000000000 0.00000000000000000 -1.00000000000000000 0.00000000000000000 0.00000000000000000 -0.00000000000000000 -0.00000000000000000 -1.00000000000000000 
2 0.00000000000000000 0.00000000000000000 100.00000000000000000 -0.00000000000000000 -0.00000000000000000 -1.00000000000000000 1.00000000000000000 0.00000000000000000 0.00000000000000000 0.00000000000000000 1.00000000000000000 0.00000000000000000 500.00000000000000000
1 447.21359549995798943 -49.99999999999990763 100.00000000000000000 0.00000000000000367 1.00000000000000000 -0.00000000000000000 1.00000000000000000 -0.00000000000000367 0.00000000000000000 0.00000000000000000 -0.00000000000000000 -1.00000000000000000 
1 -0.00000000000034609 0.00000000000015510 100.00000000000002842 0.00000000000000000 0.00000000000000000 1.00000000000000000 1.00000000000000000 0.00000000000000000 -0.00000000000000000 -0.00000000000000000 1.00000000000000000 0.00000000000000000 
1 -49.99999999999987921 -447.21359549995798943 100.00000000000000000 1.00000000000000000 -0.00000000000000367 0.00000000000000000 -0.00000000000000367 -1.00000000000000000 0.00000000000000000 0.00000000000000000 -0.00000000000000000 -1.00000000000000000 
2 0.00000000000000000 0.00000000000000000 100.00000000000000000 -0.00000000000000000 -0.00000000000000000 -1.00000000000000000 1.00000000000000000 0.00000000000000000 0.00000000000000000 0.00000000000000000 1.00000000000000000 0.00000000000000000 450.00000000000000000
2 0.00000000000000000 0.00000000000000000 100.00000000000000000 -0.00000000000000000 -0.00000000000000000 -1.00000000000000000 1.00000000000000000 0.00000000000000000 0.00000000000000000 0.00000000000000000 1.00000000000000000 0.00000000000000000 500.00000000000000000
1 49.99999999999988631 -497.49371855330997505 100.00000000000000000 -1.00000000000000000 0.00000000000000000 0.00000000000000000 0.00000000000000000 1.00000000000000000 0.00000000000000000 0.00000000000000000 0.00000000000000000 -1.00000000000000000 
1 -0.00000000000034609 0.00000000000015510 100.00000000000002842 0.00000000000000000 0.00000000000000000 1.00000000000000000 1.00000000000000000 0.00000000000000000 -0.00000000000000000 -0.00000000000000000 1.00000000000000000 0.00000000000000000 
Triangulations 0

TShapes 97
Ve
0.000000100000011
50.000000000000014 447.213595499957933 0.000000000000000
0 0

0101101
*
Ed
 0.000000100000011 1 1 0
1  1 0 0.000000000000000 500.000000000000000
2  1 1 0 0.000000000000000 500.000000000000000
0

0101000
+97 4 -97 6 *
Ve
0.000000100000043
-50.000000000000007 447.213595499957933 0.000000000000000
0 0

0101101
*
Ed
 0.000000100000043 1 1 0
1  2 0 0.000000000000000 500.000000000000000
2  2 1 0 0.000000000000000 500.000000000000000
0

0101000
+95 4 -95 6 *
Ed
 0.000000100000000 1 1 0
1  3 0 1.459455312453933 1.682137341135860
2  3 1 7 1.459455312453933 1.682137341135860
2  4 1 8 1.459455312453933 1.682137341135860
2  5 2 8 1.459455312453933 1.682137341135860
0

0101000
+97 0 -95 0 *
Wi

0101100
+96 0 -94 0 -93 4 +93 6 *
Fa
0  0.000000100000000 1 0

0101000
+92 0 *
Ve
0.000000100000000
-50.000000000000050 497.493718553309975 0.000000000000000
0 0

0101101
*
Ed
 0.000000100000000 1 1 0
1  4 0 0.000000000000000 500.000000000000000
2  6 4 0 0.000000000000000 500.000000000000000
0

0101000
+90 4 -90 6 *
Ed
 0.000000100000000 1 1 0
1  5 0 0.000000000000000 50.280123053352042
0

0101000
+90 0 -95 0 *
Wi

0101100
+89 0 -94 0 -88 4 +88 6 *
Fa
0  0.000000100000000 3 0

0101000
+87 0 *
Ve
0.000000100000028
50.000000000000000 497.493718553309918 0.000000000000000
0 0

0101101
*
Ed
 0.000000100000028 1 1 0
1  6 0 0.000000000000000 500.000000000000000
2  7 4 0 0.000000000000000 500.000000000000000
0

0101000
+85 4 -85 6 *
Ed
 0.000000100000000 1 1 0
1  7 0 1.470628905633337 1.670963747956457
2  8 4 7 1.470628905633337 1.670963747956457
2  9 4 8 1.470628905633337 1.670963747956457
2  10 5 8 1.470628905633337 1.670963747956457
0

0101000
+85 0 -90 0 *
Wi

0101100
+84 0 -89 0 -83 4 +83 6 *
Fa
0  0.000000100000000 4 0

0101000
+82 0 *
Ed
 0.000000100000000 1 1 0
1  8 0 0.000000000000000 50.280123053351986
0

0101000
+97 0 -85 0 *
Wi

0101100
+96 0 -84 0 -80 4 +80 6 *
Fa
0  0.000000100000000 6 0

0101000
+79 0 *
Wi

0101100
+93 0 -88 0 -83 0 -80 0 *
Fa
0  0.000000100000000 7 0

0101000
-77 10 *
Sh

0101100
-91 0 +86 0 +81 0 +78 0 +76 9 -76 11 *
So

0100000
-75 0 *
Ve
0.000000100000000
-447.213595499957933 50.000000000000057 0.000000000000000
0 0

0101101
*
Ed
 0.000000100000000 1 1 0
1  9 0 0.000000000000000 500.000000000000000
2  11 9 0 0.000000000000000 500.000000000000000
0

0101000
+73 4 -73 6 *
Ve
0.000000100000000
-497.493718553309975 50.000000000000036 0.000000000000000
0 0

0101101
*
Ed
 0.000000100000000 1 1 0
1  10 0 0.000000000000000 500.000000000000000
2  12 10 0 0.000000000000000 500.000000000000000
0

0101000
+71 4 -71 6 *
Ed
 0.000000100000000 1 1 0
1  11 0 0.000000000000000 50.280123053352042
0

0101000
+73 0 -71 0 *
Wi

0101100
+72 0 -70 0 -69 4 +69 6 *
Fa
0  0.000000100000000 8 0

0101000
+68 0 *
Ve
0.000000100000014
-497.493718553309975 -49.999999999999929 0.000000000000000
0 0

0101101
*
Ed
 0.000000100000014 1 1 0
1  12 0 0.000000000000000 500.000000000000000
2  13 10 0 0.000000000000000 500.000000000000000
0

0101000
+66 4 -66 6 *
Ed
 0.000000100000000 1 1 0
1  13 0 3.041425232428233 3.241760074751353
2  14 10 7 3.041425232428233 3.241760074751353
2  15 10 8 3.041425232428233 3.241760074751353
2  16 5 8 3.041425232428233 3.241760074751353
0

0101000
+71 0 -66 0 *
Wi

0101100
+70 0 -65 0 -64 4 +64 6 *
Fa
0  0.000000100000000 10 0

0101000
+63 0 *
Ve
0.000000100000000
-447.213595499957933 -49.999999999999943 0.000000000000000
0 0

0101101
*
Ed
 0.000000100000000 1 1 0
1  14 0 0.000000000000000 500.000000000000000
2  17 9 0 0.000000000000000 500.000000000000000
0

0101000
+61 4 -61 6 *
Ed
 0.000000100000000 1 1 0
1  15 0 0.000000000000000 50.280123053352042
0

0101000
+66 0 -61 0 *
Wi

0101100
+65 0 -60 0 -59 4 +59 6 *
Fa
0  0.000000100000000 11 0

0101000
+58 0 *
Ed
 0.000000100000000 1 1 0
1  16 0 3.030251639248829 3.252933667930757
2  18 9 7 3.030251639248829 3.252933667930757
2  19 9 8 3.030251639248829 3.252933667930757
2  20 2 8 3.030251639248829 3.252933667930757
0

0101000
+73 0 -61 0 *
Wi

0101100
+72 0 -60 0 -56 4 +56 6 *
Fa
0  0.000000100000000 9 0

0101000
+55 0 *
Wi

0101100
+69 0 +64 0 +59 0 -56 0 *
Fa
0  0.000000100000000 12 0

0101000
+53 10 *
Sh

0101100
+67 0 +62 0 +57 0 -54 0 +52 9 -52 11 *
So

0100000
-51 0 *
Ve
0.000000100000000
447.213595499957989 -49.999999999999908 0.000000000000000
0 0

0101101
*
Ed
 0.000000100000000 1 1 0
1  17 0 0.000000000000000 500.000000000000000
2  21 13 0 0.000000000000000 500.000000000000000
0

0101000
+49 4 -49 6 *
Ve
0.000000100000000
447.213595499957989 49.999999999999694 0.000000000000000
0 0

0101101
*
Ed
 0.000000100000000 1 1 0
1  18 0 0.000000000000000 500.000000000000000
2  22 13 0 0.000000000000000 500.000000000000000
0

0101000
+47 4 -47 6 *
Ed
 0.000000100000000 1 1 0
1  19 0 6.171844292838623 6.394526321520550
2  23 13 7 6.171844292838623 6.394526321520550
2  24 13 8 6.171844292838623 6.394526321520550
2  25 2 8 6.171844292838623 6.394526321520550
0

0101000
+49 0 -47 0 *
Wi

0101100
+48 0 -46 0 -45 4 +45 6 *
Fa
0  0.000000100000000 13 0

0101000
+44 0 *
Ve
0.000000100000078
497.493718553309975 49.999999999999773 0.000000000000000
0 0

0101101
*
Ed
 0.000000100000078 1 1 0
1  20 0 0.000000000000000 500.000000000000000
2  26 15 0 0.000000000000000 500.000000000000000
0

0101000
+42 4 -42 6 *
Ed
 0.000000100000000 1 1 0
1  21 0 0.000000000000000 50.280123053351986
0

0101000
+42 0 -47 0 *
Wi

0101100
+41 0 -46 0 -40 4 +40 6 *
Fa
0  0.000000100000000 14 0

0101000
+39 0 *
Ve
0.000000100000000
497.493718553309975 -50.000000000000092 0.000000000000000
0 0

0101101
*
Ed
 0.000000100000000 1 1 0
1  22 0 0.000000000000000 500.000000000000000
2  27 15 0 0.000000000000000 500.000000000000000
0

0101000
+37 4 -37 6 *
Ed
 0.000000100000000 1 1 0
1  23 0 6.183017886018026 6.383352728341146
2  28 15 7 6.183017886018026 6.383352728341146
2  29 15 8 6.183017886018026 6.383352728341146
2  30 5 8 6.183017886018026 6.383352728341146
0

0101000
+37 0 -42 0 *
Wi

0101100
+36 0 -41 0 -35 4 +35 6 *
Fa
0  0.000000100000000 15 0

0101000
+34 0 *
Ed
 0.000000100000000 1 1 0
1  24 0 0.000000000000000 50.280123053351986
0

0101000
+49 0 -37 0 *
Wi

0101100
+48 0 -36 0 -32 4 +32 6 *
Fa
0  0.000000100000000 16 0

0101000
+31 0 *
Wi

0101100
+45 0 -40 0 -35 0 -32 0 *
Fa
0  0.000000100000000 17 0

0101000
-29 10 *
Sh

0101100
-43 0 +38 0 +33 0 +30 0 +28 9 -28 11 *
So

0100000
-27 0 *
Ve
0.000000100000000
-49.999999999999879 -447.213595499957989 0.000000000000000
0 0

0101101
*
Ed
 0.000000100000000 1 1 0
1  25 0 0.000000000000000 500.000000000000000
2  31 19 0 0.000000000000000 500.000000000000000
0

0101000
+25 4 -25 6 *
Ve
0.000000100000000
-50.000000000000064 -497.493718553309975 0.000000000000000
0 0

0101101
*
Ed
 0.000000100000000 1 1 0
1  26 0 0.000000000000000 500.000000000000000
2  32 20 0 0.000000000000000 500.000000000000000
0

0101000
+23 4 -23 6 *
Ed
 0.000000100000000 1 1 0
1  27 0 0.000000000000000 50.280123053351986
0

0101000
+25 0 -23 0 *
Wi

0101100
+24 0 -22 0 -21 4 +21 6 *
Fa
0  0.000000100000000 18 0

0101000
+20 0 *
Ve
0.000000100000000
49.999999999999886 -497.493718553309975 0.000000000000000
0 0

0101101
*
Ed
 0.000000100000000 1 1 0
1  28 0 0.000000000000000 500.000000000000000
2  33 20 0 0.000000000000000 500.000000000000000
0

0101000
+18 4 -18 6 *
Ed
 0.000000100000000 1 1 0
1  29 0 4.612221559223130 4.812556401546249
2  34 20 7 4.612221559223130 4.812556401546249
2  35 20 8 4.612221559223130 4.812556401546249
2  36 5 8 4.612221559223130 4.812556401546249
0

0101000
+23 0 -18 0 *
Wi

0101100
+22 0 -17 0 -16 4 +16 6 *
Fa
0  0.000000100000000 20 0

0101000
+15 0 *
Ve
0.000000100000085
49.999999999999801 -447.213595499957989 0.000000000000000
0 0

0101101
*
Ed
 0.000000100000085 1 1 0
1  30 0 0.000000000000000 500.000000000000000
2  37 19 0 0.000000000000000 500.000000000000000
0

0101000
+13 4 -13 6 *
Ed
 0.000000100000000 1 1 0
1  31 0 0.000000000000000 50.280123053351986
0

0101000
+18 0 -13 0 *
Wi

0101100
+17 0 -12 0 -11 4 +11 6 *
Fa
0  0.000000100000000 21 0

0101000
+10 0 *
Ed
 0.000000100000000 1 1 0
1  32 0 4.601047966043726 4.823729994725653
2  38 19 7 4.601047966043726 4.823729994725653
2  39 19 8 4.601047966043726 4.823729994725653
2  40 2 8 4.601047966043726 4.823729994725653
0

0101000
+25 0 -13 0 *
Wi

0101100
+24 0 -12 0 -8 4 +8 6 *
Fa
0  0.000000100000000 19 0

0101000
+7 0 *
Wi

0101100
+21 0 +16 0 +11 0 -8 0 *
Fa
0  0.000000100000000 22 0

0101000
+5 10 *
Sh

0101100
+19 0 +14 0 +9 0 -6 0 +4 9 -4 11 *
So

0100000
-3 0 *
Co

1100000
+74 0 +50 0 +26 0 +2 0 *

+1 0 