
CASCADE Topology V1, (c) Matra-Datavision
Locations 61
1
1.000000000000000 0.000000000000000 0.000000000000000 0.000000000000000 
0.000000000000000 1.000000000000000 0.000000000000000 0.000000000000000 
0.000000000000000 0.000000000000000 1.000000000000000 0.000000000000000 
1
1.000000000000000 0.000000000000000 0.000000000000000 0.000000000000000 
0.000000000000000 1.000000000000000 0.000000000000000 0.000000000000000 
0.000000000000000 0.000000000000000 1.000000000000000 0.000000000000000 
1
1.000000000000000 0.000000000000000 0.000000000000000 0.000000000000000 
0.000000000000000 1.000000000000000 0.000000000000000 0.000000000000000 
0.000000000000000 0.000000000000000 1.000000000000000 0.000000000000000 
1
1.000000000000000 0.000000000000000 0.000000000000000 0.000000000000000 
0.000000000000000 1.000000000000000 0.000000000000000 0.000000000000000 
0.000000000000000 0.000000000000000 1.000000000000000 0.000000000000000 
1
1.000000000000000 0.000000000000000 0.000000000000000 0.000000000000000 
0.000000000000000 1.000000000000000 0.000000000000000 0.000000000000000 
0.000000000000000 0.000000000000000 1.000000000000000 0.000000000000000 
1
1.000000000000000 0.000000000000000 0.000000000000000 0.000000000000000 
0.000000000000000 1.000000000000000 0.000000000000000 0.000000000000000 
0.000000000000000 0.000000000000000 1.000000000000000 0.000000000000000 
1
1.000000000000000 0.000000000000000 0.000000000000000 0.000000000000000 
0.000000000000000 1.000000000000000 0.000000000000000 0.000000000000000 
0.000000000000000 0.000000000000000 1.000000000000000 0.000000000000000 
1
1.000000000000000 0.000000000000000 0.000000000000000 0.000000000000000 
0.000000000000000 1.000000000000000 0.000000000000000 0.000000000000000 
0.000000000000000 0.000000000000000 1.000000000000000 0.000000000000000 
2  2 1 3 -1 4 1 5 1 6 -1 7 1 8 1 0
1
1.000000000000000 0.000000000000000 0.000000000000000 0.000000000000000 
0.000000000000000 1.000000000000000 0.000000000000000 0.000000000000000 
0.000000000000000 0.000000000000000 1.000000000000000 0.000000000000000 
1
1.000000000000000 0.000000000000000 0.000000000000000 -0.000000000000000 
0.000000000000000 1.000000000000000 0.000000000000000 -0.000000000000000 
0.000000000000000 0.000000000000000 1.000000000000000 -250.000000000000000 
1
1.000000000000000 0.000000000000000 0.000000000000000 0.000000000000000 
0.000000000000000 1.000000000000000 0.000000000000000 0.000000000000000 
0.000000000000000 0.000000000000000 1.000000000000000 0.000000000000000 
1
1.000000000000000 0.000000000000000 0.000000000000000 0.000000000000000 
0.000000000000000 1.000000000000000 0.000000000000000 0.000000000000000 
0.000000000000000 0.000000000000000 1.000000000000000 0.000000000000000 
2  10 -1 11 1 12 1 13 -1 0
2  8 -1 7 -1 6 1 5 -1 4 -1 3 1 2 -1 0
1
1.000000000000000 0.000000000000000 0.000000000000000 0.000000000000000 
0.000000000000000 1.000000000000000 0.000000000000000 0.000000000000000 
0.000000000000000 0.000000000000000 1.000000000000000 0.000000000000000 
2  16 -1 0
1
1.000000000000000 0.000000000000000 0.000000000000000 0.000000000000000 
0.000000000000000 1.000000000000000 0.000000000000000 0.000000000000000 
0.000000000000000 0.000000000000000 1.000000000000000 0.000000000000000 
1
1.000000000000000 0.000000000000000 0.000000000000000 0.000000000000000 
0.000000000000000 -1.000000000000000 0.000000000000000 0.000000000000000 
0.000000000000000 0.000000000000000 -1.000000000000000 -250.000000000000000 
2  18 1 19 1 13 -1 0
2  13 1 19 -1 18 -1 0
2  16 -1 8 -1 7 -1 6 1 5 -1 4 -1 3 1 2 -1 13 1 19 -1 18 -1 0
2  12 1 13 -1 2 1 3 -1 4 1 5 1 6 -1 7 1 8 1 0
2  4 1 5 1 6 -1 7 1 8 1 0
2  2 1 3 -1 0
2  4 -1 0
2  2 1 3 -1 4 1 0
2  16 -1 8 -1 7 -1 6 1 5 -1 4 -1 3 1 2 -1 0
2  16 -1 8 -1 7 -1 6 1 5 -1 0
2  18 1 19 1 13 -1 2 1 3 -1 4 1 0
2  8 -1 7 -1 6 1 5 -1 4 -1 3 1 2 -1 13 1 12 -1 0
2  16 -1 8 -1 7 -1 6 1 5 -1 4 -1 3 1 2 -1 13 1 12 -1 0
2  5 1 6 -1 7 1 8 1 0
2  3 -1 0
1
1.000000000000000 0.000000000000000 0.000000000000000 0.000000000000000 
0.000000000000000 1.000000000000000 0.000000000000000 0.000000000000000 
0.000000000000000 0.000000000000000 1.000000000000000 0.000000000000000 
1
1.000000000000000 0.000000000000000 0.000000000000000 0.000000000000000 
0.000000000000000 -1.000000000000000 0.000000000000000 0.000000000000000 
0.000000000000000 0.000000000000000 -1.000000000000000 -750.000000000000000 
2  35 1 36 1 3 -1 0
2  3 1 36 -1 35 -1 0
2  16 -1 8 -1 7 -1 6 1 5 -1 4 -1 3 1 36 -1 35 -1 0
1
1.000000000000000 0.000000000000000 0.000000000000000 0.000000000000000 
0.000000000000000 1.000000000000000 0.000000000000000 0.000000000000000 
0.000000000000000 0.000000000000000 1.000000000000000 500.000000000000000 
2  10 -1 11 1 40 1 12 1 13 -1 2 1 3 -1 4 1 5 1 6 -1 7 1 8 1 0
2  8 -1 7 -1 6 1 5 -1 4 -1 3 1 2 -1 13 1 12 -1 40 -1 11 -1 10 1 0
2  16 -1 8 -1 7 -1 6 1 5 -1 4 -1 0
1
1.000000000000000 0.000000000000000 0.000000000000000 0.000000000000000 
0.000000000000000 1.000000000000000 0.000000000000000 0.000000000000000 
0.000000000000000 0.000000000000000 1.000000000000000 -10.000000000000000 
2  35 1 36 1 3 -1 44 1 0
2  44 -1 3 1 36 -1 35 -1 0
2  16 -1 8 -1 7 -1 6 1 5 -1 4 -1 44 -1 3 1 36 -1 35 -1 0
2  7 1 8 1 0
2  3 -1 44 1 4 1 5 1 6 -1 0
2  7 -1 0
2  16 -1 8 -1 0
2  35 1 36 1 3 -1 44 1 4 1 5 1 6 -1 0
2  16 -1 8 -1 7 -1 0
1
1.000000000000000 0.000000000000000 0.000000000000000 0.000000000000000 
0.000000000000000 1.000000000000000 0.000000000000000 0.000000000000000 
0.000000000000000 0.000000000000000 1.000000000000000 0.000000000000000 
1
1.000000000000000 0.000000000000000 0.000000000000000 0.000000000000000 
0.000000000000000 -1.000000000000000 0.000000000000000 0.000000000000000 
0.000000000000000 0.000000000000000 -1.000000000000000 -760.000000000000114 
1
1.000000000000000 0.000000000000000 0.000000000000000 0.000000000000000 
0.000000000000000 1.000000000000000 0.000000000000000 0.000000000000000 
0.000000000000000 0.000000000000000 1.000000000000000 500.000000000000000 
2  54 1 55 1 6 -1 56 1 7 1 0
2  56 -1 6 1 55 -1 54 -1 0
2  16 -1 8 -1 7 -1 56 -1 6 1 55 -1 54 -1 0
2  6 -1 56 1 7 1 8 1 0
2  54 1 55 1 0
Curve2ds 32
1 0.00000000000000000 -141.42135623730951011 1.00000000000000000 0.00000000000000000 
1 0.00000000000000000 0.00000000000000000 1.00000000000000000 0.00000000000000000 
1 6.28318530717958623 0.00000000000000000 0.00000000000000000 1.00000000000000000 
1 0.00000000000000000 0.00000000000000000 0.00000000000000000 1.00000000000000000 
1 0.00000000000000000 0.00000000000000000 1.00000000000000000 0.00000000000000000 
1 0.00000000000000000 -100.00000000000000000 1.00000000000000000 0.00000000000000000 
1 0.00000000000000000 0.00000000000000000 0.00000000000000000 -1.00000000000000000 
1 6.28318530717958623 0.00000000000000000 0.00000000000000000 -1.00000000000000000 
1 0.00000000000000000 -1.00000000000000000 1.00000000000000000 0.00000000000000000 
1 0.00000000000000000 0.00000000000000000 1.00000000000000000 0.00000000000000000 
1 0.00000000000000000 0.00000000000000000 0.00000000000000000 -1.00000000000000000 
1 6.28318530717958623 0.00000000000000000 0.00000000000000000 -1.00000000000000000 
1 0.00000000000000000 -400.00000000000000000 1.00000000000000000 0.00000000000000000 
1 0.00000000000000000 0.00000000000000000 1.00000000000000000 0.00000000000000000 
1 6.28318530717958623 0.00000000000000000 0.00000000000000000 1.00000000000000000 
1 0.00000000000000000 0.00000000000000000 0.00000000000000000 1.00000000000000000 
1 0.00000000000000000 557.67553290421483325 1.00000000000000000 0.00000000000000000 
1 6.28318530717958623 0.00000000000000000 0.00000000000000000 1.00000000000000000 
1 0.00000000000000000 0.00000000000000000 0.00000000000000000 1.00000000000000000 
1 0.00000000000000000 141.42135623730951011 1.00000000000000000 0.00000000000000000 
1 0.00000000000000000 0.00000000000000000 1.00000000000000000 0.00000000000000000 
1 0.00000000000000000 0.00000000000000000 0.00000000000000000 -1.00000000000000000 
1 6.28318530717958623 0.00000000000000000 0.00000000000000000 -1.00000000000000000 
1 0.00000000000000000 -10.00000000000000000 1.00000000000000000 0.00000000000000000 
1 0.00000000000000000 -566.41415942753405943 1.00000000000000000 0.00000000000000000 
1 6.28318530717958623 0.00000000000000000 0.00000000000000000 1.00000000000000000 
1 0.00000000000000000 0.00000000000000000 0.00000000000000000 1.00000000000000000 
1 0.00000000000000000 0.00000000000000000 1.00000000000000000 0.00000000000000000 
1 0.00000000000000000 -499.00000000000000000 1.00000000000000000 0.00000000000000000 
1 0.00000000000000000 0.00000000000000000 0.00000000000000000 -1.00000000000000000 
1 6.28318530717958623 0.00000000000000000 0.00000000000000000 -1.00000000000000000 
1 0.00000000000000000 -500.00000000000000000 1.00000000000000000 0.00000000000000000 
Curves 20
2 0.00000000000000000 0.00000000000000000 -250.00000000000000000 0.00000000000000000 0.00000000000000000 1.00000000000000000 1.00000000000000000 0.00000000000000000 0.00000000000000000 0.00000000000000000 1.00000000000000000 0.00000000000000000 300.00000000000000000
2 0.00000000000000000 0.00000000000000000 0.00000000000000000 0.00000000000000000 0.00000000000000000 1.00000000000000000 1.00000000000000000 0.00000000000000000 0.00000000000000000 0.00000000000000000 1.00000000000000000 0.00000000000000000 125.00000000000000000
1 400.00000000000000000 0.00000000000000000 -150.00000000000000000 0.70710678118654757 0.00000000000000000 0.70710678118654746 
2 0.00000000000000000 0.00000000000000000 -150.00000000000000000 0.00000000000000000 0.00000000000000000 1.00000000000000000 1.00000000000000000 0.00000000000000000 0.00000000000000000 0.00000000000000000 1.00000000000000000 0.00000000000000000 400.00000000000000000
1 125.00000000000000000 0.00000000000000000 -250.00000000000000000 0.00000000000000000 0.00000000000000000 -1.00000000000000000 
2 0.00000000000000000 0.00000000000000000 -251.00000000000011369 0.00000000000000000 0.00000000000000000 -1.00000000000000000 1.00000000000000000 0.00000000000000000 0.00000000000000000 0.00000000000000000 -1.00000000000000000 0.00000000000000000 125.00000000000000000
1 400.00000000000000000 0.00000000000000000 -250.00000000000000000 0.00000000000000000 0.00000000000000000 1.00000000000000000 
2 0.00000000000000000 0.00000000000000000 150.00000000000000000 0.00000000000000000 0.00000000000000000 1.00000000000000000 1.00000000000000000 0.00000000000000000 0.00000000000000000 0.00000000000000000 1.00000000000000000 0.00000000000000000 400.00000000000000000
1 125.00000000000000000 0.00000000000000000 -251.00000000000011369 0.44649618874846303 0.00000000000000000 -0.89478553488145796 
2 0.00000000000000000 0.00000000000000000 -750.00000000000011369 0.00000000000000000 0.00000000000000000 -1.00000000000000000 1.00000000000000000 0.00000000000000000 0.00000000000000000 0.00000000000000000 -1.00000000000000000 0.00000000000000000 374.00000000000000000
1 400.00000000000000000 0.00000000000000000 150.00000000000000000 -0.70710678118654757 0.00000000000000000 0.70710678118654746 
2 0.00000000000000000 0.00000000000000000 250.00000000000000000 0.00000000000000000 0.00000000000000000 1.00000000000000000 1.00000000000000000 0.00000000000000000 0.00000000000000000 0.00000000000000000 1.00000000000000000 0.00000000000000000 300.00000000000000000
2 0.00000000000000000 0.00000000000000000 0.00000000000000000 0.00000000000000000 0.00000000000000000 1.00000000000000000 1.00000000000000000 0.00000000000000000 0.00000000000000000 0.00000000000000000 1.00000000000000000 0.00000000000000000 375.00000000000000000
1 375.00000000000000000 0.00000000000000000 -750.00000000000000000 0.00000000000000000 0.00000000000000000 -1.00000000000000000 
2 0.00000000000000000 0.00000000000000000 0.00000000000000000 0.00000000000000000 0.00000000000000000 1.00000000000000000 1.00000000000000000 0.00000000000000000 0.00000000000000000 0.00000000000000000 1.00000000000000000 0.00000000000000000 375.00000000000000000
2 0.00000000000000000 0.00000000000000000 -760.00000000000011369 0.00000000000000000 0.00000000000000000 -1.00000000000000000 1.00000000000000000 0.00000000000000000 0.00000000000000000 0.00000000000000000 -1.00000000000000000 0.00000000000000000 368.00000000000000000
1 100.00000000000000000 0.00000000000000000 -261.00000000000011369 -0.47315201348579183 0.00000000000000000 0.88098080122914213 
2 0.00000000000000000 0.00000000000000000 -261.00000000000011369 0.00000000000000000 0.00000000000000000 -1.00000000000000000 1.00000000000000000 0.00000000000000000 0.00000000000000000 0.00000000000000000 -1.00000000000000000 0.00000000000000000 100.00000000000000000
1 100.00000000000000000 0.00000000000000000 -760.00000000000011369 0.00000000000000000 0.00000000000000000 1.00000000000000000 
2 0.00000000000000000 0.00000000000000000 0.00000000000000000 0.00000000000000000 0.00000000000000000 1.00000000000000000 1.00000000000000000 0.00000000000000000 0.00000000000000000 0.00000000000000000 1.00000000000000000 0.00000000000000000 100.00000000000000000
Polygon3D 0
PolygonOnTriangulations 0
Surfaces 13
1 -0.00000000000001400 0.00000000000002568 0.00000000000000000 0.00000000000000000 0.00000000000000000 1.00000000000000000 1.00000000000000000 0.00000000000000000 0.00000000000000000 0.00000000000000000 1.00000000000000000 0.00000000000000000 
3 0.00000000000000000 0.00000000000000000 -150.00000000000000000 0.00000000000000000 0.00000000000000000 1.00000000000000000 1.00000000000000000 0.00000000000000000 0.00000000000000000 0.00000000000000000 1.00000000000000000 0.00000000000000000 400.00000000000000000
0.78539816339744839
2 0.00000000000000000 0.00000000000000000 -250.00000000000000000 0.00000000000000000 0.00000000000000000 1.00000000000000000 1.00000000000000000 0.00000000000000000 0.00000000000000000 0.00000000000000000 -1.00000000000000000 0.00000000000000000 125.00000000000000000
2 0.00000000000000000 0.00000000000000000 -250.00000000000000000 -0.00000000000000000 -0.00000000000000000 -1.00000000000000000 1.00000000000000000 0.00000000000000000 0.00000000000000000 0.00000000000000000 1.00000000000000000 0.00000000000000000 400.00000000000000000
3 0.00000000000000000 0.00000000000000000 -251.00000000000011369 -0.00000000000000000 -0.00000000000000000 -1.00000000000000000 1.00000000000000000 0.00000000000000000 0.00000000000000000 0.00000000000000000 -1.00000000000000000 0.00000000000000000 125.00000000000000000
0.46284568455362163
3 0.00000000000000000 0.00000000000000000 150.00000000000000000 0.00000000000000000 0.00000000000000000 1.00000000000000000 1.00000000000000000 0.00000000000000000 0.00000000000000000 0.00000000000000000 1.00000000000000000 0.00000000000000000 400.00000000000000000
-0.78539816339744839
1 -0.00000000000001494 0.00000000000000037 -750.00000000000011369 0.00000000000000000 0.00000000000000000 1.00000000000000000 1.00000000000000000 0.00000000000000000 0.00000000000000000 0.00000000000000000 1.00000000000000000 0.00000000000000000 
2 0.00000000000000000 0.00000000000000000 -750.00000000000000000 0.00000000000000000 0.00000000000000000 1.00000000000000000 1.00000000000000000 0.00000000000000000 0.00000000000000000 0.00000000000000000 -1.00000000000000000 0.00000000000000000 375.00000000000000000
1 -0.00000000000001400 0.00000000000002568 0.00000000000000000 0.00000000000000000 0.00000000000000000 1.00000000000000000 1.00000000000000000 0.00000000000000000 0.00000000000000000 0.00000000000000000 1.00000000000000000 0.00000000000000000 
1 -0.00000000000001494 0.00000000000000037 -750.00000000000011369 0.00000000000000000 0.00000000000000000 1.00000000000000000 1.00000000000000000 0.00000000000000000 0.00000000000000000 0.00000000000000000 1.00000000000000000 0.00000000000000000 
3 0.00000000000000000 0.00000000000000000 -261.00000000000011369 0.00000000000000000 0.00000000000000000 1.00000000000000000 1.00000000000000000 0.00000000000000000 0.00000000000000000 0.00000000000000000 -1.00000000000000000 0.00000000000000000 100.00000000000000000
-0.49286520049609872
2 0.00000000000000000 0.00000000000000000 -760.00000000000011369 0.00000000000000000 0.00000000000000000 -1.00000000000000000 1.00000000000000000 0.00000000000000000 0.00000000000000000 0.00000000000000000 -1.00000000000000000 0.00000000000000000 100.00000000000000000
1 -0.00000000000000350 -0.00000000000000642 -760.00000000000011369 0.00000000000000000 0.00000000000000000 1.00000000000000000 1.00000000000000000 0.00000000000000000 0.00000000000000000 0.00000000000000000 1.00000000000000000 0.00000000000000000 
Triangulations 0

TShapes 63
Ve
0.000000100000000
300.000000000000000 0.000000000000000 -250.000000000000000
0 0

0101101
*
Ed
 0.000000100000000 1 1 0
1  1 0 0.000000000000000 6.283185307179586
2  1 2 0 0.000000000000000 6.283185307179586
0

0101000
+63 17 -63 17 *
Wi

0101100
+62 0 *
Ve
0.000000100000000
125.000000000000000 0.000000000000000 -250.000000000000000
0 0

0101101
*
Ed
 0.000000100000000 1 1 0
1  2 0 0.000000000000000 6.283185307179586
2  2 3 21 0.000000000000000 6.283185307179586
0

0101000
+60 22 -60 22 *
Wi

0101100
+59 20 *
Fa
0  0.000000100000000 1 14

0111000
+61 15 +58 0 *
Ve
0.000000100000000
400.000000000000000 0.000000000000000 -150.000000000000000
0 0

0101101
*
Ed
 0.000000100000000 1 1 0
1  3 0 -141.421356237309510 0.000000000000000
3  3 4CN 2 0 -141.421356237309510 0.000000000000000
0

0101000
+63 17 -56 17 *
Ed
 0.000000100000000 1 1 0
1  4 0 0.000000000000000 6.283185307179586
2  5 2 0 0.000000000000000 6.283185307179586
2  6 4 23 0.000000000000000 6.283185307179586
0

0101000
+56 17 -56 17 *
Wi

0101100
-55 0 +62 0 -54 0 +55 0 *
Fa
0  0.000000100000000 2 0

0111000
+53 0 *
Ve
0.000000100000000
125.000000000000000 0.000000000000000 -251.000000000000114
0 0

0101101
*
Ed
 0.000000100000000 1 1 0
1  5 0 0.000000000000000 1.000000000000000
3  7 8CN 3 0 0.000000000000000 1.000000000000000
0

0101000
-51 28 +60 28 *
Ed
 0.000000100000000 1 1 0
1  6 0 0.000000000000000 6.283185307179586
2  9 3 27 0.000000000000000 6.283185307179586
2  10 5 0 0.000000000000000 6.283185307179586
0

0101000
+51 29 -51 29 *
Wi

0101100
+50 27 +49 0 -59 30 -50 27 *
Fa
0  0.000000100000000 3 25

0111000
+48 26 *
Ve
0.000000100000000
400.000000000000000 0.000000000000000 150.000000000000000
0 0

0101101
*
Ed
 0.000000100000000 1 1 0
1  7 0 100.000000000000000 400.000000000000000
3  11 12CN 4 0 100.000000000000000 400.000000000000000
0

0101000
+56 32 -46 32 *
Ed
 0.000000100000000 1 1 0
1  8 0 0.000000000000000 6.283185307179586
2  13 4 23 0.000000000000000 6.283185307179586
2  14 6 0 0.000000000000000 6.283185307179586
0

0101000
+46 17 -46 17 *
Wi

0101100
+45 23 -54 0 +44 0 -45 23 *
Fa
0  0.000000100000000 4 0

0111000
+43 31 *
Ve
0.000000100000000
374.000000000000000 0.000000000000000 -750.000000000000114
0 0

0101101
*
Ed
 0.000000100000000 1 1 0
1  9 0 0.000000000000000 557.675532904214833
3  15 16CN 5 0 0.000000000000000 557.675532904214833
0

0101000
+51 29 -41 29 *
Ed
 0.000000100000000 1 1 0
1  10 0 0.000000000000000 6.283185307179586
2  17 5 0 0.000000000000000 6.283185307179586
0

0101000
+41 29 -41 29 *
Wi

0101100
-40 0 +49 0 -39 0 +40 0 *
Fa
0  0.000000100000000 5 0

0111000
+38 0 *
Ve
0.000000100000000
300.000000000000000 0.000000000000000 250.000000000000000
0 0

0101101
*
Ed
 0.000000100000000 1 1 0
1  11 0 0.000000000000000 141.421356237309510
3  18 19CN 6 0 0.000000000000000 141.421356237309510
0

0101000
+46 17 -36 17 *
Ed
 0.000000100000000 1 1 0
1  12 0 0.000000000000000 6.283185307179586
2  20 6 0 0.000000000000000 6.283185307179586
0

0101000
+36 17 -36 17 *
Wi

0101100
-35 0 +44 0 -34 0 +35 0 *
Fa
0  0.000000100000000 6 0

0111000
+33 0 *
Wi

0101100
+39 0 *
Ve
0.000000100000000
375.000000000000000 0.000000000000000 -750.000000000000000
0 0

0101101
*
Ed
 0.000000100000000 1 1 0
1  13 0 0.000000000000000 6.283185307179586
2  21 8 38 0.000000000000000 6.283185307179586
0

0101100
+30 39 -30 39 *
Wi

0101100
-29 37 *
Fa
0  0.000000100000000 7 34

0111000
+31 26 +28 0 *
Wi

0101100
+34 0 *
Fa
0  0.000000100000000 9 0

0111000
+26 42 *
Ve
0.000000100000000
375.000000000000000 0.000000000000000 -760.000000000000000
0 0

0101101
*
Ed
 0.000000100000000 1 1 0
1  14 0 0.000000000000000 10.000000000000000
3  22 23CN 8 0 0.000000000000000 10.000000000000000
0

0101000
+30 43 -24 43 *
Ed
 0.000000100000000 1 1 0
1  15 0 0.000000000000000 6.283185307179586
2  24 8 46 0.000000000000000 6.283185307179586
0

0101100
+24 47 -24 47 *
Wi

0101100
+23 0 -23 0 -29 37 +22 45 *
Fa
0  0.000000100000000 8 0

0111000
+21 0 *
Ve
0.000000100000000
368.000000000000000 0.000000000000000 -760.000000000000000
0 0

0101101
*
Ed
 0.000000100000000 1 1 0
1  16 0 0.000000000000000 6.283185307179586
2  25 11 0 0.000000000000000 6.283185307179586
0

0101000
+19 51 -19 51 *
Wi

0101100
+18 0 *
Wi

0101100
-22 52 *
Fa
0  0.000000100000000 10 49

0111000
+17 50 +16 0 *
Ve
0.000000100000000
100.000000000000000 0.000000000000000 -261.000000000000114
0 0

0101101
*
Ed
 0.000000100000000 1 1 0
1  17 0 -566.414159427534059 0.000000000000000
3  26 27CN 11 0 -566.414159427534059 0.000000000000000
0

0101000
+19 51 -14 51 *
Ed
 0.000000100000000 1 1 0
1  18 0 0.000000000000000 6.283185307179586
2  28 11 0 0.000000000000000 6.283185307179586
2  29 12 7 0.000000000000000 6.283185307179586
0

0101000
+14 51 -14 51 *
Wi

0101100
-13 0 +18 0 -12 0 +13 0 *
Fa
0  0.000000100000000 11 0

0111000
+11 0 *
Ve
0.000000100000000
100.000000000000000 0.000000000000000 -260.000000000000114
0 0

0101101
*
Ed
 0.000000100000000 1 1 0
1  19 0 499.000000000000000 500.000000000000000
3  30 31CN 12 0 499.000000000000000 500.000000000000000
0

0101000
+14 53 -9 53 *
Ed
 0.000000100000000 1 1 0
1  20 0 0.000000000000000 6.283185307179586
2  32 12 58 0.000000000000000 6.283185307179586
0

0101100
+9 59 -9 59 *
Wi

0101100
+8 7 -12 0 +7 57 -8 7 *
Fa
0  0.000000100000000 12 0

0111000
+6 50 *
Wi

0101100
+7 0 *
Fa
0  0.000000100000000 13 0

0111000
-4 61 *
Sh

0101100
-57 9 +52 0 -47 24 -42 23 +37 33 +32 0 +27 24 +25 41 -20 24 -15 48 
+10 8 -5 48 -3 60 *
So

1100000
+2 0 *

+1 1 