
CASCADE Topology V1, (c) Matra-Datavision
Locations 59
1
1.000000000000000 0.000000000000000 0.000000000000000 0.000000000000000 
0.000000000000000 1.000000000000000 0.000000000000000 0.000000000000000 
0.000000000000000 0.000000000000000 1.000000000000000 0.000000000000000 
1
1.000000000000000 0.000000000000000 0.000000000000000 0.000000000000000 
0.000000000000000 1.000000000000000 0.000000000000000 0.000000000000000 
0.000000000000000 0.000000000000000 1.000000000000000 0.000000000000000 
1
1.000000000000000 0.000000000000000 0.000000000000000 0.000000000000000 
0.000000000000000 1.000000000000000 0.000000000000000 0.000000000000000 
0.000000000000000 0.000000000000000 1.000000000000000 0.000000000000000 
1
1.000000000000000 0.000000000000000 0.000000000000000 0.000000000000000 
0.000000000000000 1.000000000000000 0.000000000000000 0.000000000000000 
0.000000000000000 0.000000000000000 1.000000000000000 -10.000000000000000 
1
1.000000000000000 0.000000000000000 0.000000000000000 0.000000000000000 
0.000000000000000 1.000000000000000 0.000000000000000 0.000000000000000 
0.000000000000000 0.000000000000000 1.000000000000000 0.000000000000000 
1
1.000000000000000 0.000000000000000 0.000000000000000 0.000000000000000 
0.000000000000000 1.000000000000000 0.000000000000000 0.000000000000000 
0.000000000000000 0.000000000000000 1.000000000000000 0.000000000000000 
1
1.000000000000000 0.000000000000000 0.000000000000000 0.000000000000000 
0.000000000000000 1.000000000000000 0.000000000000000 0.000000000000000 
0.000000000000000 0.000000000000000 1.000000000000000 0.000000000000000 
2  3 -1 4 1 5 1 6 1 7 -1 0
2  2 -1 0
2  3 -1 4 1 5 1 6 1 7 -1 2 1 0
1
1.000000000000000 0.000000000000000 0.000000000000000 0.000000000000000 
0.000000000000000 1.000000000000000 0.000000000000000 0.000000000000000 
0.000000000000000 0.000000000000000 1.000000000000000 0.000000000000000 
1
1.000000000000000 0.000000000000000 0.000000000000000 0.000000000000000 
0.000000000000000 -1.000000000000000 0.000000000000000 0.000000000000000 
0.000000000000000 0.000000000000000 -1.000000000000000 -750.000000000000000 
2  11 1 12 1 3 -1 4 1 5 1 6 1 7 -1 0
2  3 1 12 -1 11 -1 0
2  4 -1 3 1 12 -1 11 -1 0
2  5 1 6 1 7 -1 2 1 0
2  11 1 12 1 3 -1 0
2  11 1 12 1 3 -1 4 1 0
1
1.000000000000000 0.000000000000000 0.000000000000000 0.000000000000000 
0.000000000000000 1.000000000000000 0.000000000000000 0.000000000000000 
0.000000000000000 0.000000000000000 1.000000000000000 0.000000000000000 
1
1.000000000000000 0.000000000000000 0.000000000000000 0.000000000000000 
0.000000000000000 -1.000000000000000 0.000000000000000 0.000000000000000 
0.000000000000000 0.000000000000000 -1.000000000000000 -760.000000000000114 
1
1.000000000000000 0.000000000000000 0.000000000000000 0.000000000000000 
0.000000000000000 1.000000000000000 0.000000000000000 0.000000000000000 
0.000000000000000 0.000000000000000 1.000000000000000 500.000000000000000 
2  19 1 20 1 7 -1 21 1 0
2  19 1 20 1 7 -1 21 1 2 1 0
2  7 1 20 -1 19 -1 0
2  21 -1 7 1 20 -1 19 -1 0
2  3 -1 0
2  5 -1 0
2  3 -1 5 1 0
2  7 -1 21 1 2 1 0
2  19 1 20 1 0
2  6 1 7 -1 2 1 0
1
1.000000000000000 0.000000000000000 0.000000000000000 0.000000000000000 
0.000000000000000 1.000000000000000 0.000000000000000 0.000000000000000 
0.000000000000000 0.000000000000000 1.000000000000000 0.000000000000000 
2  32 1 3 -1 5 1 0
2  32 1 3 -1 0
2  5 -1 3 1 32 -1 0
1
1.000000000000000 0.000000000000000 0.000000000000000 0.000000000000000 
0.000000000000000 1.000000000000000 0.000000000000000 0.000000000000000 
0.000000000000000 0.000000000000000 1.000000000000000 0.000000000000000 
1
1.000000000000000 0.000000000000000 0.000000000000000 0.000000000000000 
0.000000000000000 -1.000000000000000 0.000000000000000 0.000000000000000 
0.000000000000000 0.000000000000000 -1.000000000000000 -250.000000000000000 
1
1.000000000000000 0.000000000000000 0.000000000000000 0.000000000000000 
0.000000000000000 1.000000000000000 0.000000000000000 0.000000000000000 
0.000000000000000 0.000000000000000 1.000000000000000 0.000000000000000 
2  36 1 37 1 38 -1 32 1 3 -1 5 1 0
2  38 1 37 -1 36 -1 0
1
1.000000000000000 0.000000000000000 0.000000000000000 0.000000000000000 
0.000000000000000 1.000000000000000 0.000000000000000 0.000000000000000 
0.000000000000000 0.000000000000000 1.000000000000000 -500.000000000000000 
2  41 -1 38 1 37 -1 36 -1 0
2  32 1 3 -1 5 1 6 1 7 -1 2 1 0
1
1.000000000000000 0.000000000000000 0.000000000000000 0.000000000000000 
0.000000000000000 1.000000000000000 0.000000000000000 0.000000000000000 
0.000000000000000 0.000000000000000 1.000000000000000 0.000000000000000 
1
1.000000000000000 0.000000000000000 0.000000000000000 -0.000000000000000 
0.000000000000000 1.000000000000000 0.000000000000000 -0.000000000000000 
0.000000000000000 0.000000000000000 1.000000000000000 -250.000000000000000 
1
1.000000000000000 0.000000000000000 0.000000000000000 0.000000000000000 
0.000000000000000 1.000000000000000 0.000000000000000 0.000000000000000 
0.000000000000000 0.000000000000000 1.000000000000000 0.000000000000000 
2  44 -1 45 1 46 1 38 -1 0
1
1.000000000000000 0.000000000000000 0.000000000000000 0.000000000000000 
0.000000000000000 1.000000000000000 0.000000000000000 0.000000000000000 
0.000000000000000 0.000000000000000 1.000000000000000 0.000000000000000 
1
1.000000000000000 0.000000000000000 0.000000000000000 0.000000000000000 
0.000000000000000 1.000000000000000 0.000000000000000 0.000000000000000 
0.000000000000000 0.000000000000000 1.000000000000000 0.000000000000000 
2  48 1 49 1 44 -1 45 1 46 1 38 -1 0
2  45 -1 44 1 49 -1 48 -1 0
1
1.000000000000000 0.000000000000000 0.000000000000000 0.000000000000000 
0.000000000000000 1.000000000000000 0.000000000000000 0.000000000000000 
0.000000000000000 0.000000000000000 1.000000000000000 500.000000000000000 
2  52 -1 45 -1 44 1 49 -1 48 -1 0
2  36 1 37 1 38 -1 0
2  46 1 38 -1 32 1 3 -1 5 1 6 1 7 -1 2 1 0
2  48 1 49 1 44 -1 45 1 0
2  48 1 49 1 44 -1 45 1 52 1 0
2  44 -1 45 1 52 1 46 1 38 -1 32 1 3 -1 5 1 6 1 7 -1 2 1 0
2  48 1 49 1 0
Curve2ds 28
1 0.00000000000000000 -566.41415942753405943 1.00000000000000000 0.00000000000000000 
2 0.00000000000001494 -0.00000000000000037 1.00000000000000000 0.00000000000000000 0.00000000000000000 -1.00000000000000000 368.00000000000000000
1 0.00000000000000000 0.00000000000000000 1.00000000000000000 0.00000000000000000 
1 0.00000000000000000 -10.00000000000000000 1.00000000000000000 0.00000000000000000 
8 -566.41415942753405943 0.00000000000000000
1 6.28318530717958623 0.00000000000000000 0.00000000000000000 1.00000000000000000 
8 -566.41415942753405943 0.00000000000000000
1 0.00000000000000000 0.00000000000000000 0.00000000000000000 1.00000000000000000 
1 0.00000000000000000 0.00000000000000000 1.00000000000000000 0.00000000000000000 
1 0.00000000000000000 -499.00000000000000000 1.00000000000000000 0.00000000000000000 
1 0.00000000000000000 0.00000000000000000 0.00000000000000000 -1.00000000000000000 
1 6.28318530717958623 0.00000000000000000 0.00000000000000000 -1.00000000000000000 
1 0.00000000000000000 0.00000000000000000 0.00000000000000000 -1.00000000000000000 
1 6.28318530717958623 0.00000000000000000 0.00000000000000000 -1.00000000000000000 
1 0.00000000000000000 0.00000000000000000 1.00000000000000000 0.00000000000000000 
1 0.00000000000000000 -500.00000000000000000 1.00000000000000000 0.00000000000000000 
1 0.00000000000000000 557.67553290421483325 1.00000000000000000 0.00000000000000000 
2 0.00000000000001494 -0.00000000000000037 1.00000000000000000 0.00000000000000000 0.00000000000000000 -1.00000000000000000 374.00000000000000000
8 0.00000000000000000 557.67553290421483325
1 6.28318530717958623 0.00000000000000000 0.00000000000000000 1.00000000000000000 
8 0.00000000000000000 557.67553290421483325
1 0.00000000000000000 0.00000000000000000 0.00000000000000000 1.00000000000000000 
1 0.00000000000000000 0.00000000000000000 1.00000000000000000 0.00000000000000000 
1 0.00000000000000000 -1.00000000000000000 1.00000000000000000 0.00000000000000000 
1 0.00000000000000000 0.00000000000000000 0.00000000000000000 -1.00000000000000000 
1 6.28318530717958623 0.00000000000000000 0.00000000000000000 -1.00000000000000000 
1 0.00000000000000000 0.00000000000000000 1.00000000000000000 0.00000000000000000 
1 0.00000000000000000 -500.00000000000000000 1.00000000000000000 0.00000000000000000 
1 0.00000000000000000 0.00000000000000000 1.00000000000000000 0.00000000000000000 
1 0.00000000000000000 -500.00000000000000000 1.00000000000000000 0.00000000000000000 
1 0.00000000000000000 0.00000000000000000 0.00000000000000000 -1.00000000000000000 
1 6.28318530717958623 0.00000000000000000 0.00000000000000000 -1.00000000000000000 
Curves 14
2 0.00000000000000000 0.00000000000000000 -760.00000000000011369 -0.00000000000000000 -0.00000000000000000 -1.00000000000000000 1.00000000000000000 0.00000000000000000 0.00000000000000000 0.00000000000000000 -1.00000000000000000 0.00000000000000000 368.00000000000000000
2 0.00000000000000000 0.00000000000000000 0.00000000000000000 0.00000000000000000 0.00000000000000000 1.00000000000000000 1.00000000000000000 0.00000000000000000 0.00000000000000000 0.00000000000000000 1.00000000000000000 0.00000000000000000 375.00000000000000000
1 100.00000000000000000 0.00000000000000000 -261.00000000000011369 -0.47315201348579183 0.00000000000000000 0.88098080122914213 
2 0.00000000000000000 0.00000000000000000 -261.00000000000011369 -0.00000000000000000 -0.00000000000000000 -1.00000000000000000 1.00000000000000000 0.00000000000000000 0.00000000000000000 0.00000000000000000 -1.00000000000000000 0.00000000000000000 100.00000000000000000
1 375.00000000000000000 0.00000000000000000 -750.00000000000000000 0.00000000000000000 0.00000000000000000 -1.00000000000000000 
1 100.00000000000000000 0.00000000000000000 -760.00000000000011369 0.00000000000000000 0.00000000000000000 1.00000000000000000 
2 0.00000000000000000 0.00000000000000000 0.00000000000000000 0.00000000000000000 0.00000000000000000 1.00000000000000000 1.00000000000000000 0.00000000000000000 0.00000000000000000 0.00000000000000000 1.00000000000000000 0.00000000000000000 100.00000000000000000
2 0.00000000000000000 0.00000000000000000 -750.00000000000011369 -0.00000000000000000 -0.00000000000000000 -1.00000000000000000 1.00000000000000000 0.00000000000000000 0.00000000000000000 0.00000000000000000 -1.00000000000000000 0.00000000000000000 374.00000000000000000
1 125.00000000000000000 0.00000000000000000 -251.00000000000011369 0.44649618874846303 0.00000000000000000 -0.89478553488145796 
2 0.00000000000000000 0.00000000000000000 -251.00000000000011369 -0.00000000000000000 -0.00000000000000000 -1.00000000000000000 1.00000000000000000 0.00000000000000000 0.00000000000000000 0.00000000000000000 -1.00000000000000000 0.00000000000000000 125.00000000000000000
1 125.00000000000000000 0.00000000000000000 -250.00000000000000000 0.00000000000000000 0.00000000000000000 -1.00000000000000000 
2 0.00000000000000000 0.00000000000000000 0.00000000000000000 0.00000000000000000 0.00000000000000000 1.00000000000000000 1.00000000000000000 0.00000000000000000 0.00000000000000000 0.00000000000000000 1.00000000000000000 0.00000000000000000 125.00000000000000000
2 0.00000000000000000 0.00000000000000000 0.00000000000000000 0.00000000000000000 0.00000000000000000 1.00000000000000000 1.00000000000000000 0.00000000000000000 -0.00000000000000000 -0.00000000000000000 1.00000000000000000 0.00000000000000000 400.00000000000000000
1 400.00000000000000000 0.00000000000000000 -250.00000000000000000 0.00000000000000000 0.00000000000000000 1.00000000000000000 
Polygon3D 0
PolygonOnTriangulations 0
Surfaces 9
1 -0.00000000000001494 0.00000000000000037 -750.00000000000011369 0.00000000000000000 0.00000000000000000 1.00000000000000000 1.00000000000000000 0.00000000000000000 -0.00000000000000000 -0.00000000000000000 1.00000000000000000 0.00000000000000000 
3 0.00000000000000000 0.00000000000000000 -261.00000000000011369 0.00000000000000000 0.00000000000000000 1.00000000000000000 1.00000000000000000 0.00000000000000000 0.00000000000000000 0.00000000000000000 -1.00000000000000000 0.00000000000000000 100.00000000000000000
-0.49286520049609872
2 0.00000000000000000 0.00000000000000000 -750.00000000000000000 -0.00000000000000000 -0.00000000000000000 1.00000000000000000 1.00000000000000000 0.00000000000000000 0.00000000000000000 0.00000000000000000 -1.00000000000000000 0.00000000000000000 375.00000000000000000
2 0.00000000000000000 0.00000000000000000 -760.00000000000011369 0.00000000000000000 0.00000000000000000 -1.00000000000000000 1.00000000000000000 0.00000000000000000 0.00000000000000000 0.00000000000000000 -1.00000000000000000 0.00000000000000000 100.00000000000000000
3 0.00000000000000000 0.00000000000000000 -251.00000000000011369 -0.00000000000000000 -0.00000000000000000 -1.00000000000000000 1.00000000000000000 0.00000000000000000 0.00000000000000000 0.00000000000000000 -1.00000000000000000 0.00000000000000000 125.00000000000000000
0.46284568455362163
1 -0.00000000000000350 -0.00000000000000642 -760.00000000000011369 0.00000000000000000 0.00000000000000000 1.00000000000000000 1.00000000000000000 0.00000000000000000 -0.00000000000000000 -0.00000000000000000 1.00000000000000000 0.00000000000000000 
2 0.00000000000000000 0.00000000000000000 -250.00000000000000000 -0.00000000000000000 -0.00000000000000000 1.00000000000000000 1.00000000000000000 0.00000000000000000 0.00000000000000000 0.00000000000000000 -1.00000000000000000 0.00000000000000000 125.00000000000000000
1 -0.00000000000001400 0.00000000000002568 0.00000000000000000 0.00000000000000000 0.00000000000000000 1.00000000000000000 1.00000000000000000 0.00000000000000000 -0.00000000000000000 -0.00000000000000000 1.00000000000000000 0.00000000000000000 
2 0.00000000000000000 0.00000000000000000 -250.00000000000000000 -0.00000000000000000 -0.00000000000000000 -1.00000000000000000 1.00000000000000000 0.00000000000000000 0.00000000000000000 0.00000000000000000 1.00000000000000000 0.00000000000000000 400.00000000000000000
Triangulations 0

TShapes 49
Ve
0.000000100000000
368.000000000000000 0.000000000000000 -760.000000000000000
0 0

0101101
*
Ed
 0.000000100000000 1 1 0
1  1 0 0.000000000000000 6.283185307179586
2  1 2 0 0.000000000000000 6.283185307179586
2  2 1 10 0.000000000000000 6.283185307179586
0

0101000
+49 0 -49 0 *
Wi

0101100
+48 0 *
Ve
0.000000100000000
375.000000000000000 0.000000000000000 0.000000000000000
0 0

0101101
*
Ed
 0.000000100000000 1 1 0
1  2 0 0.000000000000000 6.283185307179586
2  3 3 14 0.000000000000000 6.283185307179586
2  4 3 15 0.000000000000000 6.283185307179586
0

0101100
+46 0 -46 0 *
Wi

0101100
-45 13 *
Fa
0  0.000000100000000 1 8

0101000
+47 9 +44 0 *
Ve
0.000000100000000
100.000000000000000 0.000000000000000 -261.000000000000114
0 0

0101101
*
Ed
 0.000000100000000 1 1 0
1  3 0 -566.414159427534059 0.000000000000000
3  5 6CN 2 0 -566.414159427534059 0.000000000000000
0

0101000
+49 0 -42 0 *
Ed
 0.000000100000000 1 1 0
1  4 0 0.000000000000000 6.283185307179586
2  7 2 0 0.000000000000000 6.283185307179586
2  8 4 2 0.000000000000000 6.283185307179586
0

0101000
+42 0 -42 0 *
Wi

0101100
-41 0 +48 0 -40 0 +41 0 *
Fa
0  0.000000000000000 2 0

0101000
+39 0 *
Ed
 0.000000100000000 1 1 0
1  5 0 0.000000000000000 10.000000000000000
3  9 10CN 3 0 0.000000000000000 10.000000000000000
0

0101000
+46 17 -46 18 *
Wi

0101100
+37 0 -37 0 -45 17 +45 18 *
Fa
0  0.000000100000000 3 0

0101000
+36 0 *
Ve
0.000000100000000
100.000000000000000 0.000000000000000 0.000000000000000
0 0

0101101
*
Ed
 0.000000100000000 1 1 0
1  6 0 499.000000000000000 500.000000000000000
3  11 12CN 4 0 499.000000000000000 500.000000000000000
0

0101000
+42 9 -34 22 *
Ed
 0.000000100000000 1 1 0
1  7 0 0.000000000000000 6.283185307179586
2  13 4 24 0.000000000000000 6.283185307179586
2  14 4 25 0.000000000000000 6.283185307179586
0

0101100
+34 0 -34 0 *
Wi

0101100
+33 2 -40 0 +32 23 -33 2 *
Fa
0  0.000000100000000 4 0

0101000
+31 9 *
Ve
0.000000100000000
374.000000000000000 0.000000000000000 -750.000000000000114
0 0

0101101
*
Ed
 0.000000100000000 1 1 0
1  8 0 0.000000000000000 6.283185307179586
2  15 5 0 0.000000000000000 6.283185307179586
2  16 1 28 0.000000000000000 6.283185307179586
0

0101000
+29 0 -29 0 *
Wi

0101100
+28 0 *
Wi

0101100
-45 17 *
Fa
0  0.000000100000000 1 26

0101000
+27 27 +26 0 *
Wi

0101100
+32 0 *
Fa
0  0.000000100000000 6 0

0101000
-24 30 *
Ve
0.000000100000000
125.000000000000000 0.000000000000000 -251.000000000000114
0 0

0101101
*
Ed
 0.000000100000000 1 1 0
1  9 0 0.000000000000000 557.675532904214833
3  17 18CN 5 0 0.000000000000000 557.675532904214833
0

0101000
+22 0 -29 0 *
Ed
 0.000000100000000 1 1 0
1  10 0 0.000000000000000 6.283185307179586
2  19 5 0 0.000000000000000 6.283185307179586
2  20 7 33 0.000000000000000 6.283185307179586
0

0101000
+22 0 -22 0 *
Wi

0101100
-21 0 +20 0 -28 0 +21 0 *
Fa
0  0.000000000000000 5 0

0101000
+19 0 *
Ve
0.000000100000000
125.000000000000000 0.000000000000000 -250.000000000000000
0 0

0101101
*
Ed
 0.000000100000000 1 1 0
1  11 0 0.000000000000000 1.000000000000000
3  21 22CN 7 0 0.000000000000000 1.000000000000000
0

0101000
-22 35 +17 0 *
Ed
 0.000000100000000 1 1 0
1  12 0 0.000000000000000 6.283185307179586
2  23 7 40 0.000000000000000 6.283185307179586
2  24 7 42 0.000000000000000 6.283185307179586
0

0101000
+17 40 -17 40 *
Wi

0101100
+16 33 +20 0 -15 39 -16 33 *
Fa
0  0.000000100000000 7 34

0101000
+14 27 *
Ve
0.000000100000000
400.000000000000000 0.000000000000000 0.000000000000000
0 0

0101101
*
Ed
 0.000000100000000 1 1 0
1  13 0 0.000000000000000 6.283185307179586
2  25 9 51 0.000000000000000 6.283185307179586
2  26 9 53 0.000000000000000 6.283185307179586
0

0101100
+12 0 -12 0 *
Wi

0101100
+11 50 *
Wi

0101100
+15 54 *
Fa
0  0.000000100000000 8 47

0101000
+10 0 +9 0 *
Ed
 0.000000100000000 1 1 0
1  14 0 0.000000000000000 500.000000000000000
3  27 28CN 9 0 0.000000000000000 500.000000000000000
0

0101000
+12 56 -12 57 *
Wi

0101100
+7 0 -7 0 -11 56 +11 57 *
Fa
0  0.000000100000000 9 0

0101000
+6 0 *
Wi

0101100
+11 0 *
Fa
0  0.000000100000000 8 0

0101000
+4 59 *
Sh

0101100
-43 2 +38 0 -35 16 -30 2 +25 16 -23 29 +18 31 -13 16 -8 43 -5 55 
+3 58 *
So

0100000
+2 0 *

+1 1 