
CASCADE Topology V1, (c) Matra-Datavision
Locations 57
1
1.000000000000000 0.000000000000000 0.000000000000000 0.000000000000000 
0.000000000000000 1.000000000000000 0.000000000000000 0.000000000000000 
0.000000000000000 0.000000000000000 1.000000000000000 0.000000000000000 
1
1.000000000000000 0.000000000000000 0.000000000000000 0.000000000000000 
0.000000000000000 1.000000000000000 0.000000000000000 0.000000000000000 
0.000000000000000 0.000000000000000 1.000000000000000 0.000000000000000 
1
1.000000000000000 0.000000000000000 0.000000000000000 0.000000000000000 
0.000000000000000 1.000000000000000 0.000000000000000 0.000000000000000 
0.000000000000000 0.000000000000000 1.000000000000000 0.000000000000000 
1
1.000000000000000 0.000000000000000 0.000000000000000 0.000000000000000 
0.000000000000000 1.000000000000000 0.000000000000000 0.000000000000000 
0.000000000000000 0.000000000000000 1.000000000000000 0.000000000000000 
1
1.000000000000000 0.000000000000000 0.000000000000000 0.000000000000000 
0.000000000000000 1.000000000000000 0.000000000000000 0.000000000000000 
0.000000000000000 0.000000000000000 1.000000000000000 0.000000000000000 
1
1.000000000000000 0.000000000000000 0.000000000000000 0.000000000000000 
0.000000000000000 1.000000000000000 0.000000000000000 0.000000000000000 
0.000000000000000 0.000000000000000 1.000000000000000 0.000000000000000 
1
1.000000000000000 0.000000000000000 0.000000000000000 0.000000000000000 
0.000000000000000 1.000000000000000 0.000000000000000 0.000000000000000 
0.000000000000000 0.000000000000000 1.000000000000000 0.000000000000000 
1
1.000000000000000 0.000000000000000 0.000000000000000 0.000000000000000 
0.000000000000000 1.000000000000000 0.000000000000000 0.000000000000000 
0.000000000000000 0.000000000000000 1.000000000000000 0.000000000000000 
2  2 1 3 -1 4 1 5 1 6 -1 7 1 8 1 0
1
1.000000000000000 0.000000000000000 0.000000000000000 0.000000000000000 
0.000000000000000 1.000000000000000 0.000000000000000 0.000000000000000 
0.000000000000000 0.000000000000000 1.000000000000000 0.000000000000000 
1
1.000000000000000 0.000000000000000 0.000000000000000 -0.000000000000000 
0.000000000000000 1.000000000000000 0.000000000000000 -0.000000000000000 
0.000000000000000 0.000000000000000 1.000000000000000 -250.000000000000000 
1
1.000000000000000 0.000000000000000 0.000000000000000 0.000000000000000 
0.000000000000000 1.000000000000000 0.000000000000000 0.000000000000000 
0.000000000000000 0.000000000000000 1.000000000000000 0.000000000000000 
1
1.000000000000000 0.000000000000000 0.000000000000000 0.000000000000000 
0.000000000000000 1.000000000000000 0.000000000000000 0.000000000000000 
0.000000000000000 0.000000000000000 1.000000000000000 0.000000000000000 
2  10 -1 11 1 12 1 13 -1 0
2  8 -1 7 -1 6 1 5 -1 4 -1 3 1 2 -1 0
2  10 -1 11 1 12 1 13 -1 2 1 3 -1 4 1 5 1 6 -1 7 1 8 1 0
1
1.000000000000000 0.000000000000000 0.000000000000000 0.000000000000000 
0.000000000000000 1.000000000000000 0.000000000000000 0.000000000000000 
0.000000000000000 0.000000000000000 1.000000000000000 0.000000000000000 
1
1.000000000000000 0.000000000000000 0.000000000000000 0.000000000000000 
0.000000000000000 -1.000000000000000 0.000000000000000 0.000000000000000 
0.000000000000000 0.000000000000000 -1.000000000000000 -250.000000000000000 
2  17 1 18 1 13 -1 0
2  13 1 18 -1 17 -1 0
1
1.000000000000000 0.000000000000000 0.000000000000000 0.000000000000000 
0.000000000000000 1.000000000000000 0.000000000000000 0.000000000000000 
0.000000000000000 0.000000000000000 1.000000000000000 -500.000000000000000 
2  21 -1 13 1 18 -1 17 -1 0
2  12 1 13 -1 2 1 3 -1 4 1 5 1 6 -1 7 1 8 1 0
2  4 1 5 1 6 -1 7 1 8 1 0
2  2 1 3 -1 0
2  4 -1 0
2  2 1 3 -1 4 1 0
2  4 -1 3 1 2 -1 0
2  17 1 18 1 13 -1 2 1 3 -1 4 1 0
2  8 -1 7 -1 6 1 5 -1 4 -1 3 1 2 -1 13 1 12 -1 0
2  5 1 6 -1 7 1 8 1 0
2  3 -1 4 1 0
1
1.000000000000000 0.000000000000000 0.000000000000000 0.000000000000000 
0.000000000000000 1.000000000000000 0.000000000000000 0.000000000000000 
0.000000000000000 0.000000000000000 1.000000000000000 500.000000000000000 
2  10 -1 11 1 33 1 12 1 13 -1 2 1 3 -1 4 1 5 1 6 -1 7 1 8 1 0
2  3 -1 0
1
1.000000000000000 0.000000000000000 0.000000000000000 0.000000000000000 
0.000000000000000 1.000000000000000 0.000000000000000 0.000000000000000 
0.000000000000000 0.000000000000000 1.000000000000000 0.000000000000000 
1
1.000000000000000 0.000000000000000 0.000000000000000 0.000000000000000 
0.000000000000000 -1.000000000000000 0.000000000000000 0.000000000000000 
0.000000000000000 0.000000000000000 -1.000000000000000 -750.000000000000000 
2  36 1 37 1 3 -1 0
2  3 1 37 -1 36 -1 0
1
1.000000000000000 0.000000000000000 0.000000000000000 0.000000000000000 
0.000000000000000 1.000000000000000 0.000000000000000 0.000000000000000 
0.000000000000000 0.000000000000000 1.000000000000000 -10.000000000000000 
2  40 -1 3 1 37 -1 36 -1 0
2  8 -1 7 -1 6 1 5 -1 4 -1 3 1 2 -1 13 1 12 -1 33 -1 11 -1 10 1 0
2  36 1 37 1 3 -1 40 1 0
2  7 1 8 1 0
2  3 -1 40 1 4 1 5 1 6 -1 0
2  7 -1 0
2  3 -1 40 1 4 1 5 1 6 -1 7 1 0
2  36 1 37 1 3 -1 40 1 4 1 5 1 6 -1 0
1
1.000000000000000 0.000000000000000 0.000000000000000 0.000000000000000 
0.000000000000000 1.000000000000000 0.000000000000000 0.000000000000000 
0.000000000000000 0.000000000000000 1.000000000000000 0.000000000000000 
1
1.000000000000000 0.000000000000000 0.000000000000000 0.000000000000000 
0.000000000000000 -1.000000000000000 0.000000000000000 0.000000000000000 
0.000000000000000 0.000000000000000 -1.000000000000000 -760.000000000000114 
1
1.000000000000000 0.000000000000000 0.000000000000000 0.000000000000000 
0.000000000000000 1.000000000000000 0.000000000000000 0.000000000000000 
0.000000000000000 0.000000000000000 1.000000000000000 500.000000000000000 
2  49 1 50 1 6 -1 51 1 0
2  49 1 50 1 6 -1 51 1 7 1 0
2  6 1 50 -1 49 -1 0
2  51 -1 6 1 50 -1 49 -1 0
2  6 -1 51 1 7 1 8 1 0
2  49 1 50 1 0
Curve2ds 38
1 0.00000000000000000 -141.42135623730951011 1.00000000000000000 0.00000000000000000 
2 0.00000000000001400 -0.00000000000002568 1.00000000000000000 0.00000000000000000 -0.00000000000000000 1.00000000000000000 300.00000000000000000
1 0.00000000000000000 0.00000000000000000 1.00000000000000000 0.00000000000000000 
1 0.00000000000000000 -500.00000000000000000 1.00000000000000000 0.00000000000000000 
8 -141.42135623730951011 0.00000000000000000
1 6.28318530717958623 0.00000000000000000 0.00000000000000000 1.00000000000000000 
8 -141.42135623730951011 0.00000000000000000
1 0.00000000000000000 0.00000000000000000 0.00000000000000000 1.00000000000000000 
1 0.00000000000000000 0.00000000000000000 1.00000000000000000 0.00000000000000000 
1 0.00000000000000000 -100.00000000000000000 1.00000000000000000 0.00000000000000000 
1 0.00000000000000000 0.00000000000000000 0.00000000000000000 -1.00000000000000000 
1 6.28318530717958623 0.00000000000000000 0.00000000000000000 -1.00000000000000000 
1 0.00000000000000000 0.00000000000000000 1.00000000000000000 0.00000000000000000 
1 0.00000000000000000 -1.00000000000000000 1.00000000000000000 0.00000000000000000 
1 0.00000000000000000 0.00000000000000000 0.00000000000000000 -1.00000000000000000 
1 6.28318530717958623 0.00000000000000000 0.00000000000000000 -1.00000000000000000 
1 0.00000000000000000 0.00000000000000000 1.00000000000000000 0.00000000000000000 
1 0.00000000000000000 -400.00000000000000000 1.00000000000000000 0.00000000000000000 
8 0.00000000000000000 557.67553290421483325
1 6.28318530717958623 0.00000000000000000 0.00000000000000000 1.00000000000000000 
8 0.00000000000000000 557.67553290421483325
1 0.00000000000000000 0.00000000000000000 0.00000000000000000 1.00000000000000000 
1 0.00000000000000000 557.67553290421483325 1.00000000000000000 0.00000000000000000 
2 0.00000000000001494 -0.00000000000000037 1.00000000000000000 0.00000000000000000 0.00000000000000000 -1.00000000000000000 374.00000000000000000
8 0.00000000000000000 141.42135623730951011
1 6.28318530717958623 0.00000000000000000 0.00000000000000000 1.00000000000000000 
8 0.00000000000000000 141.42135623730951011
1 0.00000000000000000 0.00000000000000000 0.00000000000000000 1.00000000000000000 
1 0.00000000000000000 141.42135623730951011 1.00000000000000000 0.00000000000000000 
2 0.00000000000001400 -0.00000000000002568 1.00000000000000000 0.00000000000000000 -0.00000000000000000 1.00000000000000000 300.00000000000000000
1 0.00000000000000000 0.00000000000000000 1.00000000000000000 0.00000000000000000 
1 0.00000000000000000 -10.00000000000000000 1.00000000000000000 0.00000000000000000 
1 0.00000000000000000 0.00000000000000000 0.00000000000000000 -1.00000000000000000 
1 6.28318530717958623 0.00000000000000000 0.00000000000000000 -1.00000000000000000 
1 0.00000000000000000 -566.41415942753405943 1.00000000000000000 0.00000000000000000 
2 0.00000000000001494 -0.00000000000000037 1.00000000000000000 0.00000000000000000 0.00000000000000000 -1.00000000000000000 368.00000000000000000
8 -566.41415942753405943 0.00000000000000000
1 6.28318530717958623 0.00000000000000000 0.00000000000000000 1.00000000000000000 
8 -566.41415942753405943 0.00000000000000000
1 0.00000000000000000 0.00000000000000000 0.00000000000000000 1.00000000000000000 
1 0.00000000000000000 0.00000000000000000 1.00000000000000000 0.00000000000000000 
1 0.00000000000000000 -499.00000000000000000 1.00000000000000000 0.00000000000000000 
1 0.00000000000000000 0.00000000000000000 0.00000000000000000 -1.00000000000000000 
1 6.28318530717958623 0.00000000000000000 0.00000000000000000 -1.00000000000000000 
1 0.00000000000000000 0.00000000000000000 1.00000000000000000 0.00000000000000000 
1 0.00000000000000000 -500.00000000000000000 1.00000000000000000 0.00000000000000000 
Curves 19
2 0.00000000000000000 0.00000000000000000 -250.00000000000000000 0.00000000000000000 0.00000000000000000 1.00000000000000000 1.00000000000000000 0.00000000000000000 -0.00000000000000000 -0.00000000000000000 1.00000000000000000 0.00000000000000000 300.00000000000000000
2 0.00000000000000000 0.00000000000000000 0.00000000000000000 0.00000000000000000 0.00000000000000000 1.00000000000000000 1.00000000000000000 0.00000000000000000 0.00000000000000000 0.00000000000000000 1.00000000000000000 0.00000000000000000 125.00000000000000000
1 400.00000000000000000 0.00000000000000000 -150.00000000000000000 0.70710678118654757 0.00000000000000000 0.70710678118654746 
2 0.00000000000000000 0.00000000000000000 -150.00000000000000000 0.00000000000000000 0.00000000000000000 1.00000000000000000 1.00000000000000000 0.00000000000000000 -0.00000000000000000 -0.00000000000000000 1.00000000000000000 0.00000000000000000 400.00000000000000000
1 125.00000000000000000 0.00000000000000000 -250.00000000000000000 0.00000000000000000 0.00000000000000000 -1.00000000000000000 
2 0.00000000000000000 0.00000000000000000 -251.00000000000011369 -0.00000000000000000 -0.00000000000000000 -1.00000000000000000 1.00000000000000000 0.00000000000000000 0.00000000000000000 0.00000000000000000 -1.00000000000000000 0.00000000000000000 125.00000000000000000
1 400.00000000000000000 0.00000000000000000 -250.00000000000000000 0.00000000000000000 0.00000000000000000 1.00000000000000000 
2 0.00000000000000000 0.00000000000000000 150.00000000000000000 0.00000000000000000 0.00000000000000000 1.00000000000000000 1.00000000000000000 0.00000000000000000 -0.00000000000000000 -0.00000000000000000 1.00000000000000000 0.00000000000000000 400.00000000000000000
1 125.00000000000000000 0.00000000000000000 -251.00000000000011369 0.44649618874846303 0.00000000000000000 -0.89478553488145796 
2 0.00000000000000000 0.00000000000000000 -750.00000000000011369 -0.00000000000000000 -0.00000000000000000 -1.00000000000000000 1.00000000000000000 0.00000000000000000 0.00000000000000000 0.00000000000000000 -1.00000000000000000 0.00000000000000000 374.00000000000000000
1 400.00000000000000000 0.00000000000000000 150.00000000000000000 -0.70710678118654757 0.00000000000000000 0.70710678118654746 
2 0.00000000000000000 0.00000000000000000 250.00000000000000000 0.00000000000000000 0.00000000000000000 1.00000000000000000 1.00000000000000000 0.00000000000000000 -0.00000000000000000 -0.00000000000000000 1.00000000000000000 0.00000000000000000 300.00000000000000000
2 0.00000000000000000 0.00000000000000000 0.00000000000000000 0.00000000000000000 0.00000000000000000 1.00000000000000000 1.00000000000000000 0.00000000000000000 0.00000000000000000 0.00000000000000000 1.00000000000000000 0.00000000000000000 375.00000000000000000
1 375.00000000000000000 0.00000000000000000 -750.00000000000000000 0.00000000000000000 0.00000000000000000 -1.00000000000000000 
2 0.00000000000000000 0.00000000000000000 -760.00000000000011369 -0.00000000000000000 -0.00000000000000000 -1.00000000000000000 1.00000000000000000 0.00000000000000000 0.00000000000000000 0.00000000000000000 -1.00000000000000000 0.00000000000000000 368.00000000000000000
1 100.00000000000000000 0.00000000000000000 -261.00000000000011369 -0.47315201348579183 0.00000000000000000 0.88098080122914213 
2 0.00000000000000000 0.00000000000000000 -261.00000000000011369 -0.00000000000000000 -0.00000000000000000 -1.00000000000000000 1.00000000000000000 0.00000000000000000 0.00000000000000000 0.00000000000000000 -1.00000000000000000 0.00000000000000000 100.00000000000000000
1 100.00000000000000000 0.00000000000000000 -760.00000000000011369 0.00000000000000000 0.00000000000000000 1.00000000000000000 
2 0.00000000000000000 0.00000000000000000 0.00000000000000000 0.00000000000000000 0.00000000000000000 1.00000000000000000 1.00000000000000000 0.00000000000000000 0.00000000000000000 0.00000000000000000 1.00000000000000000 0.00000000000000000 100.00000000000000000
Polygon3D 0
PolygonOnTriangulations 0
Surfaces 11
1 -0.00000000000001400 0.00000000000002568 0.00000000000000000 0.00000000000000000 0.00000000000000000 1.00000000000000000 1.00000000000000000 0.00000000000000000 -0.00000000000000000 -0.00000000000000000 1.00000000000000000 0.00000000000000000 
3 0.00000000000000000 0.00000000000000000 -150.00000000000000000 0.00000000000000000 0.00000000000000000 1.00000000000000000 1.00000000000000000 0.00000000000000000 -0.00000000000000000 -0.00000000000000000 1.00000000000000000 0.00000000000000000 400.00000000000000000
0.78539816339744839
2 0.00000000000000000 0.00000000000000000 -250.00000000000000000 -0.00000000000000000 -0.00000000000000000 1.00000000000000000 1.00000000000000000 0.00000000000000000 0.00000000000000000 0.00000000000000000 -1.00000000000000000 0.00000000000000000 125.00000000000000000
2 0.00000000000000000 0.00000000000000000 -250.00000000000000000 -0.00000000000000000 -0.00000000000000000 -1.00000000000000000 1.00000000000000000 0.00000000000000000 0.00000000000000000 0.00000000000000000 1.00000000000000000 0.00000000000000000 400.00000000000000000
3 0.00000000000000000 0.00000000000000000 -251.00000000000011369 -0.00000000000000000 -0.00000000000000000 -1.00000000000000000 1.00000000000000000 0.00000000000000000 0.00000000000000000 0.00000000000000000 -1.00000000000000000 0.00000000000000000 125.00000000000000000
0.46284568455362163
3 0.00000000000000000 0.00000000000000000 150.00000000000000000 0.00000000000000000 0.00000000000000000 1.00000000000000000 1.00000000000000000 0.00000000000000000 0.00000000000000000 -0.00000000000000000 1.00000000000000000 -0.00000000000000000 400.00000000000000000
-0.78539816339744839
1 -0.00000000000001494 0.00000000000000037 -750.00000000000011369 0.00000000000000000 0.00000000000000000 1.00000000000000000 1.00000000000000000 0.00000000000000000 -0.00000000000000000 -0.00000000000000000 1.00000000000000000 0.00000000000000000 
2 0.00000000000000000 0.00000000000000000 -750.00000000000000000 -0.00000000000000000 -0.00000000000000000 1.00000000000000000 1.00000000000000000 0.00000000000000000 0.00000000000000000 0.00000000000000000 -1.00000000000000000 0.00000000000000000 375.00000000000000000
3 0.00000000000000000 0.00000000000000000 -261.00000000000011369 0.00000000000000000 0.00000000000000000 1.00000000000000000 1.00000000000000000 0.00000000000000000 0.00000000000000000 0.00000000000000000 -1.00000000000000000 0.00000000000000000 100.00000000000000000
-0.49286520049609872
2 0.00000000000000000 0.00000000000000000 -760.00000000000011369 0.00000000000000000 0.00000000000000000 -1.00000000000000000 1.00000000000000000 0.00000000000000000 0.00000000000000000 0.00000000000000000 -1.00000000000000000 0.00000000000000000 100.00000000000000000
1 -0.00000000000000350 -0.00000000000000642 -760.00000000000011369 0.00000000000000000 0.00000000000000000 1.00000000000000000 1.00000000000000000 0.00000000000000000 -0.00000000000000000 -0.00000000000000000 1.00000000000000000 0.00000000000000000 
Triangulations 0

TShapes 61
Ve
0.000000100000000
300.000000000000000 0.000000000000000 -250.000000000000000
0 0

0101101
*
Ed
 0.000000100000000 1 1 0
1  1 0 0.000000000000000 6.283185307179586
2  1 2 0 0.000000000000000 6.283185307179586
2  2 1 16 0.000000000000000 6.283185307179586
0

0101000
+61 0 -61 0 *
Wi

0101100
+60 0 *
Ve
0.000000100000000
125.000000000000000 0.000000000000000 -250.000000000000000
0 0

0101101
*
Ed
 0.000000100000000 1 1 0
1  2 0 0.000000000000000 6.283185307179586
2  3 3 20 0.000000000000000 6.283185307179586
2  4 3 22 0.000000000000000 6.283185307179586
0

0101000
+58 20 -58 20 *
Wi

0101100
+57 19 *
Fa
0  0.000000100000000 1 14

0101000
+59 15 +56 0 *
Ve
0.000000100000000
400.000000000000000 0.000000000000000 -150.000000000000000
0 0

0101101
*
Ed
 0.000000100000000 1 1 0
1  3 0 -141.421356237309510 0.000000000000000
3  5 6CN 2 0 -141.421356237309510 0.000000000000000
0

0101000
+61 0 -54 0 *
Ed
 0.000000100000000 1 1 0
1  4 0 0.000000000000000 6.283185307179586
2  7 2 0 0.000000000000000 6.283185307179586
2  8 4 23 0.000000000000000 6.283185307179586
0

0101000
+54 0 -54 0 *
Wi

0101100
-53 0 +60 0 -52 0 +53 0 *
Fa
0  0.000000000000000 2 0

0101000
+51 0 *
Ve
0.000000100000000
125.000000000000000 0.000000000000000 -251.000000000000114
0 0

0101101
*
Ed
 0.000000100000000 1 1 0
1  5 0 0.000000000000000 1.000000000000000
3  9 10CN 3 0 0.000000000000000 1.000000000000000
0

0101000
-49 28 +58 0 *
Ed
 0.000000100000000 1 1 0
1  6 0 0.000000000000000 6.283185307179586
2  11 5 0 0.000000000000000 6.283185307179586
2  12 3 27 0.000000000000000 6.283185307179586
0

0101000
+49 0 -49 0 *
Wi

0101100
+48 27 +47 0 -57 29 -48 27 *
Fa
0  0.000000100000000 3 25

0101000
+46 26 *
Ve
0.000000100000000
400.000000000000000 0.000000000000000 150.000000000000000
0 0

0101101
*
Ed
 0.000000100000000 1 1 0
1  7 0 100.000000000000000 400.000000000000000
3  13 14CN 4 0 100.000000000000000 400.000000000000000
0

0101000
+54 30 -44 30 *
Ed
 0.000000100000000 1 1 0
1  8 0 0.000000000000000 6.283185307179586
2  15 6 0 0.000000000000000 6.283185307179586
2  16 4 23 0.000000000000000 6.283185307179586
0

0101000
+44 0 -44 0 *
Wi

0101100
+43 23 -52 0 +42 0 -43 23 *
Fa
0  0.000000100000000 4 0

0101000
+41 30 *
Ve
0.000000100000000
374.000000000000000 0.000000000000000 -750.000000000000114
0 0

0101101
*
Ed
 0.000000100000000 1 1 0
1  9 0 0.000000000000000 557.675532904214833
3  17 18CN 5 0 0.000000000000000 557.675532904214833
0

0101000
+49 0 -39 0 *
Ed
 0.000000100000000 1 1 0
1  10 0 0.000000000000000 6.283185307179586
2  19 5 0 0.000000000000000 6.283185307179586
2  20 7 32 0.000000000000000 6.283185307179586
0

0101000
+39 0 -39 0 *
Wi

0101100
-38 0 +47 0 -37 0 +38 0 *
Fa
0  0.000000000000000 5 0

0101000
+36 0 *
Ve
0.000000100000000
300.000000000000000 0.000000000000000 250.000000000000000
0 0

0101101
*
Ed
 0.000000100000000 1 1 0
1  11 0 0.000000000000000 141.421356237309510
3  21 22CN 6 0 0.000000000000000 141.421356237309510
0

0101000
+44 0 -34 0 *
Ed
 0.000000100000000 1 1 0
1  12 0 0.000000000000000 6.283185307179586
2  23 6 0 0.000000000000000 6.283185307179586
2  24 1 34 0.000000000000000 6.283185307179586
0

0101000
+34 0 -34 0 *
Wi

0101100
-33 0 +42 0 -32 0 +33 0 *
Fa
0  0.000000000000000 6 0

0101000
+31 0 *
Wi

0101100
+37 0 *
Ve
0.000000100000000
375.000000000000000 0.000000000000000 0.000000000000000
0 0

0101101
*
Ed
 0.000000100000000 1 1 0
1  13 0 0.000000000000000 6.283185307179586
2  25 8 39 0.000000000000000 6.283185307179586
2  26 8 41 0.000000000000000 6.283185307179586
0

0101100
+28 0 -28 0 *
Wi

0101100
-27 38 *
Fa
0  0.000000100000000 7 35

0101000
+29 26 +26 0 *
Wi

0101100
+32 0 *
Fa
0  0.000000100000000 1 0

0101000
+24 42 *
Ed
 0.000000100000000 1 1 0
1  14 0 0.000000000000000 10.000000000000000
3  27 28CN 8 0 0.000000000000000 10.000000000000000
0

0101000
+28 38 -28 43 *
Wi

0101100
+22 0 -22 0 -27 38 +27 43 *
Fa
0  0.000000100000000 8 0

0101000
+21 0 *
Ve
0.000000100000000
368.000000000000000 0.000000000000000 -760.000000000000000
0 0

0101101
*
Ed
 0.000000100000000 1 1 0
1  15 0 0.000000000000000 6.283185307179586
2  29 9 0 0.000000000000000 6.283185307179586
2  30 7 47 0.000000000000000 6.283185307179586
0

0101000
+19 0 -19 0 *
Wi

0101100
+18 0 *
Wi

0101100
-27 48 *
Fa
0  0.000000100000000 7 45

0101000
+17 46 +16 0 *
Ve
0.000000100000000
100.000000000000000 0.000000000000000 -261.000000000000114
0 0

0101101
*
Ed
 0.000000100000000 1 1 0
1  16 0 -566.414159427534059 0.000000000000000
3  31 32CN 9 0 -566.414159427534059 0.000000000000000
0

0101000
+19 0 -14 0 *
Ed
 0.000000100000000 1 1 0
1  17 0 0.000000000000000 6.283185307179586
2  33 9 0 0.000000000000000 6.283185307179586
2  34 10 7 0.000000000000000 6.283185307179586
0

0101000
+14 0 -14 0 *
Wi

0101100
-13 0 +18 0 -12 0 +13 0 *
Fa
0  0.000000000000000 9 0

0101000
+11 0 *
Ve
0.000000100000000
100.000000000000000 0.000000000000000 0.000000000000000
0 0

0101101
*
Ed
 0.000000100000000 1 1 0
1  18 0 499.000000000000000 500.000000000000000
3  35 36CN 10 0 499.000000000000000 500.000000000000000
0

0101000
+14 46 -9 52 *
Ed
 0.000000100000000 1 1 0
1  19 0 0.000000000000000 6.283185307179586
2  37 10 54 0.000000000000000 6.283185307179586
2  38 10 55 0.000000000000000 6.283185307179586
0

0101100
+9 0 -9 0 *
Wi

0101100
+8 7 -12 0 +7 53 -8 7 *
Fa
0  0.000000100000000 10 0

0101000
+6 46 *
Wi

0101100
+7 0 *
Fa
0  0.000000100000000 11 0

0101000
-4 57 *
Sh

0101100
-55 9 +50 0 -45 24 -40 23 +35 31 +30 0 +25 24 +23 34 -20 24 -15 44 
+10 8 -5 44 -3 56 *
So

0100000
+2 0 *

+1 1 