
CASCADE Topology V1, (c) Matra-Datavision
Locations 42
1
1.000000000000000 0.000000000000000 0.000000000000000 0.000000000000000 
0.000000000000000 1.000000000000000 0.000000000000000 0.000000000000000 
0.000000000000000 0.000000000000000 1.000000000000000 0.000000000000000 
1
1.000000000000000 0.000000000000000 0.000000000000000 0.000000000000000 
0.000000000000000 1.000000000000000 0.000000000000000 0.000000000000000 
0.000000000000000 0.000000000000000 1.000000000000000 0.000000000000000 
1
1.000000000000000 0.000000000000000 0.000000000000000 0.000000000000000 
0.000000000000000 1.000000000000000 0.000000000000000 0.000000000000000 
0.000000000000000 0.000000000000000 1.000000000000000 0.000000000000000 
1
1.000000000000000 0.000000000000000 0.000000000000000 0.000000000000000 
0.000000000000000 1.000000000000000 0.000000000000000 0.000000000000000 
0.000000000000000 0.000000000000000 1.000000000000000 0.000000000000000 
2  3 1 4 -1 0
2  2 -1 0
2  3 1 4 -1 2 1 0
2  2 -1 4 1 3 -1 0
1
1.000000000000000 0.000000000000000 0.000000000000000 0.000000000000000 
0.000000000000000 1.000000000000000 0.000000000000000 0.000000000000000 
0.000000000000000 0.000000000000000 1.000000000000000 0.000000000000000 
1
1.000000000000000 0.000000000000000 0.000000000000000 0.000000000000000 
0.000000000000000 -1.000000000000000 0.000000000000000 0.000000000000000 
0.000000000000000 0.000000000000000 -1.000000000000000 -250.000000000000000 
1
1.000000000000000 0.000000000000000 0.000000000000000 0.000000000000000 
0.000000000000000 1.000000000000000 0.000000000000000 0.000000000000000 
0.000000000000000 0.000000000000000 1.000000000000000 0.000000000000000 
2  9 1 10 1 11 -1 3 1 4 -1 2 1 0
2  11 1 10 -1 9 -1 0
1
1.000000000000000 0.000000000000000 0.000000000000000 0.000000000000000 
0.000000000000000 1.000000000000000 0.000000000000000 0.000000000000000 
0.000000000000000 0.000000000000000 1.000000000000000 -500.000000000000000 
2  14 -1 11 1 10 -1 9 -1 0
2  4 -1 2 1 0
1
1.000000000000000 0.000000000000000 0.000000000000000 0.000000000000000 
0.000000000000000 1.000000000000000 0.000000000000000 0.000000000000000 
0.000000000000000 0.000000000000000 1.000000000000000 0.000000000000000 
1
1.000000000000000 0.000000000000000 0.000000000000000 -0.000000000000000 
0.000000000000000 1.000000000000000 0.000000000000000 -0.000000000000000 
0.000000000000000 0.000000000000000 1.000000000000000 -250.000000000000000 
1
1.000000000000000 0.000000000000000 0.000000000000000 0.000000000000000 
0.000000000000000 1.000000000000000 0.000000000000000 0.000000000000000 
0.000000000000000 0.000000000000000 1.000000000000000 0.000000000000000 
2  17 -1 18 1 19 1 11 -1 0
1
1.000000000000000 0.000000000000000 0.000000000000000 0.000000000000000 
0.000000000000000 1.000000000000000 0.000000000000000 0.000000000000000 
0.000000000000000 0.000000000000000 1.000000000000000 0.000000000000000 
1
1.000000000000000 0.000000000000000 0.000000000000000 0.000000000000000 
0.000000000000000 1.000000000000000 0.000000000000000 0.000000000000000 
0.000000000000000 0.000000000000000 1.000000000000000 0.000000000000000 
2  21 1 22 1 17 -1 18 1 19 1 11 -1 0
2  18 -1 17 1 22 -1 21 -1 0
1
1.000000000000000 0.000000000000000 0.000000000000000 0.000000000000000 
0.000000000000000 1.000000000000000 0.000000000000000 0.000000000000000 
0.000000000000000 0.000000000000000 1.000000000000000 500.000000000000000 
2  25 -1 18 -1 17 1 22 -1 21 -1 0
2  9 1 10 1 11 -1 0
2  4 -1 0
1
1.000000000000000 0.000000000000000 0.000000000000000 0.000000000000000 
0.000000000000000 1.000000000000000 0.000000000000000 0.000000000000000 
0.000000000000000 0.000000000000000 1.000000000000000 0.000000000000000 
1
1.000000000000000 0.000000000000000 0.000000000000000 0.000000000000000 
0.000000000000000 -1.000000000000000 0.000000000000000 0.000000000000000 
0.000000000000000 0.000000000000000 -1.000000000000000 -750.000000000000000 
2  29 1 30 1 4 -1 0
2  4 1 30 -1 29 -1 0
1
1.000000000000000 0.000000000000000 0.000000000000000 0.000000000000000 
0.000000000000000 1.000000000000000 0.000000000000000 0.000000000000000 
0.000000000000000 0.000000000000000 1.000000000000000 -10.000000000000000 
2  33 -1 4 1 30 -1 29 -1 0
2  19 1 11 -1 3 1 4 -1 2 1 0
2  21 1 22 1 17 -1 18 1 0
2  21 1 22 1 17 -1 18 1 25 1 0
2  29 1 30 1 4 -1 33 1 0
2  17 -1 18 1 25 1 19 1 11 -1 3 1 4 -1 2 1 0
2  21 1 22 1 0
2  4 -1 33 1 2 1 0
2  29 1 30 1 0
Curve2ds 18
1 0.00000000000000000 0.00000000000000000 0.00000000000000000 -1.00000000000000000 
1 6.28318530717958623 0.00000000000000000 0.00000000000000000 -1.00000000000000000 
1 0.00000000000000000 0.00000000000000000 1.00000000000000000 0.00000000000000000 
1 0.00000000000000000 -1.00000000000000000 1.00000000000000000 0.00000000000000000 
1 0.00000000000000000 0.00000000000000000 1.00000000000000000 0.00000000000000000 
1 0.00000000000000000 -500.00000000000000000 1.00000000000000000 0.00000000000000000 
8 0.00000000000000000 557.67553290421483325
1 6.28318530717958623 0.00000000000000000 0.00000000000000000 1.00000000000000000 
8 0.00000000000000000 557.67553290421483325
1 0.00000000000000000 0.00000000000000000 0.00000000000000000 1.00000000000000000 
1 0.00000000000000000 557.67553290421483325 1.00000000000000000 0.00000000000000000 
2 0.00000000000001494 -0.00000000000000037 1.00000000000000000 0.00000000000000000 0.00000000000000000 -1.00000000000000000 374.00000000000000000
1 0.00000000000000000 0.00000000000000000 1.00000000000000000 0.00000000000000000 
1 0.00000000000000000 -500.00000000000000000 1.00000000000000000 0.00000000000000000 
1 0.00000000000000000 0.00000000000000000 1.00000000000000000 0.00000000000000000 
1 0.00000000000000000 -10.00000000000000000 1.00000000000000000 0.00000000000000000 
1 0.00000000000000000 0.00000000000000000 0.00000000000000000 -1.00000000000000000 
1 6.28318530717958623 0.00000000000000000 0.00000000000000000 -1.00000000000000000 
1 0.00000000000000000 0.00000000000000000 0.00000000000000000 -1.00000000000000000 
1 6.28318530717958623 0.00000000000000000 0.00000000000000000 -1.00000000000000000 
Curves 9
1 125.00000000000000000 0.00000000000000000 -250.00000000000000000 0.00000000000000000 0.00000000000000000 -1.00000000000000000 
2 0.00000000000000000 0.00000000000000000 -251.00000000000011369 -0.00000000000000000 -0.00000000000000000 -1.00000000000000000 1.00000000000000000 0.00000000000000000 0.00000000000000000 0.00000000000000000 -1.00000000000000000 0.00000000000000000 125.00000000000000000
2 0.00000000000000000 0.00000000000000000 0.00000000000000000 0.00000000000000000 0.00000000000000000 1.00000000000000000 1.00000000000000000 0.00000000000000000 0.00000000000000000 0.00000000000000000 1.00000000000000000 0.00000000000000000 125.00000000000000000
1 125.00000000000000000 0.00000000000000000 -251.00000000000011369 0.44649618874846303 0.00000000000000000 -0.89478553488145796 
2 0.00000000000000000 0.00000000000000000 -750.00000000000011369 -0.00000000000000000 -0.00000000000000000 -1.00000000000000000 1.00000000000000000 0.00000000000000000 0.00000000000000000 0.00000000000000000 -1.00000000000000000 0.00000000000000000 374.00000000000000000
2 0.00000000000000000 0.00000000000000000 0.00000000000000000 0.00000000000000000 0.00000000000000000 1.00000000000000000 1.00000000000000000 0.00000000000000000 -0.00000000000000000 -0.00000000000000000 1.00000000000000000 0.00000000000000000 400.00000000000000000
2 0.00000000000000000 0.00000000000000000 0.00000000000000000 0.00000000000000000 0.00000000000000000 1.00000000000000000 1.00000000000000000 0.00000000000000000 0.00000000000000000 0.00000000000000000 1.00000000000000000 0.00000000000000000 375.00000000000000000
1 400.00000000000000000 0.00000000000000000 -250.00000000000000000 0.00000000000000000 0.00000000000000000 1.00000000000000000 
1 375.00000000000000000 0.00000000000000000 -750.00000000000000000 0.00000000000000000 0.00000000000000000 -1.00000000000000000 
Polygon3D 0
PolygonOnTriangulations 0
Surfaces 6
2 0.00000000000000000 0.00000000000000000 -250.00000000000000000 -0.00000000000000000 -0.00000000000000000 1.00000000000000000 1.00000000000000000 0.00000000000000000 0.00000000000000000 0.00000000000000000 -1.00000000000000000 0.00000000000000000 125.00000000000000000
3 0.00000000000000000 0.00000000000000000 -251.00000000000011369 -0.00000000000000000 -0.00000000000000000 -1.00000000000000000 1.00000000000000000 0.00000000000000000 0.00000000000000000 0.00000000000000000 -1.00000000000000000 0.00000000000000000 125.00000000000000000
0.46284568455362163
1 -0.00000000000001494 0.00000000000000037 -750.00000000000011369 0.00000000000000000 0.00000000000000000 1.00000000000000000 1.00000000000000000 0.00000000000000000 -0.00000000000000000 -0.00000000000000000 1.00000000000000000 0.00000000000000000 
1 -0.00000000000001400 0.00000000000002568 0.00000000000000000 0.00000000000000000 0.00000000000000000 1.00000000000000000 1.00000000000000000 0.00000000000000000 -0.00000000000000000 -0.00000000000000000 1.00000000000000000 0.00000000000000000 
2 0.00000000000000000 0.00000000000000000 -250.00000000000000000 -0.00000000000000000 -0.00000000000000000 -1.00000000000000000 1.00000000000000000 0.00000000000000000 0.00000000000000000 0.00000000000000000 1.00000000000000000 0.00000000000000000 400.00000000000000000
2 0.00000000000000000 0.00000000000000000 -750.00000000000000000 -0.00000000000000000 -0.00000000000000000 1.00000000000000000 1.00000000000000000 0.00000000000000000 0.00000000000000000 0.00000000000000000 -1.00000000000000000 0.00000000000000000 375.00000000000000000
Triangulations 0

TShapes 34
Ve
0.000000100000000
125.000000000000000 0.000000000000000 -251.000000000000114
0 0

0101101
*
Ve
0.000000100000000
125.000000000000000 0.000000000000000 -250.000000000000000
0 0

0101101
*
Ed
 0.000000100000000 1 1 0
1  1 0 0.000000000000000 1.000000000000000
3  1 2CN 1 0 0.000000000000000 1.000000000000000
0

0101000
-34 8 +33 0 *
Ed
 0.000000100000000 1 1 0
1  2 0 0.000000000000000 6.283185307179586
2  3 2 0 0.000000000000000 6.283185307179586
2  4 1 7 0.000000000000000 6.283185307179586
0

0101000
+34 0 -34 0 *
Ed
 0.000000100000000 1 1 0
1  3 0 0.000000000000000 6.283185307179586
2  5 1 13 0.000000000000000 6.283185307179586
2  6 1 15 0.000000000000000 6.283185307179586
0

0101000
+33 13 -33 13 *
Wi

0101100
+32 7 +31 0 -30 12 -32 7 *
Fa
0  0.000000100000000 1 5

0101000
+29 6 *
Ve
0.000000100000000
374.000000000000000 0.000000000000000 -750.000000000000114
0 0

0101101
*
Ed
 0.000000100000000 1 1 0
1  4 0 0.000000000000000 557.675532904214833
3  7 8CN 2 0 0.000000000000000 557.675532904214833
0

0101000
+34 0 -27 0 *
Ed
 0.000000100000000 1 1 0
1  5 0 0.000000000000000 6.283185307179586
2  9 2 0 0.000000000000000 6.283185307179586
2  10 3 16 0.000000000000000 6.283185307179586
0

0101000
+27 0 -27 0 *
Wi

0101100
-26 0 +31 0 -25 0 +26 0 *
Fa
0  0.000000000000000 2 0

0101000
+24 0 *
Ve
0.000000100000000
400.000000000000000 0.000000000000000 0.000000000000000
0 0

0101101
*
Ed
 0.000000100000000 1 1 0
1  6 0 0.000000000000000 6.283185307179586
2  11 5 24 0.000000000000000 6.283185307179586
2  12 5 26 0.000000000000000 6.283185307179586
0

0101100
+22 0 -22 0 *
Wi

0101100
+21 23 *
Wi

0101100
+30 27 *
Fa
0  0.000000100000000 4 20

0101000
+20 0 +19 0 *
Wi

0101100
+25 0 *
Ve
0.000000100000000
375.000000000000000 0.000000000000000 0.000000000000000
0 0

0101101
*
Ed
 0.000000100000000 1 1 0
1  7 0 0.000000000000000 6.283185307179586
2  13 6 32 0.000000000000000 6.283185307179586
2  14 6 34 0.000000000000000 6.283185307179586
0

0101100
+16 0 -16 0 *
Wi

0101100
-15 31 *
Fa
0  0.000000100000000 3 28

0101000
+17 6 +14 0 *
Ed
 0.000000100000000 1 1 0
1  8 0 0.000000000000000 500.000000000000000
3  15 16CN 5 0 0.000000000000000 500.000000000000000
0

0101000
+22 36 -22 37 *
Wi

0101100
+12 0 -12 0 -21 36 +21 37 *
Fa
0  0.000000100000000 5 0

0101000
+11 0 *
Ed
 0.000000100000000 1 1 0
1  9 0 0.000000000000000 10.000000000000000
3  17 18CN 6 0 0.000000000000000 10.000000000000000
0

0101000
+16 31 -16 38 *
Wi

0101100
+9 0 -9 0 -15 31 +15 38 *
Fa
0  0.000000100000000 6 0

0101000
+8 0 *
Wi

0101100
+21 0 *
Fa
0  0.000000100000000 4 0

0101000
+6 40 *
Wi

0101100
+15 0 *
Fa
0  0.000000100000000 3 0

0101000
-4 42 *
Sh

0101100
-28 2 +23 0 -18 7 +13 2 -10 35 -7 2 +5 39 -3 41 *
So

0100000
+2 0 *

+1 1 