
CASCADE Topology V1, (c) Matra-Datavision
Locations 20
1
1.000000000000000 0.000000000000000 0.000000000000000 0.000000000000000 
0.000000000000000 1.000000000000000 0.000000000000000 0.000000000000000 
0.000000000000000 0.000000000000000 1.000000000000000 0.000000000000000 
1
1.000000000000000 0.000000000000000 0.000000000000000 0.000000000000000 
0.000000000000000 1.000000000000000 0.000000000000000 0.000000000000000 
0.000000000000000 0.000000000000000 1.000000000000000 0.000000000000000 
2  2 -1 0
1
1.000000000000000 0.000000000000000 0.000000000000000 0.000000000000000 
0.000000000000000 1.000000000000000 0.000000000000000 0.000000000000000 
0.000000000000000 0.000000000000000 1.000000000000000 0.000000000000000 
1
1.000000000000000 0.000000000000000 0.000000000000000 0.000000000000000 
0.000000000000000 1.000000000000000 0.000000000000000 0.000000000000000 
0.000000000000000 0.000000000000000 1.000000000000000 0.000000000000000 
1
1.000000000000000 0.000000000000000 0.000000000000000 0.000000000000000 
0.000000000000000 1.000000000000000 0.000000000000000 0.000000000000000 
0.000000000000000 0.000000000000000 1.000000000000000 0.000000000000000 
2  4 -1 5 -1 6 1 1 -1 0
1
1.000000000000000 0.000000000000000 0.000000000000000 0.000000000000000 
0.000000000000000 1.000000000000000 0.000000000000000 0.000000000000000 
0.000000000000000 0.000000000000000 1.000000000000000 0.000000000000000 
1
1.000000000000000 0.000000000000000 0.000000000000000 0.000000000000000 
0.000000000000000 1.000000000000000 0.000000000000000 0.000000000000000 
0.000000000000000 0.000000000000000 1.000000000000000 0.000000000000000 
1
1.000000000000000 0.000000000000000 0.000000000000000 0.000000000000000 
0.000000000000000 1.000000000000000 0.000000000000000 0.000000000000000 
0.000000000000000 0.000000000000000 1.000000000000000 0.000000000000000 
1
1.000000000000000 0.000000000000000 0.000000000000000 -0.000000000000000 
0.000000000000000 1.000000000000000 0.000000000000000 -0.000000000000000 
0.000000000000000 0.000000000000000 1.000000000000000 -25.000000000000000 
2  8 1 9 1 10 -1 11 1 2 1 0
2  2 -1 11 -1 10 1 9 -1 8 -1 0
1
1.000000000000000 0.000000000000000 0.000000000000000 0.000000000000000 
0.000000000000000 1.000000000000000 0.000000000000000 0.000000000000000 
0.000000000000000 0.000000000000000 1.000000000000000 50.000000000000000 
2  8 1 9 1 10 -1 11 1 14 1 2 1 0
2  2 -1 14 -1 11 -1 10 1 9 -1 8 -1 0
2  10 -1 11 1 2 1 0
2  10 -1 11 1 14 1 2 1 0
2  2 -1 11 -1 10 1 0
2  2 -1 14 -1 11 -1 10 1 0
Curve2ds 32
1 0.00000000000000000 -10.60660171779821326 1.00000000000000000 0.00000000000000000 
1 0.00000000000000000 -15.00000000000000000 1.00000000000000000 0.00000000000000000 
1 0.00000000000000000 -10.60660171779821326 1.00000000000000000 0.00000000000000000 
1 0.00000000000000000 -35.00000000000000000 1.00000000000000000 0.00000000000000000 
1 49.99999999999999289 0.00000000000000754 -0.00000000000000000 1.00000000000000000 
1 7.50000000000000000 -7.49999999999998934 0.70710678118654757 0.70710678118654757 
1 49.99999999999999289 -17.67766952966366745 0.00000000000000000 1.00000000000000000 
1 -5.00000000000000000 -30.00000000000002842 0.70710678118654757 -0.70710678118654757 
1 0.00000000000000000 707.10678118654755053 0.00000000000000000 1.00000000000000000 
1 1492.49999999999977263 492.49999999999977263 -0.70710678118654757 0.70710678118654757 
1 0.00000000000000000 689.42911165688383335 0.00000000000000000 1.00000000000000000 
1 1504.99999999999977263 -529.99999999999977263 -0.70710678118654757 -0.70710678118654757 
1 0.00000000000000000 10.60660171779821326 1.00000000000000000 0.00000000000000000 
1 -985.00000000000000000 25.00000000000000000 0.00000000000000000 -1.00000000000000000 
1 49.99999999999999289 0.00000000000000251 0.00000000000000000 1.00000000000000000 
1 7.50000000000000000 -7.49999999999999645 0.70710678118654757 0.70710678118654757 
1 0.00000000000000000 10.60660171779821326 1.00000000000000000 0.00000000000000000 
1 -985.00000000000000000 25.00000000000000000 0.00000000000000000 -1.00000000000000000 
1 49.99999999999999289 -17.67766952966368876 0.00000000000000000 1.00000000000000000 
1 -5.00000000000000000 -30.00000000000000000 0.70710678118654757 -0.70710678118654757 
1 0.00000000000000000 707.10678118654755053 0.00000000000000000 1.00000000000000000 
1 1492.50000000000000000 492.49999999999988631 -0.70710678118654757 0.70710678118654757 
1 0.00000000000000000 689.42911165688383335 0.00000000000000000 1.00000000000000000 
1 1505.00000000000000000 -530.00000000000000000 -0.70710678118654757 -0.70710678118654757 
1 0.00000000000000000 -10.60660171779818484 1.00000000000000000 0.00000000000000000 
1 0.00000000000000000 -15.00000000000000000 1.00000000000000000 0.00000000000000000 
1 0.00000000000000000 -10.60660171779818484 1.00000000000000000 0.00000000000000000 
1 0.00000000000000000 -35.00000000000000000 1.00000000000000000 0.00000000000000000 
1 0.00000000000000000 10.60660171779818484 1.00000000000000000 0.00000000000000000 
1 985.00000000000000000 -25.00000000000000000 0.00000000000000000 1.00000000000000000 
1 0.00000000000000000 10.60660171779818484 1.00000000000000000 0.00000000000000000 
1 985.00000000000000000 -25.00000000000000000 0.00000000000000000 1.00000000000000000 
Curves 22
1 -50.00000000000000000 25.00000000000000000 -25.00000000000000000 0.00000000000000000 0.00000000000000000 1.00000000000000000 
1 -50.00000000000000000 25.00000000000000000 -10.00000000000000000 0.00000000000000000 -1.00000000000000000 0.00000000000000000 
1 -50.00000000000000000 25.00000000000000000 10.00000000000000000 0.00000000000000000 -1.00000000000000000 0.00000000000000000 
1 -50.00000000000000000 -25.00000000000000000 -25.00000000000000000 0.00000000000000000 0.00000000000000000 1.00000000000000000 
1 1950.00000000000000000 25.00000000000000000 -25.00000000000000000 0.00000000000000000 0.00000000000000000 1.00000000000000000 
8 -10.60660171779820615 10.60660171779819905
1 1942.50000000000000000 24.99999999999999289 -17.50000000000001066 -0.70710678118654757 -0.00000000000000000 -0.70710678118654757 
8 7.07106781186546929 28.28427124746187360
1 1955.00000000000000000 24.99999999999999289 5.00000000000003020 -0.70710678118654757 -0.00000000000000000 0.70710678118654757 
1 1950.00000000000000000 25.00000000000000000 0.00000000000000000 -1.00000000000000000 0.00000000000000000 0.00000000000000000 
8 -717.71338290434573537 -696.50017946874936570
1 457.50000000000017053 25.00000000000000000 -517.49999999999977263 0.70710678118654757 0.00000000000000000 -0.70710678118654757 
8 -700.03571337468213187 -678.82250993908564851
1 445.00000000000017053 25.00000000000000000 504.99999999999982947 0.70710678118654757 0.00000000000000000 0.70710678118654757 
1 -35.00000000000000000 25.00000000000000000 -25.00000000000000000 0.00000000000000000 -1.00000000000000000 0.00000000000000000 
8 -10.60660171779821681 10.60660171779820971
1 -42.50000000000000000 -24.99999999999999289 -17.50000000000000355 0.70710678118654757 -0.00000000000000000 -0.70710678118654757 
1 -35.00000000000000000 25.00000000000000000 25.00000000000000000 0.00000000000000000 -1.00000000000000000 0.00000000000000000 
8 7.07106781186547728 28.28427124746190202
1 -55.00000000000000000 -24.99999999999999289 4.99999999999999822 0.70710678118654757 -0.00000000000000000 0.70710678118654757 
1 -50.00000000000000000 -25.00000000000000000 0.00000000000000000 1.00000000000000000 0.00000000000000000 0.00000000000000000 
8 -717.71338290434573537 -696.50017946874936570
1 1442.50000000000000000 -25.00000000000000000 -517.49999999999988631 -0.70710678118654757 0.00000000000000000 -0.70710678118654757 
8 -700.03571337468201818 -678.82250993908564851
1 1455.00000000000000000 -25.00000000000000000 504.99999999999994316 -0.70710678118654757 0.00000000000000000 0.70710678118654757 
1 1950.00000000000000000 -25.00000000000000000 -25.00000000000000000 0.00000000000000000 0.00000000000000000 1.00000000000000000 
1 1950.00000000000000000 -25.00000000000000000 -10.00000000000000000 0.00000000000000000 1.00000000000000000 0.00000000000000000 
1 1950.00000000000000000 -25.00000000000000000 10.00000000000000000 0.00000000000000000 1.00000000000000000 0.00000000000000000 
1 1935.00000000000000000 -25.00000000000000000 -25.00000000000000000 0.00000000000000000 1.00000000000000000 0.00000000000000000 
1 1935.00000000000000000 -25.00000000000000000 25.00000000000000000 0.00000000000000000 1.00000000000000000 0.00000000000000000 
Polygon3D 0
PolygonOnTriangulations 0
Surfaces 10
1 -50.00000000000000000 25.00000000000000000 -25.00000000000000000 1.00000000000000000 0.00000000000000000 -0.00000000000000000 0.00000000000000000 -1.00000000000000000 0.00000000000000000 0.00000000000000000 -0.00000000000000000 -1.00000000000000000 
1 -42.50000000000000000 25.00000000000000000 -17.50000000000000000 -0.70710678118654746 0.00000000000000000 -0.70710678118654746 0.00000000000000000 -1.00000000000000000 -0.00000000000000000 0.70710678118654757 0.00000000000000000 -0.70710678118654757 
1 -42.50000000000000000 25.00000000000000000 17.50000000000000000 0.70710678118654746 0.00000000000000000 -0.70710678118654746 0.00000000000000000 -1.00000000000000000 0.00000000000000000 0.70710678118654757 0.00000000000000000 0.70710678118654757 
1 1950.00000000000000000 25.00000000000000000 -25.00000000000000000 0.00000000000000000 -1.00000000000000000 0.00000000000000000 -1.00000000000000000 0.00000000000000000 0.00000000000000000 -0.00000000000000000 -0.00000000000000000 -1.00000000000000000 
1 1942.50000000000000000 -25.00000000000000000 -17.50000000000000000 0.70710678118654746 0.00000000000000000 -0.70710678118654746 0.00000000000000000 1.00000000000000000 0.00000000000000000 -0.70710678118654757 0.00000000000000000 -0.70710678118654757 
1 1942.50000000000000000 -25.00000000000000000 17.50000000000000000 -0.70710678118654746 0.00000000000000000 -0.70710678118654746 0.00000000000000000 1.00000000000000000 0.00000000000000000 -0.70710678118654757 -0.00000000000000000 0.70710678118654757 
1 1942.50000000000000000 -25.00000000000000000 17.50000000000000000 -0.70710678118654757 0.00000000000000000 -0.70710678118654757 0.00000000000000000 1.00000000000000000 0.00000000000000000 -0.70710678118654757 0.00000000000000000 0.70710678118654757 
1 950.00000000000000000 0.00000000000000000 0.00000000000000000 0.00000000000000000 0.00000000000000000 1.00000000000000000 1.00000000000000000 0.00000000000000000 -0.00000000000000000 -0.00000000000000000 1.00000000000000000 0.00000000000000000 
1 -50.00000000000000000 -25.00000000000000000 -25.00000000000000000 0.00000000000000000 1.00000000000000000 0.00000000000000000 1.00000000000000000 0.00000000000000000 0.00000000000000000 0.00000000000000000 0.00000000000000000 -1.00000000000000000 
1 1950.00000000000000000 -25.00000000000000000 -25.00000000000000000 -1.00000000000000000 0.00000000000000000 0.00000000000000000 0.00000000000000000 1.00000000000000000 0.00000000000000000 0.00000000000000000 0.00000000000000000 -1.00000000000000000 
Triangulations 0

TShapes 62
Ve
0.000000100000000
-50.000000000000000 25.000000000000000 -10.000000000000000
0 0

0101101
*
Ve
0.000000100000000
-50.000000000000000 25.000000000000000 10.000000000000000
0 0

0101101
*
Ed
 0.000000100000000 1 1 0
1  1 0 15.000000000000000 35.000000000000000
0

0101000
+62 3 -61 3 *
Ve
0.000000100000000
-50.000000000000000 -25.000000000000000 -10.000000000000000
0 0

0101101
*
Ed
 0.000000100000000 1 1 0
1  2 0 0.000000000000000 50.000000000000000
2  1 2 0 0.000000000000000 50.000000000000000
2  2 1 2 0.000000000000000 50.000000000000000
0

0101000
+62 0 -59 0 *
Ve
0.000000100000000
-50.000000000000000 -25.000000000000000 10.000000000000000
0 0

0101101
*
Ed
 0.000000100000000 1 1 0
1  3 0 0.000000000000000 50.000000000000000
2  3 3 0 0.000000000000000 50.000000000000000
2  4 1 2 0.000000000000000 50.000000000000000
0

0101000
+61 0 -57 0 *
Ed
 0.000000100000000 1 1 0
1  4 0 15.000000000000000 35.000000000000000
0

0101000
+59 3 -57 3 *
Wi

0101100
+60 2 -58 0 +56 0 -55 2 *
Fa
0  0.000000100000000 1 0

0111000
+54 3 *
Ve
0.000000100000000
1950.000000000000000 25.000000000000000 -10.000000000000020
0 0

0101101
*
Ve
0.000000100000000
1950.000000000000000 25.000000000000000 10.000000000000020
0 0

0101101
*
Ed
 0.000000100000000 1 1 0
1  5 0 14.999999999999980 35.000000000000021
0

0101000
+52 3 -51 3 *
Ve
0.000000100000000
1935.000000000000000 25.000000000000000 -24.999999999999979
0 0

0101101
*
Ed
 0.000000100000000 1 1 0
1  6 0 -10.606601717798206 10.606601717798199
2  5 5 0 -10.606601717798206 10.606601717798199
2  6 4 2 -10.606601717798206 10.606601717798199
0

0101000
+52 0 -49 0 *
Ve
0.000000100000000
1935.000000000000000 25.000000000000000 24.999999999999979
0 0

0101101
*
Ed
 0.000000100000000 1 1 0
1  7 0 7.071067811865469 28.284271247461874
2  7 6 0 7.071067811865469 28.284271247461874
2  8 4 2 7.071067811865469 28.284271247461874
2  7 7 7 7.071067811865469 28.284271247461874
0

0101000
+51 0 -47 0 *
Ve
0.000000100000000
-35.000000000000000 25.000000000000000 -25.000000000000000
0 0

0101101
*
Ed
 0.000000100000000 1 1 0
1  8 0 15.000000000000000 1985.000000000000000
0

0101000
+49 13 -45 13 *
Ve
0.000000100000000
-35.000000000000000 25.000000000000000 25.000000000000000
0 0

0101101
*
Ed
 0.000000100000000 1 1 0
1  8 0 15.000000000000000 1985.000000000000000
0

0101000
+47 16 -43 16 *
Ed
 0.000000100000000 1 1 0
1  9 0 -717.713382904345735 -696.500179468749366
2  9 2 0 -717.713382904345735 -696.500179468749366
2  10 4 2 -717.713382904345735 -696.500179468749366
0

0101000
+62 0 -45 0 *
Ed
 0.000000100000000 1 1 0
1  10 0 -700.035713374682132 -678.822509939085649
2  11 3 0 -700.035713374682132 -678.822509939085649
2  12 4 2 -700.035713374682132 -678.822509939085649
0

0101000
+61 0 -43 0 *
Wi

0101100
+50 2 -48 0 +46 0 -44 12 +42 15 +41 0 -40 0 -60 2 *
Fa
0  0.000000100000000 4 0

0101000
+39 3 *
Ve
0.000000100000000
-35.000000000000000 -25.000000000000000 -25.000000000000000
0 0

0101101
*
Ed
 0.000000100000000 1 1 0
1  11 0 -0.000000000000000 50.000000000000000
2  13 2 0 -0.000000000000000 50.000000000000000
2  14 8 17 -0.000000000000000 50.000000000000000
0

0101000
+45 0 -37 0 *
Ed
 0.000000100000000 1 1 0
1  12 0 -10.606601717798217 10.606601717798210
2  15 2 0 -10.606601717798217 10.606601717798210
2  16 9 2 -10.606601717798217 10.606601717798210
0

0101000
+59 0 -37 0 *
Wi

0101100
-41 0 +58 0 -36 0 +35 0 *
Fa
0  0.000000000000000 2 0

0111000
+34 0 *
Ve
0.000000100000000
-35.000000000000000 -25.000000000000000 25.000000000000000
0 0

0101101
*
Ed
 0.000000100000000 1 1 0
1  13 0 -0.000000000000000 50.000000000000000
2  17 3 0 -0.000000000000000 50.000000000000000
2  18 8 18 -0.000000000000000 50.000000000000000
0

0101000
+43 0 -32 0 *
Ed
 0.000000100000000 1 1 0
1  14 0 7.071067811865477 28.284271247461902
2  19 3 0 7.071067811865477 28.284271247461902
2  20 9 2 7.071067811865477 28.284271247461902
0

0101000
+57 0 -32 0 *
Wi

0101100
-40 0 +56 0 -31 0 +30 0 *
Fa
0  0.000000000000000 3 0

0111000
+29 0 *
Ve
0.000000100000000
1935.000000000000000 -25.000000000000000 -24.999999999999979
0 0

0101101
*
Ed
 0.000000100000000 1 1 0
1  15 0 15.000000000000000 1985.000000000000000
0

0101000
+37 13 -27 13 *
Ve
0.000000100000000
1935.000000000000000 -25.000000000000000 24.999999999999979
0 0

0101101
*
Ed
 0.000000100000000 1 1 0
1  15 0 15.000000000000000 1985.000000000000000
0

0101000
+32 16 -25 16 *
Ve
0.000000100000000
1950.000000000000000 -25.000000000000000 -10.000000000000020
0 0

0101101
*
Ed
 0.000000100000000 1 1 0
1  16 0 -717.713382904345735 -696.500179468749366
2  21 5 0 -717.713382904345735 -696.500179468749366
2  22 9 2 -717.713382904345735 -696.500179468749366
0

0101000
+23 0 -27 0 *
Ve
0.000000100000000
1950.000000000000000 -25.000000000000000 10.000000000000020
0 0

0101101
*
Ed
 0.000000100000000 1 1 0
1  17 0 -700.035713374682018 -678.822509939085649
2  23 6 0 -700.035713374682018 -678.822509939085649
2  24 9 2 -700.035713374682018 -678.822509939085649
2  23 7 7 -700.035713374682018 -678.822509939085649
0

0101000
+21 0 -25 0 *
Ed
 0.000000100000000 1 1 0
1  18 0 14.999999999999980 35.000000000000021
0

0101000
+23 3 -21 3 *
Wi

0101100
+55 2 -35 0 +30 0 -26 12 +24 15 +22 0 -20 0 -19 2 *
Fa
0  0.000000100000000 9 0

0101000
+18 3 *
Ed
 0.000000100000000 1 1 0
1  19 0 0.000000000000000 50.000000000000000
2  25 5 0 0.000000000000000 50.000000000000000
2  26 10 2 0.000000000000000 50.000000000000000
0

0101000
+23 0 -52 0 *
Ed
 0.000000100000000 1 1 0
1  20 0 0.000000000000000 50.000000000000000
2  27 6 0 0.000000000000000 50.000000000000000
2  28 10 2 0.000000000000000 50.000000000000000
0

0101000
+21 0 -51 0 *
Wi

0101100
+19 2 -16 0 +15 0 -50 2 *
Fa
0  0.000000100000000 10 0

0101000
+14 3 *
Ed
 0.000000100000000 1 1 0
1  21 0 0.000000000000000 50.000000000000000
2  29 5 0 0.000000000000000 50.000000000000000
2  30 8 17 0.000000000000000 50.000000000000000
0

0101000
+27 0 -49 0 *
Wi

0101100
-22 0 +16 0 -12 0 +48 0 *
Fa
0  0.000000000000000 5 0

0101000
+11 0 *
Ed
 0.000000100000000 1 1 0
1  22 0 0.000000000000000 50.000000000000000
2  31 6 0 0.000000000000000 50.000000000000000
2  32 8 18 0.000000000000000 50.000000000000000
2  31 7 7 0.000000000000000 50.000000000000000
0

0101000
+25 0 -47 0 *
Wi

0101100
-20 0 +15 0 -9 0 +46 0 *
Fa
0  0.000000000000000 6 0

0101000
+8 0 *
Wi

0101100
+26 12 +36 0 +12 0 +44 12 *
Fa
0  0.000000100000000 8 0

0111000
+6 19 *
Wi

0101100
+24 15 +31 0 +9 0 +42 15 *
Fa
0  0.000000100000000 8 0

0111000
+4 20 *
Sh

0101100
-53 2 -38 2 -33 0 +28 0 -17 2 -13 2 -10 0 +7 0 -5 17 +3 18 
*
So

0100000
+2 0 *

+1 1 