
CASCADE Topology V1, (c) Matra-Datavision
Locations 40
1
1.000000000000000 0.000000000000000 0.000000000000000 0.000000000000000 
0.000000000000000 1.000000000000000 0.000000000000000 0.000000000000000 
0.000000000000000 0.000000000000000 1.000000000000000 0.000000000000000 
1
1.000000000000000 0.000000000000000 0.000000000000000 0.000000000000000 
0.000000000000000 1.000000000000000 0.000000000000000 0.000000000000000 
0.000000000000000 0.000000000000000 1.000000000000000 0.000000000000000 
1
1.000000000000000 0.000000000000000 0.000000000000000 0.000000000000000 
0.000000000000000 1.000000000000000 0.000000000000000 0.000000000000000 
0.000000000000000 0.000000000000000 1.000000000000000 0.000000000000000 
1
1.000000000000000 0.000000000000000 0.000000000000000 0.000000000000000 
0.000000000000000 1.000000000000000 0.000000000000000 0.000000000000000 
0.000000000000000 0.000000000000000 1.000000000000000 0.000000000000000 
2  2 1 3 1 4 -1 0
2  2 -1 0
2  4 1 3 -1 2 -1 0
2  3 1 4 -1 0
2  4 1 3 -1 0
1
1.000000000000000 0.000000000000000 0.000000000000000 0.000000000000000 
0.000000000000000 1.000000000000000 0.000000000000000 0.000000000000000 
0.000000000000000 0.000000000000000 1.000000000000000 0.000000000000000 
1
1.000000000000000 0.000000000000000 0.000000000000000 0.000000000000000 
0.000000000000000 1.000000000000000 0.000000000000000 0.000000000000000 
0.000000000000000 0.000000000000000 1.000000000000000 0.000000000000000 
1
1.000000000000000 0.000000000000000 0.000000000000000 0.000000000000000 
0.000000000000000 1.000000000000000 0.000000000000000 0.000000000000000 
0.000000000000000 0.000000000000000 1.000000000000000 0.000000000000000 
2  10 -1 11 -1 12 1 3 -1 0
1
1.000000000000000 0.000000000000000 0.000000000000000 0.000000000000000 
0.000000000000000 1.000000000000000 0.000000000000000 0.000000000000000 
0.000000000000000 0.000000000000000 1.000000000000000 0.000000000000000 
1
1.000000000000000 0.000000000000000 0.000000000000000 0.000000000000000 
0.000000000000000 1.000000000000000 0.000000000000000 0.000000000000000 
0.000000000000000 0.000000000000000 1.000000000000000 0.000000000000000 
1
1.000000000000000 0.000000000000000 0.000000000000000 0.000000000000000 
0.000000000000000 1.000000000000000 0.000000000000000 0.000000000000000 
0.000000000000000 0.000000000000000 1.000000000000000 0.000000000000000 
1
1.000000000000000 0.000000000000000 0.000000000000000 -0.000000000000000 
0.000000000000000 1.000000000000000 0.000000000000000 -0.000000000000000 
0.000000000000000 0.000000000000000 1.000000000000000 -25.000000000000000 
2  14 1 15 1 16 -1 17 1 2 1 3 1 4 -1 0
2  2 -1 17 -1 16 1 15 -1 14 -1 0
1
1.000000000000000 0.000000000000000 0.000000000000000 0.000000000000000 
0.000000000000000 1.000000000000000 0.000000000000000 0.000000000000000 
0.000000000000000 0.000000000000000 1.000000000000000 50.000000000000000 
2  14 1 15 1 16 -1 17 1 20 1 2 1 3 1 4 -1 0
2  2 -1 20 -1 17 -1 16 1 15 -1 14 -1 0
2  16 -1 17 1 2 1 0
2  16 -1 17 1 20 1 2 1 0
2  4 -1 0
1
1.000000000000000 0.000000000000000 0.000000000000000 0.000000000000000 
0.000000000000000 1.000000000000000 0.000000000000000 0.000000000000000 
0.000000000000000 0.000000000000000 1.000000000000000 0.000000000000000 
1
0.000000000000000 0.000000000000000 1.000000000000000 1950.000000000000000 
1.000000000000000 0.000000000000000 0.000000000000000 0.000000000000000 
0.000000000000000 1.000000000000000 0.000000000000000 0.000000000000000 
2  26 1 27 1 4 -1 0
2  4 1 27 -1 26 -1 0
1
1.000000000000000 0.000000000000000 0.000000000000000 75.000000000000000 
0.000000000000000 1.000000000000000 0.000000000000000 0.000000000000000 
0.000000000000000 0.000000000000000 1.000000000000000 0.000000000000000 
2  30 -1 4 1 27 -1 26 -1 0
2  16 -1 17 1 2 1 3 1 4 -1 0
2  2 -1 17 -1 16 1 0
2  14 1 15 1 16 -1 17 1 2 1 0
2  16 -1 17 1 20 1 2 1 3 1 4 -1 0
2  2 -1 20 -1 17 -1 16 1 0
2  14 1 15 1 16 -1 17 1 20 1 2 1 0
2  26 1 27 1 4 -1 30 1 0
2  4 -1 30 1 0
2  26 1 27 1 0
Curve2ds 36
1 0.00000000000000000 -10.60660171779821326 1.00000000000000000 0.00000000000000000 
1 0.00000000000000000 -15.00000000000000000 1.00000000000000000 0.00000000000000000 
1 0.00000000000000000 -10.60660171779821326 1.00000000000000000 0.00000000000000000 
1 0.00000000000000000 -35.00000000000000000 1.00000000000000000 0.00000000000000000 
1 49.99999999999999289 0.00000000000000754 -0.00000000000000000 1.00000000000000000 
1 7.50000000000000000 -7.49999999999998934 0.70710678118654757 0.70710678118654757 
1 49.99999999999999289 -17.67766952966366745 0.00000000000000000 1.00000000000000000 
1 -5.00000000000000000 -30.00000000000002842 0.70710678118654757 -0.70710678118654757 
1 0.00000000000000000 707.10678118654755053 0.00000000000000000 1.00000000000000000 
1 1492.49999999999977263 492.49999999999977263 -0.70710678118654757 0.70710678118654757 
1 0.00000000000000000 689.42911165688383335 0.00000000000000000 1.00000000000000000 
1 1504.99999999999977263 -529.99999999999977263 -0.70710678118654757 -0.70710678118654757 
1 0.00000000000000000 10.60660171779821326 1.00000000000000000 0.00000000000000000 
1 -985.00000000000000000 25.00000000000000000 0.00000000000000000 -1.00000000000000000 
1 49.99999999999999289 0.00000000000000251 0.00000000000000000 1.00000000000000000 
1 7.50000000000000000 -7.49999999999999645 0.70710678118654757 0.70710678118654757 
1 0.00000000000000000 10.60660171779821326 1.00000000000000000 0.00000000000000000 
1 -985.00000000000000000 25.00000000000000000 0.00000000000000000 -1.00000000000000000 
1 49.99999999999999289 -17.67766952966368876 0.00000000000000000 1.00000000000000000 
1 -5.00000000000000000 -30.00000000000000000 0.70710678118654757 -0.70710678118654757 
1 0.00000000000000000 707.10678118654755053 0.00000000000000000 1.00000000000000000 
1 1492.50000000000000000 492.49999999999988631 -0.70710678118654757 0.70710678118654757 
1 0.00000000000000000 689.42911165688383335 0.00000000000000000 1.00000000000000000 
1 1505.00000000000000000 -530.00000000000000000 -0.70710678118654757 -0.70710678118654757 
1 0.00000000000000000 0.00000000000000000 1.00000000000000000 0.00000000000000000 
1 0.00000000000000000 -75.00000000000000000 1.00000000000000000 0.00000000000000000 
1 0.00000000000000000 -10.60660171779818484 1.00000000000000000 0.00000000000000000 
1 0.00000000000000000 -35.00000000000000000 1.00000000000000000 0.00000000000000000 
1 0.00000000000000000 -10.60660171779818484 1.00000000000000000 0.00000000000000000 
1 0.00000000000000000 -15.00000000000000000 1.00000000000000000 0.00000000000000000 
1 0.00000000000000000 10.60660171779818484 1.00000000000000000 0.00000000000000000 
1 985.00000000000000000 -25.00000000000000000 0.00000000000000000 1.00000000000000000 
1 0.00000000000000000 10.60660171779818484 1.00000000000000000 0.00000000000000000 
1 985.00000000000000000 -25.00000000000000000 0.00000000000000000 1.00000000000000000 
1 0.00000000000000000 0.00000000000000000 0.00000000000000000 -1.00000000000000000 
1 6.28318530717958623 0.00000000000000000 0.00000000000000000 -1.00000000000000000 
Curves 24
1 -50.00000000000000000 25.00000000000000000 -25.00000000000000000 0.00000000000000000 0.00000000000000000 1.00000000000000000 
1 -50.00000000000000000 25.00000000000000000 -10.00000000000000000 0.00000000000000000 -1.00000000000000000 0.00000000000000000 
1 -50.00000000000000000 25.00000000000000000 10.00000000000000000 0.00000000000000000 -1.00000000000000000 0.00000000000000000 
1 -50.00000000000000000 -25.00000000000000000 -25.00000000000000000 0.00000000000000000 0.00000000000000000 1.00000000000000000 
1 1950.00000000000000000 25.00000000000000000 -25.00000000000000000 0.00000000000000000 0.00000000000000000 1.00000000000000000 
8 -10.60660171779820615 10.60660171779819905
1 1942.50000000000000000 24.99999999999999289 -17.50000000000001066 -0.70710678118654757 -0.00000000000000000 -0.70710678118654757 
8 7.07106781186546929 28.28427124746187360
1 1955.00000000000000000 24.99999999999999289 5.00000000000003020 -0.70710678118654757 -0.00000000000000000 0.70710678118654757 
1 1950.00000000000000000 25.00000000000000000 0.00000000000000000 -1.00000000000000000 0.00000000000000000 0.00000000000000000 
8 -717.71338290434573537 -696.50017946874936570
1 457.50000000000017053 25.00000000000000000 -517.49999999999977263 0.70710678118654757 0.00000000000000000 -0.70710678118654757 
8 -700.03571337468213187 -678.82250993908564851
1 445.00000000000017053 25.00000000000000000 504.99999999999982947 0.70710678118654757 0.00000000000000000 0.70710678118654757 
1 -35.00000000000000000 25.00000000000000000 -25.00000000000000000 0.00000000000000000 -1.00000000000000000 0.00000000000000000 
8 -10.60660171779821681 10.60660171779820971
1 -42.50000000000000000 -24.99999999999999289 -17.50000000000000355 0.70710678118654757 -0.00000000000000000 -0.70710678118654757 
1 -35.00000000000000000 25.00000000000000000 25.00000000000000000 0.00000000000000000 -1.00000000000000000 0.00000000000000000 
8 7.07106781186547728 28.28427124746190202
1 -55.00000000000000000 -24.99999999999999289 4.99999999999999822 0.70710678118654757 -0.00000000000000000 0.70710678118654757 
1 -50.00000000000000000 -25.00000000000000000 0.00000000000000000 1.00000000000000000 0.00000000000000000 0.00000000000000000 
8 -717.71338290434573537 -696.50017946874936570
1 1442.50000000000000000 -25.00000000000000000 -517.49999999999988631 -0.70710678118654757 0.00000000000000000 -0.70710678118654757 
8 -700.03571337468201818 -678.82250993908564851
1 1455.00000000000000000 -25.00000000000000000 504.99999999999994316 -0.70710678118654757 0.00000000000000000 0.70710678118654757 
1 1950.00000000000000000 -25.00000000000000000 -25.00000000000000000 0.00000000000000000 0.00000000000000000 1.00000000000000000 
2 0.00000000000000000 0.00000000000000000 0.00000000000000000 0.00000000000000000 0.00000000000000000 1.00000000000000000 1.00000000000000000 0.00000000000000000 0.00000000000000000 0.00000000000000000 1.00000000000000000 0.00000000000000000 37.50000000000000000
1 1950.00000000000000000 -25.00000000000000000 10.00000000000000000 0.00000000000000000 1.00000000000000000 0.00000000000000000 
1 1950.00000000000000000 -25.00000000000000000 -10.00000000000000000 0.00000000000000000 1.00000000000000000 0.00000000000000000 
1 1935.00000000000000000 -25.00000000000000000 -25.00000000000000000 0.00000000000000000 1.00000000000000000 0.00000000000000000 
1 1935.00000000000000000 -25.00000000000000000 25.00000000000000000 0.00000000000000000 1.00000000000000000 0.00000000000000000 
1 1950.00000000000000000 37.50000000000000000 0.00000000000000000 1.00000000000000000 0.00000000000000000 0.00000000000000000 
Polygon3D 0
PolygonOnTriangulations 0
Surfaces 12
1 -50.00000000000000000 25.00000000000000000 -25.00000000000000000 1.00000000000000000 0.00000000000000000 -0.00000000000000000 0.00000000000000000 -1.00000000000000000 0.00000000000000000 0.00000000000000000 -0.00000000000000000 -1.00000000000000000 
1 -42.50000000000000000 25.00000000000000000 -17.50000000000000000 -0.70710678118654746 0.00000000000000000 -0.70710678118654746 0.00000000000000000 -1.00000000000000000 -0.00000000000000000 0.70710678118654757 0.00000000000000000 -0.70710678118654757 
1 -42.50000000000000000 25.00000000000000000 17.50000000000000000 0.70710678118654746 0.00000000000000000 -0.70710678118654746 0.00000000000000000 -1.00000000000000000 0.00000000000000000 0.70710678118654757 0.00000000000000000 0.70710678118654757 
1 1950.00000000000000000 25.00000000000000000 -25.00000000000000000 0.00000000000000000 -1.00000000000000000 0.00000000000000000 -1.00000000000000000 0.00000000000000000 0.00000000000000000 -0.00000000000000000 -0.00000000000000000 -1.00000000000000000 
1 1942.50000000000000000 -25.00000000000000000 -17.50000000000000000 0.70710678118654746 0.00000000000000000 -0.70710678118654746 0.00000000000000000 1.00000000000000000 0.00000000000000000 -0.70710678118654757 0.00000000000000000 -0.70710678118654757 
1 1942.50000000000000000 -25.00000000000000000 17.50000000000000000 -0.70710678118654746 0.00000000000000000 -0.70710678118654746 0.00000000000000000 1.00000000000000000 0.00000000000000000 -0.70710678118654757 -0.00000000000000000 0.70710678118654757 
1 1942.50000000000000000 -25.00000000000000000 17.50000000000000000 -0.70710678118654757 0.00000000000000000 -0.70710678118654757 0.00000000000000000 1.00000000000000000 0.00000000000000000 -0.70710678118654757 0.00000000000000000 0.70710678118654757 
1 950.00000000000000000 0.00000000000000000 0.00000000000000000 0.00000000000000000 0.00000000000000000 1.00000000000000000 1.00000000000000000 0.00000000000000000 -0.00000000000000000 -0.00000000000000000 1.00000000000000000 0.00000000000000000 
1 -50.00000000000000000 -25.00000000000000000 -25.00000000000000000 0.00000000000000000 1.00000000000000000 0.00000000000000000 1.00000000000000000 0.00000000000000000 0.00000000000000000 0.00000000000000000 0.00000000000000000 -1.00000000000000000 
1 1950.00000000000022737 -0.00000000000000350 0.00000000000000080 1.00000000000000000 0.00000000000000000 0.00000000000000000 -0.00000000000000000 0.00000000000000000 1.00000000000000000 0.00000000000000000 -1.00000000000000000 0.00000000000000000 
2 1950.00000000000000000 0.00000000000000000 0.00000000000000000 -1.00000000000000000 -0.00000000000000000 -0.00000000000000000 0.00000000000000000 1.00000000000000000 0.00000000000000000 0.00000000000000000 0.00000000000000000 1.00000000000000000 37.50000000000000000
1 1950.00000000000000000 -25.00000000000000000 -25.00000000000000000 -1.00000000000000000 0.00000000000000000 0.00000000000000000 0.00000000000000000 1.00000000000000000 0.00000000000000000 0.00000000000000000 0.00000000000000000 -1.00000000000000000 
Triangulations 0

TShapes 70
Ve
0.000000100000000
-50.000000000000000 25.000000000000000 -10.000000000000000
0 0

0101101
*
Ve
0.000000100000000
-50.000000000000000 25.000000000000000 10.000000000000000
0 0

0101101
*
Ed
 0.000000100000000 1 1 0
1  1 0 15.000000000000000 35.000000000000000
0

0101000
+70 6 -69 6 *
Ve
0.000000100000000
-50.000000000000000 -25.000000000000000 -10.000000000000000
0 0

0101101
*
Ed
 0.000000100000000 1 1 0
1  2 0 0.000000000000000 50.000000000000000
2  1 2 0 0.000000000000000 50.000000000000000
2  2 1 2 0.000000000000000 50.000000000000000
0

0101000
+70 0 -67 0 *
Ve
0.000000100000000
-50.000000000000000 -25.000000000000000 10.000000000000000
0 0

0101101
*
Ed
 0.000000100000000 1 1 0
1  3 0 0.000000000000000 50.000000000000000
2  3 3 0 0.000000000000000 50.000000000000000
2  4 1 2 0.000000000000000 50.000000000000000
0

0101000
+69 0 -65 0 *
Ed
 0.000000100000000 1 1 0
1  4 0 15.000000000000000 35.000000000000000
0

0101000
+67 6 -65 6 *
Wi

0101100
+68 2 -66 0 +64 0 -63 2 *
Fa
0  0.000000100000000 1 0

0111000
+62 6 *
Ve
0.000000100000000
1950.000000000000000 25.000000000000000 -10.000000000000020
0 0

0101101
*
Ve
0.000000100000000
1950.000000000000000 25.000000000000000 10.000000000000020
0 0

0101101
*
Ed
 0.000000100000227 1 1 0
1  5 0 14.999999999999980 35.000000000000021
0

0101000
+60 7 -59 7 *
Ve
0.000000100000000
1935.000000000000000 25.000000000000000 -24.999999999999979
0 0

0101101
*
Ed
 0.000000100000000 1 1 0
1  6 0 -10.606601717798206 10.606601717798199
2  5 5 0 -10.606601717798206 10.606601717798199
2  6 4 2 -10.606601717798206 10.606601717798199
0

0101000
+60 9 -57 0 *
Ve
0.000000100000000
1935.000000000000000 25.000000000000000 24.999999999999979
0 0

0101101
*
Ed
 0.000000100000000 1 1 0
1  7 0 7.071067811865469 28.284271247461874
2  7 6 0 7.071067811865469 28.284271247461874
2  8 4 2 7.071067811865469 28.284271247461874
2  7 7 13 7.071067811865469 28.284271247461874
0

0101000
+59 9 -55 0 *
Ve
0.000000100000000
-35.000000000000000 25.000000000000000 -25.000000000000000
0 0

0101101
*
Ed
 0.000000100000000 1 1 0
1  8 0 15.000000000000000 1985.000000000000000
0

0101000
+57 19 -53 19 *
Ve
0.000000100000000
-35.000000000000000 25.000000000000000 25.000000000000000
0 0

0101101
*
Ed
 0.000000100000000 1 1 0
1  8 0 15.000000000000000 1985.000000000000000
0

0101000
+55 22 -51 22 *
Ed
 0.000000100000000 1 1 0
1  9 0 -717.713382904345735 -696.500179468749366
2  9 2 0 -717.713382904345735 -696.500179468749366
2  10 4 2 -717.713382904345735 -696.500179468749366
0

0101000
+70 0 -53 0 *
Ed
 0.000000100000000 1 1 0
1  10 0 -700.035713374682132 -678.822509939085649
2  11 3 0 -700.035713374682132 -678.822509939085649
2  12 4 2 -700.035713374682132 -678.822509939085649
0

0101000
+69 0 -51 0 *
Wi

0101100
+58 5 -56 8 +54 8 -52 18 +50 21 +49 8 -48 8 -68 5 *
Fa
0  0.000000100000000 4 5

0101000
+47 0 *
Ve
0.000000100000000
-35.000000000000000 -25.000000000000000 -25.000000000000000
0 0

0101101
*
Ed
 0.000000100000000 1 1 0
1  11 0 -0.000000000000000 50.000000000000000
2  13 2 0 -0.000000000000000 50.000000000000000
2  14 8 23 -0.000000000000000 50.000000000000000
0

0101000
+53 0 -45 0 *
Ed
 0.000000100000000 1 1 0
1  12 0 -10.606601717798217 10.606601717798210
2  15 2 0 -10.606601717798217 10.606601717798210
2  16 9 2 -10.606601717798217 10.606601717798210
0

0101000
+67 0 -45 0 *
Wi

0101100
-49 0 +66 0 -44 0 +43 0 *
Fa
0  0.000000000000000 2 0

0111000
+42 0 *
Ve
0.000000100000000
-35.000000000000000 -25.000000000000000 25.000000000000000
0 0

0101101
*
Ed
 0.000000100000000 1 1 0
1  13 0 -0.000000000000000 50.000000000000000
2  17 3 0 -0.000000000000000 50.000000000000000
2  18 8 24 -0.000000000000000 50.000000000000000
0

0101000
+51 0 -40 0 *
Ed
 0.000000100000000 1 1 0
1  14 0 7.071067811865477 28.284271247461902
2  19 3 0 7.071067811865477 28.284271247461902
2  20 9 2 7.071067811865477 28.284271247461902
0

0101000
+65 0 -40 0 *
Wi

0101100
-48 0 +64 0 -39 0 +38 0 *
Fa
0  0.000000000000000 3 0

0111000
+37 0 *
Ve
0.000000100000000
1935.000000000000000 -25.000000000000000 -24.999999999999979
0 0

0101101
*
Ed
 0.000000100000000 1 1 0
1  15 0 15.000000000000000 1985.000000000000000
0

0101000
+45 19 -35 19 *
Ve
0.000000100000000
1935.000000000000000 -25.000000000000000 24.999999999999979
0 0

0101101
*
Ed
 0.000000100000000 1 1 0
1  15 0 15.000000000000000 1985.000000000000000
0

0101000
+40 22 -33 22 *
Ve
0.000000100000000
1950.000000000000000 -25.000000000000000 -10.000000000000020
0 0

0101101
*
Ed
 0.000000100000000 1 1 0
1  16 0 -717.713382904345735 -696.500179468749366
2  21 5 0 -717.713382904345735 -696.500179468749366
2  22 9 2 -717.713382904345735 -696.500179468749366
0

0101000
+31 9 -35 0 *
Ve
0.000000100000000
1950.000000000000000 -25.000000000000000 10.000000000000020
0 0

0101101
*
Ed
 0.000000100000000 1 1 0
1  17 0 -700.035713374682018 -678.822509939085649
2  23 6 0 -700.035713374682018 -678.822509939085649
2  24 9 2 -700.035713374682018 -678.822509939085649
2  23 7 13 -700.035713374682018 -678.822509939085649
0

0101000
+29 9 -33 0 *
Ed
 0.000000100000227 1 1 0
1  18 0 14.999999999999980 35.000000000000021
0

0101000
+31 7 -29 7 *
Wi

0101100
+63 5 -43 8 +38 8 -34 18 +32 21 +30 8 -28 8 -27 5 *
Fa
0  0.000000100000000 9 5

0101000
+26 0 *
Ve
0.000000100000000
37.500000000000000 0.000000000000000 0.000000000000000
0 0

0101101
*
Ed
 0.000000100000000 1 1 0
1  19 0 0.000000000000000 6.283185307179586
2  25 11 29 0.000000000000000 6.283185307179586
2  26 11 31 0.000000000000000 6.283185307179586
0

0101100
+24 0 -24 0 *
Wi

0101100
+23 28 *
Ed
 0.000000100000227 1 1 0
1  20 0 0.000000000000000 50.000000000000000
2  27 6 0 0.000000000000000 50.000000000000000
2  28 12 2 0.000000000000000 50.000000000000000
0

0101000
+29 9 -59 9 *
Ed
 0.000000100000227 1 1 0
1  21 0 0.000000000000000 50.000000000000000
2  29 5 0 0.000000000000000 50.000000000000000
2  30 12 2 0.000000000000000 50.000000000000000
0

0101000
+31 9 -60 9 *
Wi

0101100
-58 5 +21 8 +27 5 -20 8 *
Fa
0  0.000000100000000 10 25

0101000
+22 0 +19 0 *
Ed
 0.000000100000000 1 1 0
1  22 0 0.000000000000000 50.000000000000000
2  31 5 0 0.000000000000000 50.000000000000000
2  32 8 23 0.000000000000000 50.000000000000000
0

0101000
+35 0 -57 0 *
Wi

0101100
-30 8 +20 8 -17 8 +56 8 *
Fa
0  0.000000100000000 5 8

0101000
+16 0 *
Ed
 0.000000100000000 1 1 0
1  23 0 0.000000000000000 50.000000000000000
2  33 6 0 0.000000000000000 50.000000000000000
2  34 8 24 0.000000000000000 50.000000000000000
2  33 7 13 0.000000000000000 50.000000000000000
0

0101000
+33 0 -55 0 *
Wi

0101100
-28 8 +21 8 -14 8 +54 8 *
Fa
0  0.000000100000000 6 8

0101000
+13 0 *
Wi

0101100
+34 34 +44 0 +17 0 +52 34 *
Fa
0  0.000000100000000 8 0

0111000
+11 33 *
Wi

0101100
+32 37 +39 0 +14 0 +50 37 *
Fa
0  0.000000100000000 8 0

0111000
+9 36 *
Ed
 0.000000100000000 1 1 0
1  24 0 0.000000000000000 75.000000000000000
3  35 36CN 11 0 0.000000000000000 75.000000000000000
0

0101000
+24 28 -24 38 *
Wi

0101100
+7 0 -7 0 -23 28 +23 38 *
Fa
0  0.000000100000000 11 0

0101000
+6 0 *
Wi

0101100
+23 0 *
Fa
0  0.000000100000000 10 0

0101000
+4 40 *
Sh

0101100
-61 5 -46 0 -41 8 +36 8 -25 0 -18 0 -15 0 +12 0 -10 32 +8 35 
-5 0 +3 39 *
So

1100000
+2 0 *

+1 1 